<?xml version="1.0" encoding="UTF-8"?>
<!DOCTYPE svg PUBLIC "-//W3C//DTD SVG 1.1//EN" "http://www.w3.org/Graphics/SVG/1.1/DTD/svg11.dtd">
<svg xmlns="http://www.w3.org/2000/svg" version="1.1" width="612px" height="408px" style="shape-rendering:geometricPrecision; text-rendering:geometricPrecision; image-rendering:optimizeQuality; fill-rule:evenodd; clip-rule:evenodd" xmlns:xlink="http://www.w3.org/1999/xlink">
<g><path style="opacity:1" fill="#2a2b30" d="M 236.5,103.5 C 282.5,103.5 328.5,103.5 374.5,103.5C 373.883,109.598 374.55,115.265 376.5,120.5C 381.833,120.5 387.167,120.5 392.5,120.5C 392.5,142.833 392.5,165.167 392.5,187.5C 446.336,187.168 500.003,187.501 553.5,188.5C 547.642,187.987 541.975,188.654 536.5,190.5C 533.579,189.593 530.579,189.26 527.5,189.5C 527.5,190.833 527.5,192.167 527.5,193.5C 530.247,193.187 532.914,193.52 535.5,194.5C 528.516,196.353 528.182,198.353 534.5,200.5C 536.383,200.124 537.883,199.124 539,197.5C 539.617,198.449 539.451,199.282 538.5,200C 539.308,200.308 539.975,200.808 540.5,201.5C 539.384,201.402 538.384,201.902 537.5,203C 538.824,228.973 538.824,254.806 537.5,280.5C 537.831,255.328 537.498,230.328 536.5,205.5C 476.669,204.501 416.669,204.168 356.5,204.5C 356.5,176.5 356.5,148.5 356.5,120.5C 322.5,120.5 288.5,120.5 254.5,120.5C 254.5,148.5 254.5,176.5 254.5,204.5C 254.167,204.5 253.833,204.5 253.5,204.5C 193.669,203.501 133.669,203.168 73.5,203.5C 73.5,229.5 73.5,255.5 73.5,281.5C 72.4168,281.461 71.4168,281.127 70.5,280.5C 69.8076,281.025 69.3076,281.692 69,282.5C 66.6876,281.85 64.1876,281.85 61.5,282.5C 61.9767,283.478 62.6433,284.311 63.5,285C 61.4201,287.936 60.0868,291.269 59.5,295C 59.6448,295.772 59.9781,296.439 60.5,297C 224.833,297.5 389.166,297.667 553.5,297.5C 388.334,298.5 223.001,298.833 57.5,298.5C 57.5,261.5 57.5,224.5 57.5,187.5C 111.167,187.5 164.833,187.5 218.5,187.5C 218.5,165.167 218.5,142.833 218.5,120.5C 223.833,120.5 229.167,120.5 234.5,120.5C 236.45,115.265 237.117,109.598 236.5,103.5 Z"/></g>
<g><path style="opacity:0.45" fill="#8e8f93" d="M 235.5,103.5 C 235.833,103.5 236.167,103.5 236.5,103.5C 237.117,109.598 236.45,115.265 234.5,120.5C 234.178,114.642 234.511,108.975 235.5,103.5 Z"/></g>
<g><path style="opacity:0.354" fill="#b4b4b6" d="M 235.5,103.5 C 281.997,102.501 328.664,102.168 375.5,102.5C 375.449,108.773 375.783,114.773 376.5,120.5C 374.55,115.265 373.883,109.598 374.5,103.5C 328.5,103.5 282.5,103.5 236.5,103.5C 236.167,103.5 235.833,103.5 235.5,103.5 Z"/></g>
<g><path style="opacity:1" fill="#7e848c" d="M 356.5,204.5 C 322.5,204.5 288.5,204.5 254.5,204.5C 254.5,176.5 254.5,148.5 254.5,120.5C 288.5,120.5 322.5,120.5 356.5,120.5C 356.5,148.5 356.5,176.5 356.5,204.5 Z"/></g>
<g><path style="opacity:1" fill="#27292e" d="M 272.5,138.5 C 294.5,138.5 316.5,138.5 338.5,138.5C 338.5,151.167 338.5,163.833 338.5,176.5C 316.5,176.5 294.5,176.5 272.5,176.5C 272.5,163.833 272.5,151.167 272.5,138.5 Z"/></g>
<g><path style="opacity:1" fill="#28282e" d="M 553.5,188.5 C 553.5,224.833 553.5,261.167 553.5,297.5C 389.166,297.667 224.833,297.5 60.5,297C 59.9781,296.439 59.6448,295.772 59.5,295C 60.0868,291.269 61.4201,287.936 63.5,285C 62.6433,284.311 61.9767,283.478 61.5,282.5C 64.1876,281.85 66.6876,281.85 69,282.5C 69.3076,281.692 69.8076,281.025 70.5,280.5C 71.4168,281.127 72.4168,281.461 73.5,281.5C 73.8333,281.5 74.1667,281.5 74.5,281.5C 229.001,281.833 383.334,281.5 537.5,280.5C 538.824,254.806 538.824,228.973 537.5,203C 538.384,201.902 539.384,201.402 540.5,201.5C 539.975,200.808 539.308,200.308 538.5,200C 539.451,199.282 539.617,198.449 539,197.5C 537.883,199.124 536.383,200.124 534.5,200.5C 528.182,198.353 528.516,196.353 535.5,194.5C 532.914,193.52 530.247,193.187 527.5,193.5C 527.5,192.167 527.5,190.833 527.5,189.5C 530.579,189.26 533.579,189.593 536.5,190.5C 541.975,188.654 547.642,187.987 553.5,188.5 Z"/></g>
<g><path style="opacity:1" fill="#2e1f0f" d="M 253.5,204.5 C 193.833,204.5 134.167,204.5 74.5,204.5C 74.5,220.5 74.5,236.5 74.5,252.5C 74.5,261.833 74.5,271.167 74.5,280.5C 74.5,280.833 74.5,281.167 74.5,281.5C 74.1667,281.5 73.8333,281.5 73.5,281.5C 73.5,255.5 73.5,229.5 73.5,203.5C 133.669,203.168 193.669,203.501 253.5,204.5 Z"/></g>
<g><path style="opacity:1" fill="#8f7047" d="M 253.5,204.5 C 253.833,204.5 254.167,204.5 254.5,204.5C 288.5,204.5 322.5,204.5 356.5,204.5C 416.669,204.168 476.669,204.501 536.5,205.5C 536.5,221.167 536.5,236.833 536.5,252.5C 536.167,252.5 535.833,252.5 535.5,252.5C 535.5,236.833 535.5,221.167 535.5,205.5C 382.332,205.167 229.332,205.5 76.5,206.5C 75.5038,221.658 75.1705,236.991 75.5,252.5C 75.1667,252.5 74.8333,252.5 74.5,252.5C 74.5,236.5 74.5,220.5 74.5,204.5C 134.167,204.5 193.833,204.5 253.5,204.5 Z"/></g>
<g><path style="opacity:1" fill="#b77f35" d="M 76.5,206.5 C 229.332,205.5 382.332,205.167 535.5,205.5C 535.5,221.167 535.5,236.833 535.5,252.5C 535.167,252.5 534.833,252.5 534.5,252.5C 534.5,237.167 534.5,221.833 534.5,206.5C 448.5,206.5 362.5,206.5 276.5,206.5C 273.167,206.5 269.833,206.5 266.5,206.5C 203.833,206.5 141.167,206.5 78.5,206.5C 77.8333,206.5 77.1667,206.5 76.5,206.5 Z"/></g>
<g><path style="opacity:1" fill="#c18026" d="M 76.5,206.5 C 77.1667,206.5 77.8333,206.5 78.5,206.5C 77.1084,209.025 77.4418,211.192 79.5,213C 77.1198,215.144 77.1198,217.81 79.5,221C 78.8333,222.333 78.1667,223.667 77.5,225C 79.8078,226.936 82.4745,227.769 85.5,227.5C 87.1958,234.237 90.8625,239.57 96.5,243.5C 97.1924,242.975 97.6924,242.308 98,241.5C 100.152,243.812 102.152,243.478 104,240.5C 104.483,241.448 104.649,242.448 104.5,243.5C 109.103,243.587 113.27,242.92 117,241.5C 120.698,242.933 124.532,243.766 128.5,244C 128.554,245.351 128.054,246.518 127,247.5C 124.341,245.499 121.507,245.166 118.5,246.5C 118.709,247.086 119.043,247.586 119.5,248C 122.687,248.889 125.853,249.722 129,250.5C 140.439,250.252 151.939,250.252 163.5,250.5C 163.693,246.551 164.193,246.551 165,250.5C 168.517,249.971 172.517,249.971 177,250.5C 180.485,250.368 183.818,249.701 187,248.5C 188.649,249.898 189.982,249.564 191,247.5C 192.793,249.806 194.96,250.139 197.5,248.5C 198.386,247.675 198.719,246.675 198.5,245.5C 196.876,245.36 195.71,246.027 195,247.5C 194.481,246.484 193.647,245.818 192.5,245.5C 189.545,246.418 186.545,246.418 183.5,245.5C 180.953,245.442 178.62,246.109 176.5,247.5C 173.37,244.887 170.204,244.887 167,247.5C 165.297,245.579 163.297,245.579 161,247.5C 157.761,245.683 154.427,245.349 151,246.5C 148.865,245.873 146.698,245.373 144.5,245C 147,243.833 148.833,242 150,239.5C 150.75,240.126 151.584,240.626 152.5,241C 157.616,241.232 162.616,241.399 167.5,241.5C 169.5,241.5 171.5,241.5 173.5,241.5C 173.281,242.675 173.614,243.675 174.5,244.5C 175.333,243.5 176.167,242.5 177,241.5C 177.839,242.624 179.006,243.291 180.5,243.5C 182.472,242.843 184.305,242.843 186,243.5C 187,242.833 188,242.167 189,241.5C 192.331,244.055 195.665,244.055 199,241.5C 200.285,241.95 201.452,242.617 202.5,243.5C 203.833,240.833 205.167,240.833 206.5,243.5C 209.318,240.987 212.151,240.987 215,243.5C 216.462,242.965 218.128,242.965 220,243.5C 222.105,243.211 223.938,242.378 225.5,241C 223.099,240.195 223.266,239.362 226,238.5C 227.183,239.731 228.349,239.731 229.5,238.5C 227.252,237.676 227.086,236.676 229,235.5C 230.772,237.906 232.939,239.906 235.5,241.5C 236.696,241.154 236.696,240.654 235.5,240C 236.448,239.517 237.448,239.351 238.5,239.5C 238.251,242.575 239.585,243.242 242.5,241.5C 243.5,241.667 244.5,241.833 245.5,242C 244.112,242.889 244.278,243.389 246,243.5C 247.932,241.822 250.098,241.322 252.5,242C 252.167,242.333 251.833,242.667 251.5,243C 256.851,243.61 262.184,243.443 267.5,242.5C 269.32,242.351 270.82,241.684 272,240.5C 272.359,243.544 273.026,243.878 274,241.5C 274.667,244.167 275.333,244.167 276,241.5C 276.333,242.167 276.667,242.833 277,243.5C 277.388,242.572 278.055,241.905 279,241.5C 283.854,242.109 288.854,242.109 294,241.5C 295.447,241.945 296.78,242.612 298,243.5C 298.106,242.206 299.106,241.539 301,241.5C 302.667,242.167 304.333,242.833 306,243.5C 307.889,242.397 309.723,242.397 311.5,243.5C 313.572,240.846 315.239,241.18 316.5,244.5C 316.333,245.167 316.167,245.833 316,246.5C 311.017,244.999 306.183,245.332 301.5,247.5C 300.259,246.963 299.092,246.296 298,245.5C 297.333,246.167 296.667,246.833 296,247.5C 291.561,245.221 287.061,245.221 282.5,247.5C 281.167,244.833 279.833,244.833 278.5,247.5C 277.808,246.975 277.308,246.308 277,245.5C 275.667,248.167 274.333,248.167 273,245.5C 272.667,246.167 272.333,246.833 272,247.5C 271.481,246.484 270.647,245.818 269.5,245.5C 267.896,245.939 266.396,246.606 265,247.5C 260.719,244.547 257.886,245.547 256.5,250.5C 261.692,249.623 266.526,249.623 271,250.5C 271.333,249.833 271.667,249.167 272,248.5C 274.072,251.094 276.239,251.094 278.5,248.5C 280.059,249.074 281.559,249.74 283,250.5C 297.126,249.392 310.626,249.392 323.5,250.5C 325.32,250.351 326.82,249.684 328,248.5C 328.667,251.167 329.333,251.167 330,248.5C 333.222,251.005 336.556,251.005 340,248.5C 342.724,249.776 345.724,250.442 349,250.5C 369.249,250.125 389.916,250.125 411,250.5C 412.326,250.245 413.326,249.578 414,248.5C 417.003,251.106 417.836,250.44 416.5,246.5C 415.372,245.738 414.205,245.071 413,244.5C 405.611,246.069 398.444,245.236 391.5,242C 395.465,241.466 399.298,241.966 403,243.5C 404.167,243.167 405.333,242.833 406.5,242.5C 405.098,241.158 405.431,240.324 407.5,240C 405.866,239.506 404.199,239.34 402.5,239.5C 402.404,235.689 401.738,235.689 400.5,239.5C 399.167,239.167 397.833,238.833 396.5,238.5C 398.358,236.476 400.025,234.309 401.5,232C 400.833,231.667 400.167,231.333 399.5,231C 400.841,227.738 400.508,227.238 398.5,229.5C 397.723,227.219 396.723,225.052 395.5,223C 396.448,222.517 397.448,222.351 398.5,222.5C 399.003,227.5 399.336,227.167 399.5,221.5C 396.477,221.483 393.81,220.483 391.5,218.5C 392,218.167 392.5,217.833 393,217.5C 394.879,219.013 397.046,219.679 399.5,219.5C 398.838,215.534 398.505,211.534 398.5,207.5C 396.801,207.34 395.134,207.506 393.5,208C 392.535,210.474 392.368,212.974 393,215.5C 391.301,216.406 389.467,216.739 387.5,216.5C 387.824,219.694 386.658,220.694 384,219.5C 379.867,220.291 375.7,221.124 371.5,222C 371.957,222.414 372.291,222.914 372.5,223.5C 370.955,224.452 369.288,224.785 367.5,224.5C 367.872,227.022 367.039,229.022 365,230.5C 365.437,228.243 365.937,225.91 366.5,223.5C 367.675,223.719 368.675,223.386 369.5,222.5C 364.054,221.426 358.721,220.759 353.5,220.5C 352.378,222.044 352.711,223.377 354.5,224.5C 353.066,225.23 351.9,226.23 351,227.5C 350.517,226.552 350.351,225.552 350.5,224.5C 346.551,224.307 346.551,223.807 350.5,223C 349.789,221.745 348.956,220.579 348,219.5C 347.71,221.044 347.044,222.377 346,223.5C 345,222.167 344,222.167 343,223.5C 342.86,221.744 343.36,220.078 344.5,218.5C 342.998,216.48 341.331,214.98 339.5,214C 341.235,213.349 342.902,213.515 344.5,214.5C 344.833,214.167 345.167,213.833 345.5,213.5C 344.672,212.585 343.672,211.919 342.5,211.5C 339.25,212.194 336.083,213.194 333,214.5C 331.188,214.507 329.688,213.84 328.5,212.5C 324.578,214.584 322.745,217.917 323,222.5C 322.308,221.975 321.808,221.308 321.5,220.5C 322.939,218.657 322.772,216.99 321,215.5C 320.182,220.794 319.682,220.794 319.5,215.5C 314.371,215.281 314.371,214.614 319.5,213.5C 318.833,211.5 318.167,209.5 317.5,207.5C 314.795,207.38 314.128,208.38 315.5,210.5C 313.653,211.83 312.153,211.497 311,209.5C 309.759,211.421 308.259,211.754 306.5,210.5C 307.5,209.667 308.5,208.833 309.5,208C 307.527,207.505 305.527,207.338 303.5,207.5C 303.66,209.199 303.494,210.866 303,212.5C 298.966,208.526 294.466,207.859 289.5,210.5C 286.835,209.112 285.835,210.112 286.5,213.5C 285.022,213.762 283.689,213.429 282.5,212.5C 283.641,211.575 283.641,210.741 282.5,210C 280.413,210.218 278.413,210.051 276.5,209.5C 277.025,208.808 277.692,208.308 278.5,208C 277.584,207.722 276.918,207.222 276.5,206.5C 362.5,206.5 448.5,206.5 534.5,206.5C 534.5,221.833 534.5,237.167 534.5,252.5C 381.833,252.5 229.167,252.5 76.5,252.5C 76.1667,252.5 75.8333,252.5 75.5,252.5C 75.1705,236.991 75.5038,221.658 76.5,206.5 Z"/></g>
<g><path style="opacity:1" fill="#c18026" d="M 78.5,206.5 C 141.167,206.5 203.833,206.5 266.5,206.5C 267.116,208.417 268.45,209.584 270.5,210C 269.332,211.406 269.665,212.572 271.5,213.5C 270.603,213.669 269.603,214.002 268.5,214.5C 269.325,215.386 270.325,215.719 271.5,215.5C 271.649,216.552 271.483,217.552 271,218.5C 268.157,218.275 265.323,217.942 262.5,217.5C 262.167,217.833 261.833,218.167 261.5,218.5C 262.325,219.386 263.325,219.719 264.5,219.5C 264.762,220.978 264.429,222.311 263.5,223.5C 263.704,222.471 263.204,221.471 262,220.5C 260.368,222.027 260.201,223.693 261.5,225.5C 262.086,225.291 262.586,224.957 263,224.5C 263.949,227.2 265.783,228.033 268.5,227C 267.833,226.333 267.167,225.667 266.5,225C 268.579,224.192 270.579,224.359 272.5,225.5C 272.154,226.696 271.654,226.696 271,225.5C 269.513,226.253 269.346,227.086 270.5,228C 269.672,228.915 268.672,229.581 267.5,230C 268,230.5 268.5,231 269,231.5C 270.385,230.449 271.385,229.116 272,227.5C 272.333,227.833 272.667,228.167 273,228.5C 273.333,226.833 273.667,225.167 274,223.5C 275,234.167 276,234.167 277,223.5C 277.182,226.226 277.682,228.893 278.5,231.5C 278.837,228.839 279.17,226.173 279.5,223.5C 277.349,222.18 275.349,220.68 273.5,219C 275.129,218.415 276.629,217.581 278,216.5C 278.5,216.833 279,217.167 279.5,217.5C 278.833,218.167 278.167,218.833 277.5,219.5C 278.274,220.711 279.107,220.711 280,219.5C 281.5,222.636 281.666,225.802 280.5,229C 282.154,230.904 282.487,232.904 281.5,235C 281.95,236.285 282.617,237.452 283.5,238.5C 283.192,239.308 282.692,239.975 282,240.5C 279.141,239.827 276.308,238.993 273.5,238C 275.24,236.173 276.907,236.34 278.5,238.5C 279.594,237.132 279.26,235.965 277.5,235C 275.635,233.699 273.635,233.365 271.5,234C 272.451,234.718 272.617,235.551 272,236.5C 270.288,234.247 268.121,232.58 265.5,231.5C 264.63,233.407 263.63,235.24 262.5,237C 262.892,238.011 263.559,238.511 264.5,238.5C 263.277,239.614 261.944,239.781 260.5,239C 260.631,236.535 260.631,234.035 260.5,231.5C 259.833,234.167 259.167,236.833 258.5,239.5C 257.204,232.959 256.538,232.959 256.5,239.5C 255.167,239.5 253.833,239.5 252.5,239.5C 252.5,236.833 252.5,234.167 252.5,231.5C 253.833,231.5 255.167,231.5 256.5,231.5C 256.649,230.448 256.483,229.448 256,228.5C 255.29,229.973 254.124,230.64 252.5,230.5C 252.671,227.203 252.005,226.869 250.5,229.5C 250.709,230.086 251.043,230.586 251.5,231C 249.998,233.574 248.998,236.407 248.5,239.5C 247.184,236.972 246.017,236.972 245,239.5C 244.535,238.069 243.701,236.903 242.5,236C 237.875,235.494 236.708,233.328 239,229.5C 240.494,230.747 241.994,230.747 243.5,229.5C 243.023,228.522 242.357,227.689 241.5,227C 244.914,226.703 248.247,226.036 251.5,225C 253.201,222.61 255.534,221.11 258.5,220.5C 254.897,218.354 255.563,217.354 260.5,217.5C 260.752,214.068 259.419,213.068 256.5,214.5C 257.025,215.192 257.692,215.692 258.5,216C 257.234,216.309 256.067,216.809 255,217.5C 254.316,213.907 252.816,213.573 250.5,216.5C 251.263,217.719 252.263,218.719 253.5,219.5C 251.314,220.221 249.147,220.887 247,221.5C 246.333,220.167 245.667,218.833 245,217.5C 244.5,218 244,218.5 243.5,219C 244.337,220.011 244.67,221.178 244.5,222.5C 246.467,222.739 248.301,222.406 250,221.5C 250.5,222 251,222.5 251.5,223C 247.757,225.298 244.424,224.798 241.5,221.5C 240.749,222.376 240.249,223.376 240,224.5C 239.333,222.5 239.333,220.5 240,218.5C 240.414,218.957 240.914,219.291 241.5,219.5C 242.262,218.372 242.929,217.205 243.5,216C 240.854,215.503 238.187,215.336 235.5,215.5C 235.232,222.822 236.065,223.156 238,216.5C 238.497,219.146 238.664,221.813 238.5,224.5C 235.791,223.517 233.124,223.35 230.5,224C 230.833,223.667 231.167,223.333 231.5,223C 230.027,222.29 229.36,221.124 229.5,219.5C 228.325,219.719 227.325,219.386 226.5,218.5C 227.506,217.604 227.506,216.938 226.5,216.5C 226.454,221.847 223.787,224.513 218.5,224.5C 218.119,226.942 218.786,227.609 220.5,226.5C 221.167,227.167 221.833,227.833 222.5,228.5C 223.096,227.284 223.263,225.951 223,224.5C 224.84,225.833 225.34,225.666 224.5,224C 225.5,223.667 226.5,223.333 227.5,223C 226.549,222.282 226.383,221.449 227,220.5C 229.276,222.307 229.443,223.807 227.5,225C 227.833,225.333 228.167,225.667 228.5,226C 230.763,226.378 233.096,226.545 235.5,226.5C 234.372,227.262 233.205,227.929 232,228.5C 229.619,227.565 227.119,227.232 224.5,227.5C 224.992,231.29 224.159,231.956 222,229.5C 221.692,230.308 221.192,230.975 220.5,231.5C 219.833,230.5 219.167,229.5 218.5,228.5C 217.983,230.157 218.483,231.824 220,233.5C 221.183,232.269 222.349,232.269 223.5,233.5C 223.12,235.021 222.954,236.687 223,238.5C 221.312,236.152 219.478,235.985 217.5,238C 218.448,238.483 219.448,238.649 220.5,238.5C 220.649,239.552 220.483,240.552 220,241.5C 217.842,240.174 216.008,238.507 214.5,236.5C 217.797,235.858 218.131,234.691 215.5,233C 216.167,232.667 216.833,232.333 217.5,232C 216.751,230.266 216.251,228.433 216,226.5C 215.667,227.5 215.333,228.5 215,229.5C 213.605,228.57 212.105,228.57 210.5,229.5C 208.431,229.176 208.098,228.342 209.5,227C 208.552,226.517 207.552,226.351 206.5,226.5C 206.333,223.043 205.333,222.71 203.5,225.5C 204.297,227.132 205.297,228.632 206.5,230C 205.097,232.859 203.597,235.692 202,238.5C 199.426,236.998 196.593,235.998 193.5,235.5C 195.267,232.963 196.767,230.297 198,227.5C 198.236,235.256 199.403,235.423 201.5,228C 200.572,227.612 199.905,226.945 199.5,226C 200.384,224.902 201.384,224.402 202.5,224.5C 199.705,223.752 199.038,222.252 200.5,220C 200,218.5 199.5,217 199,215.5C 198.667,218.833 198.333,222.167 198,225.5C 196.334,226.34 196.167,225.84 197.5,224C 196.793,221.48 195.96,218.98 195,216.5C 194.5,217 194,217.5 193.5,218C 194.38,219.356 194.714,220.856 194.5,222.5C 192.71,221.987 191.044,221.487 189.5,221C 188.893,222.61 188.226,224.61 187.5,227C 187.667,228.167 187.833,229.333 188,230.5C 189.485,228.271 190.818,225.938 192,223.5C 193,223.833 194,224.167 195,224.5C 195.788,226.165 196.122,227.831 196,229.5C 195.333,228.167 194.667,228.167 194,229.5C 194.195,224.386 193.528,224.386 192,229.5C 191.237,226.937 190.737,226.937 190.5,229.5C 190.667,230.167 190.833,230.833 191,231.5C 191.718,230.549 192.551,230.383 193.5,231C 190.61,234.419 190.943,237.419 194.5,240C 192.801,240.393 191.301,239.893 190,238.5C 187.88,239.459 185.713,239.626 183.5,239C 187.375,237.653 187.375,236.486 183.5,235.5C 183.833,235.167 184.167,234.833 184.5,234.5C 186.198,235.681 187.865,235.681 189.5,234.5C 183.641,229.796 181.141,231.462 182,239.5C 181.818,236.774 181.318,234.107 180.5,231.5C 179.694,234.375 179.36,237.042 179.5,239.5C 178.52,236.914 178.187,234.247 178.5,231.5C 173.897,232.018 173.563,233.351 177.5,235.5C 176.985,237.225 176.318,238.892 175.5,240.5C 174.784,239.689 173.95,239.022 173,238.5C 171.27,239.649 169.604,239.649 168,238.5C 167.517,239.448 167.351,240.448 167.5,241.5C 162.616,241.399 157.616,241.232 152.5,241C 151.584,240.626 150.75,240.126 150,239.5C 148.833,242 147,243.833 144.5,245C 146.698,245.373 148.865,245.873 151,246.5C 154.427,245.349 157.761,245.683 161,247.5C 163.297,245.579 165.297,245.579 167,247.5C 170.204,244.887 173.37,244.887 176.5,247.5C 178.62,246.109 180.953,245.442 183.5,245.5C 186.545,246.418 189.545,246.418 192.5,245.5C 193.647,245.818 194.481,246.484 195,247.5C 195.71,246.027 196.876,245.36 198.5,245.5C 198.719,246.675 198.386,247.675 197.5,248.5C 194.96,250.139 192.793,249.806 191,247.5C 189.982,249.564 188.649,249.898 187,248.5C 183.818,249.701 180.485,250.368 177,250.5C 172.517,249.971 168.517,249.971 165,250.5C 164.193,246.551 163.693,246.551 163.5,250.5C 151.939,250.252 140.439,250.252 129,250.5C 125.853,249.722 122.687,248.889 119.5,248C 119.043,247.586 118.709,247.086 118.5,246.5C 121.507,245.166 124.341,245.499 127,247.5C 128.054,246.518 128.554,245.351 128.5,244C 124.532,243.766 120.698,242.933 117,241.5C 113.27,242.92 109.103,243.587 104.5,243.5C 104.649,242.448 104.483,241.448 104,240.5C 102.152,243.478 100.152,243.812 98,241.5C 97.6924,242.308 97.1924,242.975 96.5,243.5C 90.8625,239.57 87.1958,234.237 85.5,227.5C 82.4745,227.769 79.8078,226.936 77.5,225C 78.1667,223.667 78.8333,222.333 79.5,221C 77.1198,217.81 77.1198,215.144 79.5,213C 77.4418,211.192 77.1084,209.025 78.5,206.5 Z"/></g>
<g><path style="opacity:1" fill="#c07f25" d="M 266.5,206.5 C 269.833,206.5 273.167,206.5 276.5,206.5C 276.918,207.222 277.584,207.722 278.5,208C 277.692,208.308 277.025,208.808 276.5,209.5C 278.413,210.051 280.413,210.218 282.5,210C 283.641,210.741 283.641,211.575 282.5,212.5C 283.689,213.429 285.022,213.762 286.5,213.5C 285.835,210.112 286.835,209.112 289.5,210.5C 294.466,207.859 298.966,208.526 303,212.5C 303.494,210.866 303.66,209.199 303.5,207.5C 305.527,207.338 307.527,207.505 309.5,208C 308.5,208.833 307.5,209.667 306.5,210.5C 308.259,211.754 309.759,211.421 311,209.5C 312.153,211.497 313.653,211.83 315.5,210.5C 314.128,208.38 314.795,207.38 317.5,207.5C 318.167,209.5 318.833,211.5 319.5,213.5C 314.371,214.614 314.371,215.281 319.5,215.5C 319.682,220.794 320.182,220.794 321,215.5C 322.772,216.99 322.939,218.657 321.5,220.5C 321.808,221.308 322.308,221.975 323,222.5C 322.745,217.917 324.578,214.584 328.5,212.5C 329.688,213.84 331.188,214.507 333,214.5C 336.083,213.194 339.25,212.194 342.5,211.5C 343.672,211.919 344.672,212.585 345.5,213.5C 345.167,213.833 344.833,214.167 344.5,214.5C 342.902,213.515 341.235,213.349 339.5,214C 341.331,214.98 342.998,216.48 344.5,218.5C 343.36,220.078 342.86,221.744 343,223.5C 344,222.167 345,222.167 346,223.5C 347.044,222.377 347.71,221.044 348,219.5C 348.956,220.579 349.789,221.745 350.5,223C 346.551,223.807 346.551,224.307 350.5,224.5C 350.351,225.552 350.517,226.552 351,227.5C 351.9,226.23 353.066,225.23 354.5,224.5C 352.711,223.377 352.378,222.044 353.5,220.5C 358.721,220.759 364.054,221.426 369.5,222.5C 368.675,223.386 367.675,223.719 366.5,223.5C 365.937,225.91 365.437,228.243 365,230.5C 367.039,229.022 367.872,227.022 367.5,224.5C 369.288,224.785 370.955,224.452 372.5,223.5C 372.291,222.914 371.957,222.414 371.5,222C 375.7,221.124 379.867,220.291 384,219.5C 386.658,220.694 387.824,219.694 387.5,216.5C 389.467,216.739 391.301,216.406 393,215.5C 392.368,212.974 392.535,210.474 393.5,208C 395.134,207.506 396.801,207.34 398.5,207.5C 398.505,211.534 398.838,215.534 399.5,219.5C 397.046,219.679 394.879,219.013 393,217.5C 392.5,217.833 392,218.167 391.5,218.5C 393.81,220.483 396.477,221.483 399.5,221.5C 399.336,227.167 399.003,227.5 398.5,222.5C 397.448,222.351 396.448,222.517 395.5,223C 396.723,225.052 397.723,227.219 398.5,229.5C 400.508,227.238 400.841,227.738 399.5,231C 400.167,231.333 400.833,231.667 401.5,232C 400.025,234.309 398.358,236.476 396.5,238.5C 397.833,238.833 399.167,239.167 400.5,239.5C 401.738,235.689 402.404,235.689 402.5,239.5C 404.199,239.34 405.866,239.506 407.5,240C 405.431,240.324 405.098,241.158 406.5,242.5C 405.333,242.833 404.167,243.167 403,243.5C 399.298,241.966 395.465,241.466 391.5,242C 398.444,245.236 405.611,246.069 413,244.5C 414.205,245.071 415.372,245.738 416.5,246.5C 417.836,250.44 417.003,251.106 414,248.5C 413.326,249.578 412.326,250.245 411,250.5C 389.916,250.125 369.249,250.125 349,250.5C 345.724,250.442 342.724,249.776 340,248.5C 336.556,251.005 333.222,251.005 330,248.5C 329.333,251.167 328.667,251.167 328,248.5C 326.82,249.684 325.32,250.351 323.5,250.5C 310.626,249.392 297.126,249.392 283,250.5C 281.559,249.74 280.059,249.074 278.5,248.5C 276.239,251.094 274.072,251.094 272,248.5C 271.667,249.167 271.333,249.833 271,250.5C 266.526,249.623 261.692,249.623 256.5,250.5C 257.886,245.547 260.719,244.547 265,247.5C 266.396,246.606 267.896,245.939 269.5,245.5C 270.647,245.818 271.481,246.484 272,247.5C 272.333,246.833 272.667,246.167 273,245.5C 274.333,248.167 275.667,248.167 277,245.5C 277.308,246.308 277.808,246.975 278.5,247.5C 279.833,244.833 281.167,244.833 282.5,247.5C 287.061,245.221 291.561,245.221 296,247.5C 296.667,246.833 297.333,246.167 298,245.5C 299.092,246.296 300.259,246.963 301.5,247.5C 306.183,245.332 311.017,244.999 316,246.5C 316.167,245.833 316.333,245.167 316.5,244.5C 315.239,241.18 313.572,240.846 311.5,243.5C 309.723,242.397 307.889,242.397 306,243.5C 304.333,242.833 302.667,242.167 301,241.5C 299.106,241.539 298.106,242.206 298,243.5C 296.78,242.612 295.447,241.945 294,241.5C 288.854,242.109 283.854,242.109 279,241.5C 278.055,241.905 277.388,242.572 277,243.5C 276.667,242.833 276.333,242.167 276,241.5C 275.333,244.167 274.667,244.167 274,241.5C 273.026,243.878 272.359,243.544 272,240.5C 270.82,241.684 269.32,242.351 267.5,242.5C 262.184,243.443 256.851,243.61 251.5,243C 251.833,242.667 252.167,242.333 252.5,242C 250.098,241.322 247.932,241.822 246,243.5C 244.278,243.389 244.112,242.889 245.5,242C 244.5,241.833 243.5,241.667 242.5,241.5C 239.585,243.242 238.251,242.575 238.5,239.5C 237.448,239.351 236.448,239.517 235.5,240C 236.696,240.654 236.696,241.154 235.5,241.5C 232.939,239.906 230.772,237.906 229,235.5C 227.086,236.676 227.252,237.676 229.5,238.5C 228.349,239.731 227.183,239.731 226,238.5C 223.266,239.362 223.099,240.195 225.5,241C 223.938,242.378 222.105,243.211 220,243.5C 218.128,242.965 216.462,242.965 215,243.5C 212.151,240.987 209.318,240.987 206.5,243.5C 205.167,240.833 203.833,240.833 202.5,243.5C 201.452,242.617 200.285,241.95 199,241.5C 195.665,244.055 192.331,244.055 189,241.5C 188,242.167 187,242.833 186,243.5C 184.305,242.843 182.472,242.843 180.5,243.5C 179.006,243.291 177.839,242.624 177,241.5C 176.167,242.5 175.333,243.5 174.5,244.5C 173.614,243.675 173.281,242.675 173.5,241.5C 171.5,241.5 169.5,241.5 167.5,241.5C 167.351,240.448 167.517,239.448 168,238.5C 169.604,239.649 171.27,239.649 173,238.5C 173.95,239.022 174.784,239.689 175.5,240.5C 176.318,238.892 176.985,237.225 177.5,235.5C 173.563,233.351 173.897,232.018 178.5,231.5C 178.187,234.247 178.52,236.914 179.5,239.5C 179.36,237.042 179.694,234.375 180.5,231.5C 181.318,234.107 181.818,236.774 182,239.5C 181.141,231.462 183.641,229.796 189.5,234.5C 187.865,235.681 186.198,235.681 184.5,234.5C 184.167,234.833 183.833,235.167 183.5,235.5C 187.375,236.486 187.375,237.653 183.5,239C 185.713,239.626 187.88,239.459 190,238.5C 191.301,239.893 192.801,240.393 194.5,240C 190.943,237.419 190.61,234.419 193.5,231C 192.551,230.383 191.718,230.549 191,231.5C 190.833,230.833 190.667,230.167 190.5,229.5C 190.737,226.937 191.237,226.937 192,229.5C 193.528,224.386 194.195,224.386 194,229.5C 194.667,228.167 195.333,228.167 196,229.5C 196.122,227.831 195.788,226.165 195,224.5C 194,224.167 193,223.833 192,223.5C 190.818,225.938 189.485,228.271 188,230.5C 187.833,229.333 187.667,228.167 187.5,227C 188.226,224.61 188.893,222.61 189.5,221C 191.044,221.487 192.71,221.987 194.5,222.5C 194.714,220.856 194.38,219.356 193.5,218C 194,217.5 194.5,217 195,216.5C 195.96,218.98 196.793,221.48 197.5,224C 196.167,225.84 196.334,226.34 198,225.5C 198.333,222.167 198.667,218.833 199,215.5C 199.5,217 200,218.5 200.5,220C 199.038,222.252 199.705,223.752 202.5,224.5C 201.384,224.402 200.384,224.902 199.5,226C 199.905,226.945 200.572,227.612 201.5,228C 199.403,235.423 198.236,235.256 198,227.5C 196.767,230.297 195.267,232.963 193.5,235.5C 196.593,235.998 199.426,236.998 202,238.5C 203.597,235.692 205.097,232.859 206.5,230C 205.297,228.632 204.297,227.132 203.5,225.5C 205.333,222.71 206.333,223.043 206.5,226.5C 207.552,226.351 208.552,226.517 209.5,227C 208.098,228.342 208.431,229.176 210.5,229.5C 212.105,228.57 213.605,228.57 215,229.5C 215.333,228.5 215.667,227.5 216,226.5C 216.251,228.433 216.751,230.266 217.5,232C 216.833,232.333 216.167,232.667 215.5,233C 218.131,234.691 217.797,235.858 214.5,236.5C 216.008,238.507 217.842,240.174 220,241.5C 220.483,240.552 220.649,239.552 220.5,238.5C 219.448,238.649 218.448,238.483 217.5,238C 219.478,235.985 221.312,236.152 223,238.5C 222.954,236.687 223.12,235.021 223.5,233.5C 222.349,232.269 221.183,232.269 220,233.5C 218.483,231.824 217.983,230.157 218.5,228.5C 219.167,229.5 219.833,230.5 220.5,231.5C 221.192,230.975 221.692,230.308 222,229.5C 224.159,231.956 224.992,231.29 224.5,227.5C 227.119,227.232 229.619,227.565 232,228.5C 233.205,227.929 234.372,227.262 235.5,226.5C 233.096,226.545 230.763,226.378 228.5,226C 228.167,225.667 227.833,225.333 227.5,225C 229.443,223.807 229.276,222.307 227,220.5C 226.383,221.449 226.549,222.282 227.5,223C 226.5,223.333 225.5,223.667 224.5,224C 225.34,225.666 224.84,225.833 223,224.5C 223.263,225.951 223.096,227.284 222.5,228.5C 221.833,227.833 221.167,227.167 220.5,226.5C 218.786,227.609 218.119,226.942 218.5,224.5C 223.787,224.513 226.454,221.847 226.5,216.5C 227.506,216.938 227.506,217.604 226.5,218.5C 227.325,219.386 228.325,219.719 229.5,219.5C 229.36,221.124 230.027,222.29 231.5,223C 231.167,223.333 230.833,223.667 230.5,224C 233.124,223.35 235.791,223.517 238.5,224.5C 238.664,221.813 238.497,219.146 238,216.5C 236.065,223.156 235.232,222.822 235.5,215.5C 238.187,215.336 240.854,215.503 243.5,216C 242.929,217.205 242.262,218.372 241.5,219.5C 240.914,219.291 240.414,218.957 240,218.5C 239.333,220.5 239.333,222.5 240,224.5C 240.249,223.376 240.749,222.376 241.5,221.5C 244.424,224.798 247.757,225.298 251.5,223C 251,222.5 250.5,222 250,221.5C 248.301,222.406 246.467,222.739 244.5,222.5C 244.67,221.178 244.337,220.011 243.5,219C 244,218.5 244.5,218 245,217.5C 245.667,218.833 246.333,220.167 247,221.5C 249.147,220.887 251.314,220.221 253.5,219.5C 252.263,218.719 251.263,217.719 250.5,216.5C 252.816,213.573 254.316,213.907 255,217.5C 256.067,216.809 257.234,216.309 258.5,216C 257.692,215.692 257.025,215.192 256.5,214.5C 259.419,213.068 260.752,214.068 260.5,217.5C 255.563,217.354 254.897,218.354 258.5,220.5C 255.534,221.11 253.201,222.61 251.5,225C 248.247,226.036 244.914,226.703 241.5,227C 242.357,227.689 243.023,228.522 243.5,229.5C 241.994,230.747 240.494,230.747 239,229.5C 236.708,233.328 237.875,235.494 242.5,236C 243.701,236.903 244.535,238.069 245,239.5C 246.017,236.972 247.184,236.972 248.5,239.5C 248.998,236.407 249.998,233.574 251.5,231C 251.043,230.586 250.709,230.086 250.5,229.5C 252.005,226.869 252.671,227.203 252.5,230.5C 254.124,230.64 255.29,229.973 256,228.5C 256.483,229.448 256.649,230.448 256.5,231.5C 255.167,231.5 253.833,231.5 252.5,231.5C 252.5,234.167 252.5,236.833 252.5,239.5C 253.833,239.5 255.167,239.5 256.5,239.5C 256.538,232.959 257.204,232.959 258.5,239.5C 259.167,236.833 259.833,234.167 260.5,231.5C 260.631,234.035 260.631,236.535 260.5,239C 261.944,239.781 263.277,239.614 264.5,238.5C 263.559,238.511 262.892,238.011 262.5,237C 263.63,235.24 264.63,233.407 265.5,231.5C 268.121,232.58 270.288,234.247 272,236.5C 272.617,235.551 272.451,234.718 271.5,234C 273.635,233.365 275.635,233.699 277.5,235C 279.26,235.965 279.594,237.132 278.5,238.5C 276.907,236.34 275.24,236.173 273.5,238C 276.308,238.993 279.141,239.827 282,240.5C 282.692,239.975 283.192,239.308 283.5,238.5C 282.617,237.452 281.95,236.285 281.5,235C 282.487,232.904 282.154,230.904 280.5,229C 281.666,225.802 281.5,222.636 280,219.5C 279.107,220.711 278.274,220.711 277.5,219.5C 278.167,218.833 278.833,218.167 279.5,217.5C 279,217.167 278.5,216.833 278,216.5C 276.629,217.581 275.129,218.415 273.5,219C 275.349,220.68 277.349,222.18 279.5,223.5C 279.17,226.173 278.837,228.839 278.5,231.5C 277.682,228.893 277.182,226.226 277,223.5C 276,234.167 275,234.167 274,223.5C 273.667,225.167 273.333,226.833 273,228.5C 272.667,228.167 272.333,227.833 272,227.5C 271.385,229.116 270.385,230.449 269,231.5C 268.5,231 268,230.5 267.5,230C 268.672,229.581 269.672,228.915 270.5,228C 269.346,227.086 269.513,226.253 271,225.5C 271.654,226.696 272.154,226.696 272.5,225.5C 270.579,224.359 268.579,224.192 266.5,225C 267.167,225.667 267.833,226.333 268.5,227C 265.783,228.033 263.949,227.2 263,224.5C 262.586,224.957 262.086,225.291 261.5,225.5C 260.201,223.693 260.368,222.027 262,220.5C 263.204,221.471 263.704,222.471 263.5,223.5C 264.429,222.311 264.762,220.978 264.5,219.5C 263.325,219.719 262.325,219.386 261.5,218.5C 261.833,218.167 262.167,217.833 262.5,217.5C 265.323,217.942 268.157,218.275 271,218.5C 271.483,217.552 271.649,216.552 271.5,215.5C 270.325,215.719 269.325,215.386 268.5,214.5C 269.603,214.002 270.603,213.669 271.5,213.5C 269.665,212.572 269.332,211.406 270.5,210C 268.45,209.584 267.116,208.417 266.5,206.5 Z"/></g>
<g><path style="opacity:1" fill="#9e5c2b" d="M 74.5,252.5 C 74.8333,252.5 75.1667,252.5 75.5,252.5C 75.5,261.5 75.5,270.5 75.5,279.5C 228.5,279.5 381.5,279.5 534.5,279.5C 534.5,278.167 534.5,276.833 534.5,275.5C 534.5,267.833 534.5,260.167 534.5,252.5C 534.833,252.5 535.167,252.5 535.5,252.5C 535.833,252.5 536.167,252.5 536.5,252.5C 536.5,261.833 536.5,271.167 536.5,280.5C 382.5,280.5 228.5,280.5 74.5,280.5C 74.5,271.167 74.5,261.833 74.5,252.5 Z"/></g>
<g><path style="opacity:1" fill="#a45919" d="M 75.5,252.5 C 75.8333,252.5 76.1667,252.5 76.5,252.5C 76.5,253.167 76.5,253.833 76.5,254.5C 76.5,262.5 76.5,270.5 76.5,278.5C 152.028,278.114 227.694,278.114 303.5,278.5C 380.31,278.534 456.976,278.367 533.5,278C 532.117,276.539 532.451,275.706 534.5,275.5C 534.5,276.833 534.5,278.167 534.5,279.5C 381.5,279.5 228.5,279.5 75.5,279.5C 75.5,270.5 75.5,261.5 75.5,252.5 Z"/></g>
<g><path style="opacity:1" fill="#aa5813" d="M 76.5,252.5 C 229.167,252.5 381.833,252.5 534.5,252.5C 534.5,260.167 534.5,267.833 534.5,275.5C 532.451,275.706 532.117,276.539 533.5,278C 456.976,278.367 380.31,278.534 303.5,278.5C 309.346,277.833 315.346,277.167 321.5,276.5C 321.333,276.167 321.167,275.833 321,275.5C 294.902,275.126 268.069,275.126 240.5,275.5C 240.5,274.5 240.5,273.5 240.5,272.5C 239.07,272.579 237.736,272.246 236.5,271.5C 235.749,272.376 235.249,273.376 235,274.5C 233.693,273.228 232.193,272.228 230.5,271.5C 231.416,269.216 230.416,268.049 227.5,268C 230.035,266.087 229.535,264.92 226,264.5C 224.739,264.759 223.739,265.426 223,266.5C 221.984,265.366 221.317,265.699 221,267.5C 220.667,266.833 220.333,266.167 220,265.5C 219.805,267.207 219.805,268.874 220,270.5C 219.086,269.346 218.253,269.513 217.5,271C 218.609,272.813 217.942,273.646 215.5,273.5C 215.657,272.127 215.49,270.793 215,269.5C 214.727,271.101 214.227,272.601 213.5,274C 211.481,274.45 209.648,275.283 208,276.5C 207.67,270.557 208.67,264.557 211,258.5C 212.073,259.28 213.24,259.113 214.5,258C 213.624,256.415 212.291,255.415 210.5,255C 197.639,255.664 184.805,255.164 172,253.5C 166.452,253.958 160.952,254.625 155.5,255.5C 150.987,253.972 146.32,253.305 141.5,253.5C 134.422,253.575 127.422,254.241 120.5,255.5C 115.315,254.503 110.315,254.503 105.5,255.5C 105.167,254.833 104.833,254.167 104.5,253.5C 95.1794,253.392 85.8461,253.726 76.5,254.5C 76.5,253.833 76.5,253.167 76.5,252.5 Z"/></g>
<g><path style="opacity:1" fill="#aa5714" d="M 303.5,278.5 C 227.694,278.114 152.028,278.114 76.5,278.5C 76.5,270.5 76.5,262.5 76.5,254.5C 85.8461,253.726 95.1794,253.392 104.5,253.5C 104.833,254.167 105.167,254.833 105.5,255.5C 110.315,254.503 115.315,254.503 120.5,255.5C 127.422,254.241 134.422,253.575 141.5,253.5C 146.32,253.305 150.987,253.972 155.5,255.5C 160.952,254.625 166.452,253.958 172,253.5C 184.805,255.164 197.639,255.664 210.5,255C 212.291,255.415 213.624,256.415 214.5,258C 213.24,259.113 212.073,259.28 211,258.5C 208.67,264.557 207.67,270.557 208,276.5C 209.648,275.283 211.481,274.45 213.5,274C 214.227,272.601 214.727,271.101 215,269.5C 215.49,270.793 215.657,272.127 215.5,273.5C 217.942,273.646 218.609,272.813 217.5,271C 218.253,269.513 219.086,269.346 220,270.5C 219.805,268.874 219.805,267.207 220,265.5C 220.333,266.167 220.667,266.833 221,267.5C 221.317,265.699 221.984,265.366 223,266.5C 223.739,265.426 224.739,264.759 226,264.5C 229.535,264.92 230.035,266.087 227.5,268C 230.416,268.049 231.416,269.216 230.5,271.5C 232.193,272.228 233.693,273.228 235,274.5C 235.249,273.376 235.749,272.376 236.5,271.5C 237.736,272.246 239.07,272.579 240.5,272.5C 240.5,273.5 240.5,274.5 240.5,275.5C 268.069,275.126 294.902,275.126 321,275.5C 321.167,275.833 321.333,276.167 321.5,276.5C 315.346,277.167 309.346,277.833 303.5,278.5 Z"/></g>
<g><path style="opacity:1" fill="#542a0d" d="M 536.5,205.5 C 537.498,230.328 537.831,255.328 537.5,280.5C 383.334,281.5 229.001,281.833 74.5,281.5C 74.5,281.167 74.5,280.833 74.5,280.5C 228.5,280.5 382.5,280.5 536.5,280.5C 536.5,271.167 536.5,261.833 536.5,252.5C 536.5,236.833 536.5,221.167 536.5,205.5 Z"/></g>
</svg>
