<?xml version="1.0" encoding="UTF-8"?>
<!DOCTYPE svg PUBLIC "-//W3C//DTD SVG 1.1//EN" "http://www.w3.org/Graphics/SVG/1.1/DTD/svg11.dtd">
<svg xmlns="http://www.w3.org/2000/svg" version="1.1" width="500px" height="500px" style="shape-rendering:geometricPrecision; text-rendering:geometricPrecision; image-rendering:optimizeQuality; fill-rule:evenodd; clip-rule:evenodd" xmlns:xlink="http://www.w3.org/1999/xlink">
<g><path style="opacity:1" fill="#21211f" d="M 108.5,-0.5 C 125.5,-0.5 142.5,-0.5 159.5,-0.5C 159.5,3.5 159.5,7.5 159.5,11.5C 142.5,11.5 125.5,11.5 108.5,11.5C 108.5,7.5 108.5,3.5 108.5,-0.5 Z"/></g>
<g><path style="opacity:1" fill="#201f1e" d="M 359.5,-0.5 C 374.167,-0.5 388.833,-0.5 403.5,-0.5C 403.5,0.833333 403.5,2.16667 403.5,3.5C 403.5,6.16667 403.5,8.83333 403.5,11.5C 388.833,11.5 374.167,11.5 359.5,11.5C 359.5,7.5 359.5,3.5 359.5,-0.5 Z"/></g>
<g><path style="opacity:0.443" fill="#858582" d="M 159.5,12.5 C 159.5,12.1667 159.5,11.8333 159.5,11.5C 164.5,11.5 169.5,11.5 174.5,11.5C 174.5,16.1667 174.5,20.8333 174.5,25.5C 174.167,25.5 173.833,25.5 173.5,25.5C 173.5,21.1667 173.5,16.8333 173.5,12.5C 168.833,12.5 164.167,12.5 159.5,12.5 Z"/></g>
<g><path style="opacity:0.992" fill="#a5762c" d="M 359.5,11.5 C 374.167,11.5 388.833,11.5 403.5,11.5C 403.5,11.8333 403.5,12.1667 403.5,12.5C 403.167,12.5 402.833,12.5 402.5,12.5C 388.5,12.5 374.5,12.5 360.5,12.5C 360.818,17.0323 360.485,21.3656 359.5,25.5C 359.5,20.8333 359.5,16.1667 359.5,11.5 Z"/></g>
<g><path style="opacity:1" fill="#21201e" d="M 159.5,12.5 C 164.167,12.5 168.833,12.5 173.5,12.5C 173.5,16.8333 173.5,21.1667 173.5,25.5C 168.833,25.5 164.167,25.5 159.5,25.5C 159.5,21.1667 159.5,16.8333 159.5,12.5 Z"/></g>
<g><path style="opacity:1" fill="#292523" d="M 359.5,11.5 C 359.5,16.1667 359.5,20.8333 359.5,25.5C 354.5,25.5 349.5,25.5 344.5,25.5C 344.5,20.8333 344.5,16.1667 344.5,11.5C 349.5,11.5 354.5,11.5 359.5,11.5 Z"/></g>
<g><path style="opacity:0.448" fill="#93918f" d="M 107.5,-0.5 C 107.833,-0.5 108.167,-0.5 108.5,-0.5C 108.5,3.5 108.5,7.5 108.5,11.5C 108.5,11.8333 108.5,12.1667 108.5,12.5C 108.167,12.5 107.833,12.5 107.5,12.5C 103.167,12.5 98.8333,12.5 94.5,12.5C 94.5,25.5 94.5,38.5 94.5,51.5C 94.5,51.8333 94.5,52.1667 94.5,52.5C 94.1667,52.5 93.8333,52.5 93.5,52.5C 93.5,52.1667 93.5,51.8333 93.5,51.5C 93.5,38.1667 93.5,24.8333 93.5,11.5C 98.1667,11.5 102.833,11.5 107.5,11.5C 107.5,7.5 107.5,3.5 107.5,-0.5 Z"/></g>
<g><path style="opacity:1" fill="#e2b058" d="M 108.5,12.5 C 114.833,12.5 121.167,12.5 127.5,12.5C 121.69,13.4896 115.69,13.8229 109.5,13.5C 109.5,26.1667 109.5,38.8333 109.5,51.5C 109.167,51.5 108.833,51.5 108.5,51.5C 108.5,38.5 108.5,25.5 108.5,12.5 Z"/></g>
<g><path style="opacity:1" fill="#1f1e1d" d="M 404.5,12.5 C 408.833,12.5 413.167,12.5 417.5,12.5C 417.5,21.1667 417.5,29.8333 417.5,38.5C 413.317,38.2699 408.984,38.2699 404.5,38.5C 404.5,29.8333 404.5,21.1667 404.5,12.5 Z"/></g>
<g><path style="opacity:1" fill="#926824" d="M 108.5,12.5 C 108.5,12.1667 108.5,11.8333 108.5,11.5C 125.5,11.5 142.5,11.5 159.5,11.5C 159.5,11.8333 159.5,12.1667 159.5,12.5C 159.5,16.8333 159.5,21.1667 159.5,25.5C 164.167,25.5 168.833,25.5 173.5,25.5C 173.833,25.5 174.167,25.5 174.5,25.5C 174.5,30.5 174.5,35.5 174.5,40.5C 174.167,40.5 173.833,40.5 173.5,40.5C 173.5,39.8333 173.5,39.1667 173.5,38.5C 173.5,34.5 173.5,30.5 173.5,26.5C 168.5,26.5 163.5,26.5 158.5,26.5C 158.5,21.8333 158.5,17.1667 158.5,12.5C 148.167,12.5 137.833,12.5 127.5,12.5C 121.167,12.5 114.833,12.5 108.5,12.5 Z"/></g>
<g><path style="opacity:0.593" fill="#6f6e6d" d="M 403.5,3.5 C 404.473,5.9479 404.806,8.61456 404.5,11.5C 409.167,11.5 413.833,11.5 418.5,11.5C 418.5,20.8333 418.5,30.1667 418.5,39.5C 418.167,39.5 417.833,39.5 417.5,39.5C 417.5,39.1667 417.5,38.8333 417.5,38.5C 417.5,29.8333 417.5,21.1667 417.5,12.5C 413.167,12.5 408.833,12.5 404.5,12.5C 404.167,12.5 403.833,12.5 403.5,12.5C 403.5,12.1667 403.5,11.8333 403.5,11.5C 403.5,8.83333 403.5,6.16667 403.5,3.5 Z"/></g>
<g><path style="opacity:1" fill="#efa73c" d="M 127.5,12.5 C 137.833,12.5 148.167,12.5 158.5,12.5C 158.5,17.1667 158.5,21.8333 158.5,26.5C 163.5,26.5 168.5,26.5 173.5,26.5C 173.5,30.5 173.5,34.5 173.5,38.5C 172.518,35.0381 172.185,31.3714 172.5,27.5C 167.489,27.6659 162.489,27.4993 157.5,27C 156.861,22.8794 156.195,18.7127 155.5,14.5C 154.707,14.0688 153.873,13.7355 153,13.5C 138.87,14.4747 124.703,14.808 110.5,14.5C 110.829,27.0113 110.495,39.3446 109.5,51.5C 109.5,38.8333 109.5,26.1667 109.5,13.5C 115.69,13.8229 121.69,13.4896 127.5,12.5 Z"/></g>
<g><path style="opacity:1" fill="#4b3300" d="M 107.5,12.5 C 107.833,12.5 108.167,12.5 108.5,12.5C 108.5,25.5 108.5,38.5 108.5,51.5C 108.5,52.1667 108.167,52.5 107.5,52.5C 103.167,52.5 98.8333,52.5 94.5,52.5C 94.5,52.1667 94.5,51.8333 94.5,51.5C 98.8333,51.5 103.167,51.5 107.5,51.5C 107.5,38.5 107.5,25.5 107.5,12.5 Z"/></g>
<g><path style="opacity:1" fill="#fca52b" d="M 402.5,12.5 C 402.5,21.5 402.5,30.5 402.5,39.5C 398.167,39.5 393.833,39.5 389.5,39.5C 389.5,34.8333 389.5,30.1667 389.5,25.5C 384.833,25.5 380.167,25.5 375.5,25.5C 375.5,30.1667 375.5,34.8333 375.5,39.5C 370.167,39.5 364.833,39.5 359.5,39.5C 359.5,44.5 359.5,49.5 359.5,54.5C 364.833,54.5 370.167,54.5 375.5,54.5C 375.705,62.8671 375.371,71.2004 374.5,79.5C 369.637,79.1805 364.97,79.5139 360.5,80.5C 359.513,85.3054 359.179,90.3054 359.5,95.5C 364.167,95.5 368.833,95.5 373.5,95.5C 373.5,100.167 373.5,104.833 373.5,109.5C 378.5,110.833 383.5,110.833 388.5,109.5C 393.167,109.5 397.833,109.5 402.5,109.5C 402.5,114.833 402.5,120.167 402.5,125.5C 397.833,125.5 393.167,125.5 388.5,125.5C 388.173,135.015 388.506,144.348 389.5,153.5C 389.5,153.833 389.5,154.167 389.5,154.5C 393.634,155.485 397.968,155.818 402.5,155.5C 402.17,171.009 402.504,186.342 403.5,201.5C 403.5,202.167 403.833,202.5 404.5,202.5C 408.298,203.483 412.298,203.817 416.5,203.5C 416.5,217.833 416.5,232.167 416.5,246.5C 411.901,246.2 407.401,246.533 403,247.5C 402.501,252.489 402.334,257.489 402.5,262.5C 397.968,262.182 393.634,262.515 389.5,263.5C 388.515,267.634 388.182,271.968 388.5,276.5C 381.978,276.177 375.645,276.51 369.5,277.5C 368.802,280.897 368.135,284.397 367.5,288C 360.842,288.5 354.175,288.666 347.5,288.5C 345.762,282.073 348.095,279.406 354.5,280.5C 354.829,265.657 354.496,250.99 353.5,236.5C 351.052,235.527 348.385,235.194 345.5,235.5C 345.5,231.167 345.5,226.833 345.5,222.5C 351.5,222.5 357.5,222.5 363.5,222.5C 363.5,228.5 363.5,234.5 363.5,240.5C 369.89,238.836 372.89,241.169 372.5,247.5C 378.833,247.5 385.167,247.5 391.5,247.5C 391.5,245.5 391.5,243.5 391.5,241.5C 400.239,243.927 403.572,240.761 401.5,232C 403.583,223.924 400.583,220.424 392.5,221.5C 392.5,219.5 392.5,217.5 392.5,215.5C 385.5,215.5 378.5,215.5 371.5,215.5C 371.5,217.5 371.5,219.5 371.5,221.5C 369.167,221.5 366.833,221.5 364.5,221.5C 364.5,221.167 364.5,220.833 364.5,220.5C 364.5,217.5 364.5,214.5 364.5,211.5C 367.5,211.5 370.5,211.5 373.5,211.5C 373.5,200.167 373.5,188.833 373.5,177.5C 369.702,176.517 365.702,176.183 361.5,176.5C 361.81,173.287 361.477,170.287 360.5,167.5C 352.833,167.5 345.167,167.5 337.5,167.5C 337.5,170.5 337.5,173.5 337.5,176.5C 334.287,176.19 331.287,176.523 328.5,177.5C 327.505,188.654 327.172,199.988 327.5,211.5C 325.167,211.5 322.833,211.5 320.5,211.5C 320.5,208.167 320.5,204.833 320.5,201.5C 317.5,201.5 314.5,201.5 311.5,201.5C 311.5,199.833 311.5,198.167 311.5,196.5C 297.167,196.5 282.833,196.5 268.5,196.5C 268.5,198.167 268.5,199.833 268.5,201.5C 266.167,201.5 263.833,201.5 261.5,201.5C 261.5,203.5 261.5,205.5 261.5,207.5C 257.5,207.5 253.5,207.5 249.5,207.5C 249.5,210.5 249.5,213.5 249.5,216.5C 246.833,216.5 244.167,216.5 241.5,216.5C 241.5,219.167 241.5,221.833 241.5,224.5C 238.167,224.5 234.833,224.5 231.5,224.5C 231.5,228.167 231.5,231.833 231.5,235.5C 229.08,235.292 226.747,235.626 224.5,236.5C 223.501,251.819 223.167,267.152 223.5,282.5C 226.167,282.5 228.833,282.5 231.5,282.5C 231.5,285.833 231.5,289.167 231.5,292.5C 230.5,292.5 229.5,292.5 228.5,292.5C 209.167,292.5 189.833,292.5 170.5,292.5C 170.815,288.629 170.482,284.962 169.5,281.5C 159.833,281.5 150.167,281.5 140.5,281.5C 140.5,278.833 140.5,276.167 140.5,273.5C 135.695,272.513 130.695,272.179 125.5,272.5C 125.666,268.154 125.499,263.821 125,259.5C 124.617,258.944 124.117,258.611 123.5,258.5C 119.627,256.57 115.294,255.903 110.5,256.5C 110.189,249.91 110.522,243.41 111.5,237C 110.833,236.333 110.167,235.667 109.5,235C 105.179,234.501 100.846,234.334 96.5,234.5C 96.5,227.167 96.5,219.833 96.5,212.5C 100.702,212.817 104.702,212.483 108.5,211.5C 110.304,204.568 111.137,197.235 111,189.5C 115.268,188.86 119.435,188.193 123.5,187.5C 123.83,171.991 123.496,156.658 122.5,141.5C 118.5,141.5 114.5,141.5 110.5,141.5C 109.855,131.068 109.189,120.735 108.5,110.5C 108.5,109.833 108.167,109.5 107.5,109.5C 103.702,108.517 99.7016,108.183 95.5,108.5C 95.5,90.1667 95.5,71.8333 95.5,53.5C 99.7016,53.8168 103.702,53.4834 107.5,52.5C 108.167,52.5 108.5,52.1667 108.5,51.5C 108.833,51.5 109.167,51.5 109.5,51.5C 110.495,39.3446 110.829,27.0113 110.5,14.5C 124.703,14.808 138.87,14.4747 153,13.5C 153.873,13.7355 154.707,14.0688 155.5,14.5C 156.195,18.7127 156.861,22.8794 157.5,27C 162.489,27.4993 167.489,27.6659 172.5,27.5C 172.185,31.3714 172.518,35.0381 173.5,38.5C 173.5,39.1667 173.5,39.8333 173.5,40.5C 177.044,42.2684 181.044,43.1018 185.5,43C 184.72,44.073 184.887,45.2396 186,46.5C 185.867,53.575 186.7,60.2416 188.5,66.5C 192.634,67.4849 196.968,67.8182 201.5,67.5C 201.174,76.0168 201.507,84.3501 202.5,92.5C 202.833,92.5 203.167,92.5 203.5,92.5C 207.97,93.4861 212.637,93.8195 217.5,93.5C 217.5,89.5 217.5,85.5 217.5,81.5C 255.004,81.8318 292.337,81.4985 329.5,80.5C 330.167,80.5 330.5,80.1667 330.5,79.5C 331.331,67.3401 331.831,55.0068 332,42.5C 336.08,41.6998 340.247,41.1998 344.5,41C 345,40.5 345.5,40 346,39.5C 346.499,35.5138 346.666,31.5138 346.5,27.5C 351.294,28.0969 355.627,27.4302 359.5,25.5C 360.485,21.3656 360.818,17.0323 360.5,12.5C 374.5,12.5 388.5,12.5 402.5,12.5 Z"/></g>
<g><path style="opacity:1" fill="#facc73" d="M 159.5,53.5 C 164.167,53.5 168.833,53.5 173.5,53.5C 173.5,62.1667 173.5,70.8333 173.5,79.5C 168.26,78.5509 162.927,78.2175 157.5,78.5C 157.5,83.5 157.5,88.5 157.5,93.5C 152.381,92.8969 147.715,93.5636 143.5,95.5C 143.5,100.167 143.5,104.833 143.5,109.5C 148.5,109.5 153.5,109.5 158.5,109.5C 153.695,110.487 148.695,110.821 143.5,110.5C 138.833,110.5 134.167,110.5 129.5,110.5C 129.5,115.5 129.5,120.5 129.5,125.5C 128.674,121.018 128.174,116.351 128,111.5C 126.294,110.692 125.461,109.359 125.5,107.5C 124.982,80.5028 124.649,53.5028 124.5,26.5C 130.833,26.5 137.167,26.5 143.5,26.5C 143.5,30.5 143.5,34.5 143.5,38.5C 148.179,38.3342 152.845,38.5008 157.5,39C 158.144,43.9336 158.81,48.767 159.5,53.5 Z"/></g>
<g><path style="opacity:1" fill="#242321" d="M 175.5,25.5 C 179.833,25.5 184.167,25.5 188.5,25.5C 188.5,30.5 188.5,35.5 188.5,40.5C 188.167,40.5 187.833,40.5 187.5,40.5C 183.702,39.5166 179.702,39.1832 175.5,39.5C 175.5,34.8333 175.5,30.1667 175.5,25.5 Z"/></g>
<g><path style="opacity:1" fill="#21201f" d="M 107.5,12.5 C 107.5,25.5 107.5,38.5 107.5,51.5C 103.167,51.5 98.8333,51.5 94.5,51.5C 94.5,38.5 94.5,25.5 94.5,12.5C 98.8333,12.5 103.167,12.5 107.5,12.5 Z"/></g>
<g><path style="opacity:1" fill="#3e2a08" d="M 403.5,12.5 C 403.833,12.5 404.167,12.5 404.5,12.5C 404.5,21.1667 404.5,29.8333 404.5,38.5C 408.984,38.2699 413.317,38.2699 417.5,38.5C 417.5,38.8333 417.5,39.1667 417.5,39.5C 412.833,39.5 408.167,39.5 403.5,39.5C 403.5,30.5 403.5,21.5 403.5,12.5 Z"/></g>
<g><path style="opacity:1" fill="#402d02" d="M 174.5,25.5 C 174.833,25.5 175.167,25.5 175.5,25.5C 175.5,30.1667 175.5,34.8333 175.5,39.5C 179.702,39.1832 183.702,39.5166 187.5,40.5C 183.167,40.5 178.833,40.5 174.5,40.5C 174.5,35.5 174.5,30.5 174.5,25.5 Z"/></g>
<g><path style="opacity:1" fill="#dca84f" d="M 330.5,25.5 C 330.5,29.8333 330.5,34.1667 330.5,38.5C 334.97,39.4861 339.637,39.8195 344.5,39.5C 344.5,34.8333 344.5,30.1667 344.5,25.5C 349.5,25.5 354.5,25.5 359.5,25.5C 355.627,27.4302 351.294,28.0969 346.5,27.5C 346.666,31.5138 346.499,35.5138 346,39.5C 345.5,40 345,40.5 344.5,41C 340.247,41.1998 336.08,41.6998 332,42.5C 331.831,55.0068 331.331,67.3401 330.5,79.5C 330.829,66.3226 330.495,53.3226 329.5,40.5C 329.5,40.1667 329.5,39.8333 329.5,39.5C 329.181,34.6367 329.514,29.97 330.5,25.5 Z"/></g>
<g><path style="opacity:1" fill="#2c2314" d="M 340.5,25.5 C 341.833,25.5 343.167,25.5 344.5,25.5C 344.5,30.1667 344.5,34.8333 344.5,39.5C 339.637,39.8195 334.97,39.4861 330.5,38.5C 334.5,38.5 338.5,38.5 342.5,38.5C 342.5,36.8333 342.5,35.1667 342.5,33.5C 341.5,33.5 340.5,33.5 339.5,33.5C 339.762,34.9778 339.429,36.3112 338.5,37.5C 337.534,35.604 337.201,33.604 337.5,31.5C 338.833,31.5 340.167,31.5 341.5,31.5C 341.675,29.3792 341.341,27.3792 340.5,25.5 Z"/></g>
<g><path style="opacity:1" fill="#222122" d="M 330.5,25.5 C 333.833,25.5 337.167,25.5 340.5,25.5C 341.341,27.3792 341.675,29.3792 341.5,31.5C 340.167,31.5 338.833,31.5 337.5,31.5C 337.201,33.604 337.534,35.604 338.5,37.5C 339.429,36.3112 339.762,34.9778 339.5,33.5C 340.5,33.5 341.5,33.5 342.5,33.5C 342.5,35.1667 342.5,36.8333 342.5,38.5C 338.5,38.5 334.5,38.5 330.5,38.5C 330.5,34.1667 330.5,29.8333 330.5,25.5 Z"/></g>
<g><path style="opacity:1" fill="#fbcd73" d="M 389.5,39.5 C 393.298,40.4834 397.298,40.8168 401.5,40.5C 401.232,42.099 401.566,43.4324 402.5,44.5C 402.5,65.8333 402.5,87.1667 402.5,108.5C 402.5,108.833 402.5,109.167 402.5,109.5C 397.833,109.5 393.167,109.5 388.5,109.5C 388.5,109.167 388.5,108.833 388.5,108.5C 389.486,104.03 389.819,99.3633 389.5,94.5C 385.19,93.9198 380.857,93.5865 376.5,93.5C 376.665,89.8183 376.499,86.1516 376,82.5C 375.722,81.5842 375.222,80.9175 374.5,80.5C 369.833,80.5 365.167,80.5 360.5,80.5C 364.97,79.5139 369.637,79.1805 374.5,79.5C 375.371,71.2004 375.705,62.8671 375.5,54.5C 370.167,54.5 364.833,54.5 359.5,54.5C 359.5,49.5 359.5,44.5 359.5,39.5C 364.833,39.5 370.167,39.5 375.5,39.5C 375.5,34.8333 375.5,30.1667 375.5,25.5C 380.167,25.5 384.833,25.5 389.5,25.5C 389.5,30.1667 389.5,34.8333 389.5,39.5 Z"/></g>
<g><path style="opacity:1" fill="#231f1c" d="M 188.5,40.5 C 193.167,40.5 197.833,40.5 202.5,40.5C 202.5,49.1667 202.5,57.8333 202.5,66.5C 197.833,66.5 193.167,66.5 188.5,66.5C 188.5,57.8333 188.5,49.1667 188.5,40.5 Z"/></g>
<g><path style="opacity:0.324" fill="#7e7d7b" d="M 329.5,39.5 C 329.5,39.8333 329.5,40.1667 329.5,40.5C 329.167,40.5 328.833,40.5 328.5,40.5C 324.5,40.5 320.5,40.5 316.5,40.5C 316.5,47.1667 316.5,53.8333 316.5,60.5C 315.509,53.6866 315.175,46.6866 315.5,39.5C 320.167,39.5 324.833,39.5 329.5,39.5 Z"/></g>
<g><path style="opacity:1" fill="#fca52a" d="M 407.5,41.5 C 410.5,41.5 413.5,41.5 416.5,41.5C 416.5,63.8333 416.5,86.1667 416.5,108.5C 412.833,108.5 409.167,108.5 405.5,108.5C 404.512,86.5336 404.179,64.7003 404.5,43C 405.737,42.7679 406.737,42.2679 407.5,41.5 Z"/></g>
<g><path style="opacity:1" fill="#f1a73b" d="M 159.5,53.5 C 158.81,48.767 158.144,43.9336 157.5,39C 152.845,38.5008 148.179,38.3342 143.5,38.5C 143.5,34.5 143.5,30.5 143.5,26.5C 137.167,26.5 130.833,26.5 124.5,26.5C 124.649,53.5028 124.982,80.5028 125.5,107.5C 123.517,80.3432 123.183,53.0099 124.5,25.5C 131.046,25.3681 137.712,25.3681 144.5,25.5C 144.5,29.1667 144.5,32.8333 144.5,36.5C 148.514,36.3345 152.514,36.5012 156.5,37C 157.416,37.3742 158.25,37.8742 159,38.5C 159.499,43.4889 159.666,48.4889 159.5,53.5 Z"/></g>
<g><path style="opacity:1" fill="#e0a147" d="M 173.5,40.5 C 173.833,40.5 174.167,40.5 174.5,40.5C 178.833,40.5 183.167,40.5 187.5,40.5C 187.833,40.5 188.167,40.5 188.5,40.5C 188.5,49.1667 188.5,57.8333 188.5,66.5C 186.7,60.2416 185.867,53.575 186,46.5C 184.887,45.2396 184.72,44.073 185.5,43C 181.044,43.1018 177.044,42.2684 173.5,40.5 Z"/></g>
<g><path style="opacity:1" fill="#20201f" d="M 418.5,39.5 C 423.167,39.5 427.833,39.5 432.5,39.5C 432.5,55.1667 432.5,70.8333 432.5,86.5C 431.508,93.9818 431.175,101.648 431.5,109.5C 427.833,109.5 424.167,109.5 420.5,109.5C 419.833,109.5 419.167,109.5 418.5,109.5C 419.771,86.1092 419.771,62.7758 418.5,39.5 Z"/></g>
<g><path style="opacity:0.175" fill="#cdcbcb" d="M 93.5,51.5 C 93.5,51.8333 93.5,52.1667 93.5,52.5C 89.5,52.5 85.5,52.5 81.5,52.5C 80.503,71.326 80.1697,90.326 80.5,109.5C 79.503,90.3405 79.1697,71.0072 79.5,51.5C 84.1667,51.5 88.8333,51.5 93.5,51.5 Z"/></g>
<g><path style="opacity:1" fill="#d9a95a" d="M 188.5,66.5 C 193.167,66.5 197.833,66.5 202.5,66.5C 202.5,75.1667 202.5,83.8333 202.5,92.5C 201.507,84.3501 201.174,76.0168 201.5,67.5C 196.968,67.8182 192.634,67.4849 188.5,66.5 Z"/></g>
<g><path style="opacity:1" fill="#392e1e" d="M 202.5,40.5 C 203.493,48.9839 203.826,57.6506 203.5,66.5C 204.467,74.4144 204.801,82.4144 204.5,90.5C 207.833,90.5 211.167,90.5 214.5,90.5C 213.956,86.3268 214.623,82.4935 216.5,79C 253.832,78.5 291.165,78.3333 328.5,78.5C 328.5,65.8333 328.5,53.1667 328.5,40.5C 328.833,40.5 329.167,40.5 329.5,40.5C 329.5,53.5 329.5,66.5 329.5,79.5C 291.996,79.1682 254.663,79.5015 217.5,80.5C 216.517,84.2984 216.183,88.2984 216.5,92.5C 212.167,92.5 207.833,92.5 203.5,92.5C 203.167,92.5 202.833,92.5 202.5,92.5C 202.5,83.8333 202.5,75.1667 202.5,66.5C 202.5,57.8333 202.5,49.1667 202.5,40.5 Z"/></g>
<g><path style="opacity:1" fill="#1f1f1f" d="M 328.5,40.5 C 328.5,53.1667 328.5,65.8333 328.5,78.5C 291.165,78.3333 253.832,78.5 216.5,79C 214.623,82.4935 213.956,86.3268 214.5,90.5C 211.167,90.5 207.833,90.5 204.5,90.5C 204.801,82.4144 204.467,74.4144 203.5,66.5C 241.167,66.5 278.833,66.5 316.5,66.5C 316.5,64.5 316.5,62.5 316.5,60.5C 316.5,53.8333 316.5,47.1667 316.5,40.5C 320.5,40.5 324.5,40.5 328.5,40.5 Z"/></g>
<g><path style="opacity:1" fill="#463303" d="M 329.5,40.5 C 330.495,53.3226 330.829,66.3226 330.5,79.5C 330.5,80.1667 330.167,80.5 329.5,80.5C 292.167,80.5 254.833,80.5 217.5,80.5C 254.663,79.5015 291.996,79.1682 329.5,79.5C 329.5,66.5 329.5,53.5 329.5,40.5 Z"/></g>
<g><path style="opacity:1" fill="#f4bc55" d="M 402.5,12.5 C 402.833,12.5 403.167,12.5 403.5,12.5C 403.5,21.5 403.5,30.5 403.5,39.5C 408.167,39.5 412.833,39.5 417.5,39.5C 417.5,62.8333 417.5,86.1667 417.5,109.5C 412.833,109.5 408.167,109.5 403.5,109.5C 403.5,115.167 403.5,120.833 403.5,126.5C 398.833,126.5 394.167,126.5 389.5,126.5C 389.5,135.5 389.5,144.5 389.5,153.5C 388.506,144.348 388.173,135.015 388.5,125.5C 393.167,125.5 397.833,125.5 402.5,125.5C 402.5,120.167 402.5,114.833 402.5,109.5C 402.5,109.167 402.5,108.833 402.5,108.5C 403.5,108.5 404.5,108.5 405.5,108.5C 409.167,108.5 412.833,108.5 416.5,108.5C 416.5,86.1667 416.5,63.8333 416.5,41.5C 413.5,41.5 410.5,41.5 407.5,41.5C 405.833,41.5 404.167,41.5 402.5,41.5C 402.5,42.5 402.5,43.5 402.5,44.5C 401.566,43.4324 401.232,42.099 401.5,40.5C 397.298,40.8168 393.298,40.4834 389.5,39.5C 393.833,39.5 398.167,39.5 402.5,39.5C 402.5,30.5 402.5,21.5 402.5,12.5 Z"/></g>
<g><path style="opacity:1" fill="#c59f51" d="M 217.5,80.5 C 254.833,80.5 292.167,80.5 329.5,80.5C 292.337,81.4985 255.004,81.8318 217.5,81.5C 217.5,85.5 217.5,89.5 217.5,93.5C 212.637,93.8195 207.97,93.4861 203.5,92.5C 207.833,92.5 212.167,92.5 216.5,92.5C 216.183,88.2984 216.517,84.2984 217.5,80.5 Z"/></g>
<g><path style="opacity:1" fill="#6f5624" d="M 173.5,80.5 C 174.833,85.5 174.833,90.5 173.5,95.5C 168.695,96.4872 163.695,96.8205 158.5,96.5C 158.5,96.1667 158.5,95.8333 158.5,95.5C 158.5,90.5 158.5,85.5 158.5,80.5C 163.5,80.5 168.5,80.5 173.5,80.5 Z"/></g>
<g><path style="opacity:1" fill="#f0aa3c" d="M 407.5,41.5 C 406.737,42.2679 405.737,42.7679 404.5,43C 404.179,64.7003 404.512,86.5336 405.5,108.5C 404.5,108.5 403.5,108.5 402.5,108.5C 402.5,87.1667 402.5,65.8333 402.5,44.5C 402.5,43.5 402.5,42.5 402.5,41.5C 404.167,41.5 405.833,41.5 407.5,41.5 Z"/></g>
<g><path style="opacity:1" fill="#201f1d" d="M 81.5,52.5 C 85.5,52.5 89.5,52.5 93.5,52.5C 93.5,71.5 93.5,90.5 93.5,109.5C 89.5,109.5 85.5,109.5 81.5,109.5C 81.5,90.5 81.5,71.5 81.5,52.5 Z"/></g>
<g><path style="opacity:1" fill="#221f1c" d="M 173.5,95.5 C 168.833,95.5 164.167,95.5 159.5,95.5C 159.5,90.8333 159.5,86.1667 159.5,81.5C 164.167,81.5 168.833,81.5 173.5,81.5C 173.5,86.1667 173.5,90.8333 173.5,95.5 Z"/></g>
<g><path style="opacity:1" fill="#3f2b10" d="M 417.5,39.5 C 417.833,39.5 418.167,39.5 418.5,39.5C 419.771,62.7758 419.771,86.1092 418.5,109.5C 418.167,109.5 417.833,109.5 417.5,109.5C 417.5,86.1667 417.5,62.8333 417.5,39.5 Z"/></g>
<g><path style="opacity:0.778" fill="#3f3d3f" d="M 81.5,52.5 C 81.5,71.5 81.5,90.5 81.5,109.5C 85.5,109.5 89.5,109.5 93.5,109.5C 93.5,109.833 93.5,110.167 93.5,110.5C 88.9677,110.818 84.6344,110.485 80.5,109.5C 80.1697,90.326 80.503,71.326 81.5,52.5 Z"/></g>
<g><path style="opacity:1" fill="#e1ae51" d="M 94.5,52.5 C 98.8333,52.5 103.167,52.5 107.5,52.5C 103.702,53.4834 99.7016,53.8168 95.5,53.5C 95.5,71.8333 95.5,90.1667 95.5,108.5C 99.7016,108.183 103.702,108.517 107.5,109.5C 103.167,109.5 98.8333,109.5 94.5,109.5C 94.5,90.5 94.5,71.5 94.5,52.5 Z"/></g>
<g><path style="opacity:1" fill="#e1c683" d="M 173.5,79.5 C 173.5,79.8333 173.5,80.1667 173.5,80.5C 168.5,80.5 163.5,80.5 158.5,80.5C 158.5,85.5 158.5,90.5 158.5,95.5C 153.5,95.5 148.5,95.5 143.5,95.5C 147.715,93.5636 152.381,92.8969 157.5,93.5C 157.5,88.5 157.5,83.5 157.5,78.5C 162.927,78.2175 168.26,78.5509 173.5,79.5 Z"/></g>
<g><path style="opacity:1" fill="#65480d" d="M 93.5,52.5 C 93.8333,52.5 94.1667,52.5 94.5,52.5C 94.5,71.5 94.5,90.5 94.5,109.5C 98.8333,109.5 103.167,109.5 107.5,109.5C 108.167,109.5 108.5,109.833 108.5,110.5C 103.833,110.5 99.1667,110.5 94.5,110.5C 94.1667,110.5 93.8333,110.5 93.5,110.5C 93.5,110.167 93.5,109.833 93.5,109.5C 93.5,90.5 93.5,71.5 93.5,52.5 Z"/></g>
<g><path style="opacity:1" fill="#241704" d="M 143.5,95.5 C 148.5,95.5 153.5,95.5 158.5,95.5C 158.5,95.8333 158.5,96.1667 158.5,96.5C 158.5,100.833 158.5,105.167 158.5,109.5C 153.5,109.5 148.5,109.5 143.5,109.5C 143.5,104.833 143.5,100.167 143.5,95.5 Z"/></g>
<g><path style="opacity:1" fill="#eca744" d="M 173.5,53.5 C 174.623,67.9898 175.289,82.6564 175.5,97.5C 170.5,97.5 165.5,97.5 160.5,97.5C 161.089,101.971 160.423,105.971 158.5,109.5C 158.5,105.167 158.5,100.833 158.5,96.5C 163.695,96.8205 168.695,96.4872 173.5,95.5C 174.833,90.5 174.833,85.5 173.5,80.5C 173.5,80.1667 173.5,79.8333 173.5,79.5C 173.5,70.8333 173.5,62.1667 173.5,53.5 Z"/></g>
<g><path style="opacity:1" fill="#e7cd8b" d="M 374.5,80.5 C 375.222,80.9175 375.722,81.5842 376,82.5C 376.499,86.1516 376.665,89.8183 376.5,93.5C 380.857,93.5865 385.19,93.9198 389.5,94.5C 389.819,99.3633 389.486,104.03 388.5,108.5C 388.813,104.958 388.479,101.625 387.5,98.5C 387.5,97.5 387.5,96.5 387.5,95.5C 383.167,95.5 378.833,95.5 374.5,95.5C 374.5,90.5 374.5,85.5 374.5,80.5 Z"/></g>
<g><path style="opacity:1" fill="#212121" d="M 144.5,96.5 C 148.5,96.5 152.5,96.5 156.5,96.5C 156.5,100.5 156.5,104.5 156.5,108.5C 152.5,108.5 148.5,108.5 144.5,108.5C 144.5,104.5 144.5,100.5 144.5,96.5 Z"/></g>
<g><path style="opacity:1" fill="#262018" d="M 360.5,80.5 C 365.167,80.5 369.833,80.5 374.5,80.5C 374.5,85.5 374.5,90.5 374.5,95.5C 378.833,95.5 383.167,95.5 387.5,95.5C 387.5,96.5 387.5,97.5 387.5,98.5C 387.5,102.167 387.5,105.833 387.5,109.5C 382.833,109.5 378.167,109.5 373.5,109.5C 373.5,104.833 373.5,100.167 373.5,95.5C 368.833,95.5 364.167,95.5 359.5,95.5C 359.179,90.3054 359.513,85.3054 360.5,80.5 Z"/></g>
<g><path style="opacity:0.286" fill="#acaca9" d="M 432.5,86.5 C 432.5,94.5 432.5,102.5 432.5,110.5C 428.5,110.5 424.5,110.5 420.5,110.5C 420.5,110.167 420.5,109.833 420.5,109.5C 424.167,109.5 427.833,109.5 431.5,109.5C 431.175,101.648 431.508,93.9818 432.5,86.5 Z"/></g>
<g><path style="opacity:1" fill="#ae863f" d="M 387.5,98.5 C 388.479,101.625 388.813,104.958 388.5,108.5C 388.5,108.833 388.5,109.167 388.5,109.5C 383.5,110.833 378.5,110.833 373.5,109.5C 378.167,109.5 382.833,109.5 387.5,109.5C 387.5,105.833 387.5,102.167 387.5,98.5 Z"/></g>
<g><path style="opacity:1" fill="#2b231a" d="M 143.5,110.5 C 143.5,115.833 143.5,121.167 143.5,126.5C 138.637,126.819 133.97,126.486 129.5,125.5C 129.5,120.5 129.5,115.5 129.5,110.5C 134.167,110.5 138.833,110.5 143.5,110.5 Z"/></g>
<g><path style="opacity:1" fill="#4b2e08" d="M 417.5,109.5 C 417.5,109.833 417.5,110.167 417.5,110.5C 413.167,110.5 408.833,110.5 404.5,110.5C 404.821,116.026 404.488,121.36 403.5,126.5C 403.5,120.833 403.5,115.167 403.5,109.5C 408.167,109.5 412.833,109.5 417.5,109.5 Z"/></g>
<g><path style="opacity:1" fill="#b1954c" d="M 108.5,110.5 C 109.189,120.735 109.855,131.068 110.5,141.5C 108.525,131.554 107.858,121.221 108.5,110.5 Z"/></g>
<g><path style="opacity:0.593" fill="#61615f" d="M 417.5,109.5 C 417.833,109.5 418.167,109.5 418.5,109.5C 419.167,109.5 419.833,109.5 420.5,109.5C 420.5,109.833 420.5,110.167 420.5,110.5C 418.842,120.626 417.842,130.96 417.5,141.5C 417.5,131.167 417.5,120.833 417.5,110.5C 417.5,110.167 417.5,109.833 417.5,109.5 Z"/></g>
<g><path style="opacity:1" fill="#211f1d" d="M 417.5,110.5 C 417.5,120.833 417.5,131.167 417.5,141.5C 413.167,141.5 408.833,141.5 404.5,141.5C 403.515,145.634 403.182,149.968 403.5,154.5C 399.167,154.5 394.833,154.5 390.5,154.5C 390.5,145.5 390.5,136.5 390.5,127.5C 395.032,127.818 399.366,127.485 403.5,126.5C 404.488,121.36 404.821,116.026 404.5,110.5C 408.833,110.5 413.167,110.5 417.5,110.5 Z"/></g>
<g><path style="opacity:1" fill="#4e2f0a" d="M 403.5,126.5 C 399.366,127.485 395.032,127.818 390.5,127.5C 390.5,136.5 390.5,145.5 390.5,154.5C 390.167,154.5 389.833,154.5 389.5,154.5C 389.5,154.167 389.5,153.833 389.5,153.5C 389.5,144.5 389.5,135.5 389.5,126.5C 394.167,126.5 398.833,126.5 403.5,126.5 Z"/></g>
<g><path style="opacity:1" fill="#201f1e" d="M 94.5,110.5 C 99.1667,110.5 103.833,110.5 108.5,110.5C 107.858,121.221 108.525,131.554 110.5,141.5C 114.5,141.5 118.5,141.5 122.5,141.5C 122.5,156.5 122.5,171.5 122.5,186.5C 117.833,186.5 113.167,186.5 108.5,186.5C 108.5,176.167 108.5,165.833 108.5,155.5C 104.03,154.514 99.3633,154.181 94.5,154.5C 94.5,139.833 94.5,125.167 94.5,110.5 Z"/></g>
<g><path style="opacity:1" fill="#fccc71" d="M 203.5,140.5 C 211.5,140.5 219.5,140.5 227.5,140.5C 227.5,145.5 227.5,150.5 227.5,155.5C 219.5,155.5 211.5,155.5 203.5,155.5C 203.5,150.5 203.5,145.5 203.5,140.5 Z"/></g>
<g><path style="opacity:0.18" fill="#858381" d="M 93.5,110.5 C 93.8333,110.5 94.1667,110.5 94.5,110.5C 94.5,125.167 94.5,139.833 94.5,154.5C 99.3633,154.181 104.03,154.514 108.5,155.5C 108.167,155.5 107.833,155.5 107.5,155.5C 102.833,155.5 98.1667,155.5 93.5,155.5C 93.5,140.5 93.5,125.5 93.5,110.5 Z"/></g>
<g><path style="opacity:1" fill="#fccd72" d="M 337.5,140.5 C 344.841,140.334 352.174,140.5 359.5,141C 360.469,145.737 360.803,150.57 360.5,155.5C 352.5,155.5 344.5,155.5 336.5,155.5C 336.221,150.405 336.555,145.405 337.5,140.5 Z"/></g>
<g><path style="opacity:0.047" fill="#dddcd9" d="M 404.5,141.5 C 404.5,145.5 404.5,149.5 404.5,153.5C 409.363,153.181 414.03,153.514 418.5,154.5C 413.833,154.5 409.167,154.5 404.5,154.5C 404.167,154.5 403.833,154.5 403.5,154.5C 403.182,149.968 403.515,145.634 404.5,141.5 Z"/></g>
<g><path style="opacity:1" fill="#f1b956" d="M 389.5,154.5 C 389.833,154.5 390.167,154.5 390.5,154.5C 394.833,154.5 399.167,154.5 403.5,154.5C 403.5,170.167 403.5,185.833 403.5,201.5C 402.504,186.342 402.17,171.009 402.5,155.5C 397.968,155.818 393.634,155.485 389.5,154.5 Z"/></g>
<g><path style="opacity:1" fill="#2f2006" d="M 122.5,141.5 C 123.496,156.658 123.83,171.991 123.5,187.5C 118.5,187.5 113.5,187.5 108.5,187.5C 108.5,187.167 108.5,186.833 108.5,186.5C 113.167,186.5 117.833,186.5 122.5,186.5C 122.5,171.5 122.5,156.5 122.5,141.5 Z"/></g>
<g><path style="opacity:1" fill="#9a7532" d="M 204.5,167.5 C 204.813,171.042 204.479,174.375 203.5,177.5C 200.167,177.5 196.833,177.5 193.5,177.5C 193.5,177.167 193.5,176.833 193.5,176.5C 196.833,176.5 200.167,176.5 203.5,176.5C 203.19,173.287 203.523,170.287 204.5,167.5 Z"/></g>
<g><path style="opacity:1" fill="#9e7833" d="M 230.5,167.5 C 231.477,170.287 231.81,173.287 231.5,176.5C 234.385,176.194 237.052,176.527 239.5,177.5C 236.5,177.5 233.5,177.5 230.5,177.5C 230.5,174.167 230.5,170.833 230.5,167.5 Z"/></g>
<g><path style="opacity:1" fill="#b58b3f" d="M 360.5,167.5 C 361.477,170.287 361.81,173.287 361.5,176.5C 365.702,176.183 369.702,176.517 373.5,177.5C 373.167,177.5 372.833,177.5 372.5,177.5C 368.5,177.5 364.5,177.5 360.5,177.5C 360.5,174.167 360.5,170.833 360.5,167.5 Z"/></g>
<g><path style="opacity:1" fill="#291d0a" d="M 360.5,167.5 C 360.5,170.833 360.5,174.167 360.5,177.5C 364.5,177.5 368.5,177.5 372.5,177.5C 372.5,188.5 372.5,199.5 372.5,210.5C 370.5,210.5 368.5,210.5 366.5,210.5C 367.919,209.549 369.585,209.216 371.5,209.5C 371.76,199.128 371.427,188.794 370.5,178.5C 366.818,178.665 363.152,178.499 359.5,178C 359.105,174.733 358.105,171.733 356.5,169C 350.509,168.501 344.509,168.334 338.5,168.5C 338.543,171.587 338.71,174.587 339,177.5C 338.311,178.357 337.478,179.023 336.5,179.5C 334.591,178.652 332.591,178.318 330.5,178.5C 330.5,189.167 330.5,199.833 330.5,210.5C 332.167,210.5 333.833,210.5 335.5,210.5C 335.5,210.833 335.5,211.167 335.5,211.5C 333.167,211.5 330.833,211.5 328.5,211.5C 328.5,200.167 328.5,188.833 328.5,177.5C 331.287,176.523 334.287,176.19 337.5,176.5C 337.5,173.5 337.5,170.5 337.5,167.5C 345.167,167.5 352.833,167.5 360.5,167.5 Z"/></g>
<g><path style="opacity:1" fill="#604517" d="M 403.5,154.5 C 403.833,154.5 404.167,154.5 404.5,154.5C 404.5,170.167 404.5,185.833 404.5,201.5C 409.167,201.5 413.833,201.5 418.5,201.5C 418.5,201.833 418.5,202.167 418.5,202.5C 418.5,217.5 418.5,232.5 418.5,247.5C 418.167,247.5 417.833,247.5 417.5,247.5C 417.5,232.5 417.5,217.5 417.5,202.5C 413.167,202.5 408.833,202.5 404.5,202.5C 403.833,202.5 403.5,202.167 403.5,201.5C 403.5,185.833 403.5,170.167 403.5,154.5 Z"/></g>
<g><path style="opacity:1" fill="#21211f" d="M 366.5,210.5 C 365.508,210.328 364.842,210.662 364.5,211.5C 364.5,214.5 364.5,217.5 364.5,220.5C 355.5,220.5 346.5,220.5 337.5,220.5C 338.069,216.671 337.402,213.337 335.5,210.5C 333.833,210.5 332.167,210.5 330.5,210.5C 330.5,199.833 330.5,189.167 330.5,178.5C 332.591,178.318 334.591,178.652 336.5,179.5C 337.478,179.023 338.311,178.357 339,177.5C 338.71,174.587 338.543,171.587 338.5,168.5C 344.509,168.334 350.509,168.501 356.5,169C 358.105,171.733 359.105,174.733 359.5,178C 363.152,178.499 366.818,178.665 370.5,178.5C 371.427,188.794 371.76,199.128 371.5,209.5C 369.585,209.216 367.919,209.549 366.5,210.5 Z"/></g>
<g><path style="opacity:1" fill="#fbf1cc" d="M 352.5,181.5 C 354.833,181.5 357.167,181.5 359.5,181.5C 359.5,184.167 359.5,186.833 359.5,189.5C 357.167,189.5 354.833,189.5 352.5,189.5C 352.5,186.833 352.5,184.167 352.5,181.5 Z"/></g>
<g><path style="opacity:1" fill="#21201e" d="M 204.5,167.5 C 213.167,167.5 221.833,167.5 230.5,167.5C 230.5,170.833 230.5,174.167 230.5,177.5C 233.5,177.5 236.5,177.5 239.5,177.5C 239.5,188.833 239.5,200.167 239.5,211.5C 236.833,211.5 234.167,211.5 231.5,211.5C 230.523,214.287 230.19,217.287 230.5,220.5C 221.833,220.5 213.167,220.5 204.5,220.5C 204.81,217.287 204.477,214.287 203.5,211.5C 200.713,210.523 197.713,210.19 194.5,210.5C 194.5,199.833 194.5,189.167 194.5,178.5C 197.713,178.81 200.713,178.477 203.5,177.5C 204.479,174.375 204.813,171.042 204.5,167.5 Z"/></g>
<g><path style="opacity:1" fill="#eee5c6" d="M 220.5,181.5 C 223.167,181.5 225.833,181.5 228.5,181.5C 228.5,184.167 228.5,186.833 228.5,189.5C 225.833,189.5 223.167,189.5 220.5,189.5C 220.5,186.833 220.5,184.167 220.5,181.5 Z"/></g>
<g><path style="opacity:1" fill="#21211f" d="M 107.5,187.5 C 106.536,194.746 106.203,202.08 106.5,209.5C 102.5,209.5 98.5,209.5 94.5,209.5C 94.5,202.167 94.5,194.833 94.5,187.5C 98.8333,187.5 103.167,187.5 107.5,187.5 Z"/></g>
<g><path style="opacity:1" fill="#301c00" d="M 193.5,177.5 C 196.833,177.5 200.167,177.5 203.5,177.5C 200.713,178.477 197.713,178.81 194.5,178.5C 194.5,189.167 194.5,199.833 194.5,210.5C 197.713,210.19 200.713,210.523 203.5,211.5C 200.167,211.5 196.833,211.5 193.5,211.5C 193.5,200.167 193.5,188.833 193.5,177.5 Z"/></g>
<g><path style="opacity:1" fill="#e1a646" d="M 108.5,187.5 C 113.5,187.5 118.5,187.5 123.5,187.5C 119.435,188.193 115.268,188.86 111,189.5C 111.137,197.235 110.304,204.568 108.5,211.5C 108.5,211.167 108.5,210.833 108.5,210.5C 108.5,202.833 108.5,195.167 108.5,187.5 Z"/></g>
<g><path style="opacity:1" fill="#242320" d="M 404.5,154.5 C 409.167,154.5 413.833,154.5 418.5,154.5C 418.5,170.167 418.5,185.833 418.5,201.5C 413.833,201.5 409.167,201.5 404.5,201.5C 404.5,185.833 404.5,170.167 404.5,154.5 Z"/></g>
<g><path style="opacity:1" fill="#614018" d="M 372.5,177.5 C 372.833,177.5 373.167,177.5 373.5,177.5C 373.5,188.833 373.5,200.167 373.5,211.5C 370.5,211.5 367.5,211.5 364.5,211.5C 364.842,210.662 365.508,210.328 366.5,210.5C 368.5,210.5 370.5,210.5 372.5,210.5C 372.5,199.5 372.5,188.5 372.5,177.5 Z"/></g>
<g><path style="opacity:1" fill="#2a1f08" d="M 107.5,187.5 C 107.833,187.5 108.167,187.5 108.5,187.5C 108.5,195.167 108.5,202.833 108.5,210.5C 103.833,210.5 99.1667,210.5 94.5,210.5C 94.5,210.167 94.5,209.833 94.5,209.5C 98.5,209.5 102.5,209.5 106.5,209.5C 106.203,202.08 106.536,194.746 107.5,187.5 Z"/></g>
<g><path style="opacity:0.151" fill="#9f9e9c" d="M 107.5,155.5 C 107.833,155.5 108.167,155.5 108.5,155.5C 108.5,165.833 108.5,176.167 108.5,186.5C 108.5,186.833 108.5,187.167 108.5,187.5C 108.167,187.5 107.833,187.5 107.5,187.5C 103.167,187.5 98.8333,187.5 94.5,187.5C 94.5,194.833 94.5,202.167 94.5,209.5C 94.5,209.833 94.5,210.167 94.5,210.5C 94.1667,210.5 93.8333,210.5 93.5,210.5C 93.5,202.5 93.5,194.5 93.5,186.5C 98.1667,186.5 102.833,186.5 107.5,186.5C 107.5,176.167 107.5,165.833 107.5,155.5 Z"/></g>
<g><path style="opacity:0.281" fill="#acaca7" d="M 418.5,202.5 C 418.5,202.167 418.5,201.833 418.5,201.5C 423.167,201.5 427.833,201.5 432.5,201.5C 432.83,217.342 432.496,233.009 431.5,248.5C 431.5,248.167 431.5,247.833 431.5,247.5C 431.5,232.5 431.5,217.5 431.5,202.5C 427.167,202.5 422.833,202.5 418.5,202.5 Z"/></g>
<g><path style="opacity:1" fill="#efb042" d="M 193.5,176.5 C 193.5,176.833 193.5,177.167 193.5,177.5C 193.5,188.833 193.5,200.167 193.5,211.5C 196.833,211.5 200.167,211.5 203.5,211.5C 203.5,214.833 203.5,218.167 203.5,221.5C 202.5,221.5 201.5,221.5 200.5,221.5C 201.092,218.873 201.425,216.206 201.5,213.5C 200.167,213.5 198.833,213.5 197.5,213.5C 197.5,214.5 197.5,215.5 197.5,216.5C 195.61,216.703 194.11,216.037 193,214.5C 192.173,201.66 192.34,188.993 193.5,176.5 Z"/></g>
<g><path style="opacity:1" fill="#5f4219" d="M 203.5,211.5 C 204.477,214.287 204.81,217.287 204.5,220.5C 213.167,220.5 221.833,220.5 230.5,220.5C 230.19,217.287 230.523,214.287 231.5,211.5C 231.5,214.833 231.5,218.167 231.5,221.5C 222.167,221.5 212.833,221.5 203.5,221.5C 203.5,218.167 203.5,214.833 203.5,211.5 Z"/></g>
<g><path style="opacity:1" fill="#4f350e" d="M 335.5,211.5 C 335.5,211.167 335.5,210.833 335.5,210.5C 337.402,213.337 338.069,216.671 337.5,220.5C 346.5,220.5 355.5,220.5 364.5,220.5C 364.5,220.833 364.5,221.167 364.5,221.5C 364.167,221.5 363.833,221.5 363.5,221.5C 354.5,221.5 345.5,221.5 336.5,221.5C 336.813,217.958 336.479,214.625 335.5,211.5 Z"/></g>
<g><path style="opacity:1" fill="#fbcc72" d="M 328.5,177.5 C 328.5,188.833 328.5,200.167 328.5,211.5C 330.833,211.5 333.167,211.5 335.5,211.5C 336.479,214.625 336.813,217.958 336.5,221.5C 345.5,221.5 354.5,221.5 363.5,221.5C 363.5,221.833 363.5,222.167 363.5,222.5C 357.5,222.5 351.5,222.5 345.5,222.5C 345.5,226.833 345.5,231.167 345.5,235.5C 348.385,235.194 351.052,235.527 353.5,236.5C 353.5,250.833 353.5,265.167 353.5,279.5C 351.167,279.5 348.833,279.5 346.5,279.5C 346.5,282.833 346.5,286.167 346.5,289.5C 348.415,289.216 350.081,289.549 351.5,290.5C 350.833,290.5 350.167,290.5 349.5,290.5C 348.209,290.263 347.209,290.596 346.5,291.5C 308.239,292.494 269.906,292.827 231.5,292.5C 231.5,289.167 231.5,285.833 231.5,282.5C 228.833,282.5 226.167,282.5 223.5,282.5C 223.167,267.152 223.501,251.819 224.5,236.5C 226.747,235.626 229.08,235.292 231.5,235.5C 231.5,231.833 231.5,228.167 231.5,224.5C 234.833,224.5 238.167,224.5 241.5,224.5C 241.5,221.833 241.5,219.167 241.5,216.5C 244.167,216.5 246.833,216.5 249.5,216.5C 249.5,213.5 249.5,210.5 249.5,207.5C 253.5,207.5 257.5,207.5 261.5,207.5C 261.5,205.5 261.5,203.5 261.5,201.5C 263.833,201.5 266.167,201.5 268.5,201.5C 268.5,199.833 268.5,198.167 268.5,196.5C 282.833,196.5 297.167,196.5 311.5,196.5C 311.5,198.167 311.5,199.833 311.5,201.5C 314.5,201.5 317.5,201.5 320.5,201.5C 320.5,204.833 320.5,208.167 320.5,211.5C 322.833,211.5 325.167,211.5 327.5,211.5C 327.172,199.988 327.505,188.654 328.5,177.5 Z"/></g>
<g><path style="opacity:0.148" fill="#cac9c9" d="M 93.5,210.5 C 93.5,210.833 93.5,211.167 93.5,211.5C 89.1667,211.5 84.8333,211.5 80.5,211.5C 80.5,219.833 80.5,228.167 80.5,236.5C 79.507,228.016 79.1736,219.349 79.5,210.5C 84.1667,210.5 88.8333,210.5 93.5,210.5 Z"/></g>
<g><path style="opacity:1" fill="#f0b952" d="M 404.5,202.5 C 408.833,202.5 413.167,202.5 417.5,202.5C 417.5,217.5 417.5,232.5 417.5,247.5C 417.5,247.833 417.5,248.167 417.5,248.5C 412.833,248.5 408.167,248.5 403.5,248.5C 403.5,253.5 403.5,258.5 403.5,263.5C 398.833,263.5 394.167,263.5 389.5,263.5C 393.634,262.515 397.968,262.182 402.5,262.5C 402.334,257.489 402.501,252.489 403,247.5C 407.401,246.533 411.901,246.2 416.5,246.5C 416.5,232.167 416.5,217.833 416.5,203.5C 412.298,203.817 408.298,203.483 404.5,202.5 Z"/></g>
<g><path style="opacity:1" fill="#eaaa47" d="M 108.5,211.5 C 104.702,212.483 100.702,212.817 96.5,212.5C 96.5,219.833 96.5,227.167 96.5,234.5C 100.846,234.334 105.179,234.501 109.5,235C 110.167,235.667 110.833,236.333 111.5,237C 110.522,243.41 110.189,249.91 110.5,256.5C 115.294,255.903 119.627,256.57 123.5,258.5C 118.5,258.5 113.5,258.5 108.5,258.5C 108.5,251.167 108.5,243.833 108.5,236.5C 103.833,236.5 99.1667,236.5 94.5,236.5C 94.5,228.167 94.5,219.833 94.5,211.5C 99.1667,211.5 103.833,211.5 108.5,211.5 Z"/></g>
<g><path style="opacity:1" fill="#21211f" d="M 93.5,211.5 C 93.5,219.833 93.5,228.167 93.5,236.5C 89.1667,236.5 84.8333,236.5 80.5,236.5C 80.5,228.167 80.5,219.833 80.5,211.5C 84.8333,211.5 89.1667,211.5 93.5,211.5 Z"/></g>
<g><path style="opacity:1" fill="#745931" d="M 93.5,210.5 C 93.8333,210.5 94.1667,210.5 94.5,210.5C 99.1667,210.5 103.833,210.5 108.5,210.5C 108.5,210.833 108.5,211.167 108.5,211.5C 103.833,211.5 99.1667,211.5 94.5,211.5C 94.5,219.833 94.5,228.167 94.5,236.5C 94.5,243.833 94.5,251.167 94.5,258.5C 93.5084,251.352 93.175,244.019 93.5,236.5C 93.5,228.167 93.5,219.833 93.5,211.5C 93.5,211.167 93.5,210.833 93.5,210.5 Z"/></g>
<g><path style="opacity:1" fill="#f38e56" d="M 363.5,222.5 C 363.5,222.167 363.5,221.833 363.5,221.5C 363.833,221.5 364.167,221.5 364.5,221.5C 366.833,221.5 369.167,221.5 371.5,221.5C 371.5,219.5 371.5,217.5 371.5,215.5C 378.5,215.5 385.5,215.5 392.5,215.5C 392.5,217.5 392.5,219.5 392.5,221.5C 400.583,220.424 403.583,223.924 401.5,232C 403.572,240.761 400.239,243.927 391.5,241.5C 391.5,243.5 391.5,245.5 391.5,247.5C 385.167,247.5 378.833,247.5 372.5,247.5C 372.89,241.169 369.89,238.836 363.5,240.5C 363.5,234.5 363.5,228.5 363.5,222.5 Z"/></g>
<g><path style="opacity:1" fill="#252017" d="M 313.5,221.5 C 312.532,223.607 312.198,225.941 312.5,228.5C 310.167,228.5 307.833,228.5 305.5,228.5C 305.5,234.833 305.5,241.167 305.5,247.5C 304.677,244.023 304.177,240.356 304,236.5C 303.147,238.125 302.147,238.458 301,237.5C 300.517,238.448 300.351,239.448 300.5,240.5C 299.178,240.33 298.011,240.663 297,241.5C 296.998,244.051 296.164,246.051 294.5,247.5C 294.5,241.167 294.5,234.833 294.5,228.5C 296.167,228.5 297.833,228.5 299.5,228.5C 299.5,229.5 299.5,230.5 299.5,231.5C 298.5,231.5 297.5,231.5 296.5,231.5C 296.008,235.29 296.841,235.956 299,233.5C 300.049,234.517 301.216,234.684 302.5,234C 303.423,231.959 303.756,229.792 303.5,227.5C 304.552,227.649 305.552,227.483 306.5,227C 308.604,221.446 312.604,219.28 318.5,220.5C 318.5,217.5 318.5,214.5 318.5,211.5C 316.801,211.66 315.134,211.494 313.5,211C 314.167,210.333 314.833,209.667 315.5,209C 303.171,208.5 290.838,208.333 278.5,208.5C 278.927,212.329 278.927,215.996 278.5,219.5C 285.003,219.268 287.003,222.268 284.5,228.5C 284.167,228.5 283.833,228.5 283.5,228.5C 283.5,226.167 283.5,223.833 283.5,221.5C 281.5,221.5 279.5,221.5 277.5,221.5C 277.5,216.5 277.5,211.5 277.5,206.5C 291.5,206.5 305.5,206.5 319.5,206.5C 319.5,211.5 319.5,216.5 319.5,221.5C 317.5,221.5 315.5,221.5 313.5,221.5 Z"/></g>
<g><path style="opacity:1" fill="#21201f" d="M 294.5,228.5 C 291.167,228.5 287.833,228.5 284.5,228.5C 287.003,222.268 285.003,219.268 278.5,219.5C 278.927,215.996 278.927,212.329 278.5,208.5C 290.838,208.333 303.171,208.5 315.5,209C 314.833,209.667 314.167,210.333 313.5,211C 315.134,211.494 316.801,211.66 318.5,211.5C 318.5,214.5 318.5,217.5 318.5,220.5C 312.604,219.28 308.604,221.446 306.5,227C 305.552,227.483 304.552,227.649 303.5,227.5C 303.756,229.792 303.423,231.959 302.5,234C 301.216,234.684 300.049,234.517 299,233.5C 296.841,235.956 296.008,235.29 296.5,231.5C 297.5,231.5 298.5,231.5 299.5,231.5C 299.5,230.5 299.5,229.5 299.5,228.5C 297.833,228.5 296.167,228.5 294.5,228.5 Z"/></g>
<g><path style="opacity:1" fill="#201f1d" d="M 418.5,202.5 C 422.833,202.5 427.167,202.5 431.5,202.5C 431.5,217.5 431.5,232.5 431.5,247.5C 427.167,247.5 422.833,247.5 418.5,247.5C 418.5,232.5 418.5,217.5 418.5,202.5 Z"/></g>
<g><path style="opacity:1" fill="#25221c" d="M 94.5,236.5 C 99.1667,236.5 103.833,236.5 108.5,236.5C 108.5,243.833 108.5,251.167 108.5,258.5C 103.833,258.5 99.1667,258.5 94.5,258.5C 94.5,251.167 94.5,243.833 94.5,236.5 Z"/></g>
<g><path style="opacity:1" fill="#dcc082" d="M 313.5,221.5 C 313.5,224.167 313.5,226.833 313.5,229.5C 311.167,229.5 308.833,229.5 306.5,229.5C 306.334,234.511 306.501,239.511 307,244.5C 311.401,245.467 315.901,245.8 320.5,245.5C 320.241,241.76 320.574,238.094 321.5,234.5C 326.399,234.239 331.399,234.239 336.5,234.5C 336.5,241.167 336.5,247.833 336.5,254.5C 333.214,253.793 329.881,253.46 326.5,253.5C 326.784,255.415 326.451,257.081 325.5,258.5C 325.5,256.5 325.5,254.5 325.5,252.5C 328.5,252.5 331.5,252.5 334.5,252.5C 334.821,246.974 334.488,241.64 333.5,236.5C 329.5,236.5 325.5,236.5 321.5,236.5C 321.5,240.167 321.5,243.833 321.5,247.5C 316.167,247.5 310.833,247.5 305.5,247.5C 305.5,241.167 305.5,234.833 305.5,228.5C 307.833,228.5 310.167,228.5 312.5,228.5C 312.198,225.941 312.532,223.607 313.5,221.5 Z"/></g>
<g><path style="opacity:1" fill="#f0cf84" d="M 285.5,229.5 C 288.167,229.5 290.833,229.5 293.5,229.5C 293.5,235.167 293.5,240.833 293.5,246.5C 283.5,246.5 273.5,246.5 263.5,246.5C 263.813,242.958 263.479,239.625 262.5,236.5C 258.5,236.5 254.5,236.5 250.5,236.5C 250.5,241.833 250.5,247.167 250.5,252.5C 247.817,250.959 246.984,248.626 248,245.5C 248.333,247.167 248.667,248.833 249,250.5C 248.913,245.037 249.746,239.87 251.5,235C 255.5,234.333 259.5,234.333 263.5,235C 264,235.5 264.5,236 265,236.5C 265.498,239.482 265.665,242.482 265.5,245.5C 274.5,245.5 283.5,245.5 292.5,245.5C 292.5,240.5 292.5,235.5 292.5,230.5C 289.941,230.802 287.607,230.468 285.5,229.5 Z"/></g>
<g><path style="opacity:1" fill="#f69746" d="M 157.5,215.5 C 165.174,215.334 172.841,215.5 180.5,216C 181.167,217.333 181.833,218.667 182.5,220C 185.482,220.498 188.482,220.665 191.5,220.5C 191.5,227.5 191.5,234.5 191.5,241.5C 188.5,241.5 185.5,241.5 182.5,241.5C 182.739,243.467 182.406,245.301 181.5,247C 173.167,247.667 164.833,247.667 156.5,247C 155.594,245.301 155.261,243.467 155.5,241.5C 152.833,241.5 150.167,241.5 147.5,241.5C 147.5,234.833 147.5,228.167 147.5,221.5C 150.187,221.664 152.854,221.497 155.5,221C 156.244,219.185 156.911,217.352 157.5,215.5 Z"/></g>
<g><path style="opacity:1" fill="#f38e57" d="M 159.5,216.5 C 166.167,216.5 172.833,216.5 179.5,216.5C 179.297,218.39 179.963,219.89 181.5,221C 184.063,222.079 186.729,222.579 189.5,222.5C 189.5,228.167 189.5,233.833 189.5,239.5C 187.143,239.337 184.81,239.503 182.5,240C 181.833,242 181.167,244 180.5,246C 173.5,246.667 166.5,246.667 159.5,246C 158.338,240.008 154.671,237.842 148.5,239.5C 148.5,233.833 148.5,228.167 148.5,222.5C 151.518,222.665 154.518,222.498 157.5,222C 158.244,220.185 158.911,218.352 159.5,216.5 Z"/></g>
<g><path style="opacity:1" fill="#c6ae7a" d="M 283.5,228.5 C 283.833,228.5 284.167,228.5 284.5,228.5C 287.833,228.5 291.167,228.5 294.5,228.5C 294.5,234.833 294.5,241.167 294.5,247.5C 294.167,247.5 293.833,247.5 293.5,247.5C 283.167,247.5 272.833,247.5 262.5,247.5C 262.5,243.833 262.5,240.167 262.5,236.5C 263.479,239.625 263.813,242.958 263.5,246.5C 273.5,246.5 283.5,246.5 293.5,246.5C 293.5,240.833 293.5,235.167 293.5,229.5C 290.833,229.5 288.167,229.5 285.5,229.5C 284.508,229.672 283.842,229.338 283.5,228.5 Z"/></g>
<g><path style="opacity:1" fill="#21201f" d="M 305.5,247.5 C 310.833,247.5 316.167,247.5 321.5,247.5C 321.5,243.833 321.5,240.167 321.5,236.5C 325.5,236.5 329.5,236.5 333.5,236.5C 333.167,241.167 332.833,245.833 332.5,250.5C 329.72,250.055 327.053,250.055 324.5,250.5C 323.786,253.027 323.12,255.527 322.5,258C 305.503,258.5 288.503,258.667 271.5,258.5C 269.031,257.683 266.365,257.183 263.5,257C 261.686,254.519 261.02,251.685 261.5,248.5C 272.346,248.828 283.013,248.494 293.5,247.5C 293.833,247.5 294.167,247.5 294.5,247.5C 296.164,246.051 296.998,244.051 297,241.5C 298.011,240.663 299.178,240.33 300.5,240.5C 300.351,239.448 300.517,238.448 301,237.5C 302.147,238.458 303.147,238.125 304,236.5C 304.177,240.356 304.677,244.023 305.5,247.5 Z"/></g>
<g><path style="opacity:0.612" fill="#72726c" d="M 417.5,247.5 C 417.833,247.5 418.167,247.5 418.5,247.5C 422.833,247.5 427.167,247.5 431.5,247.5C 431.5,247.833 431.5,248.167 431.5,248.5C 427.167,248.5 422.833,248.5 418.5,248.5C 418.5,253.833 418.5,259.167 418.5,264.5C 413.5,264.5 408.5,264.5 403.5,264.5C 403.5,264.167 403.5,263.833 403.5,263.5C 408.167,263.5 412.833,263.5 417.5,263.5C 417.5,258.5 417.5,253.5 417.5,248.5C 417.5,248.167 417.5,247.833 417.5,247.5 Z"/></g>
<g><path style="opacity:1" fill="#241f16" d="M 262.5,236.5 C 262.5,240.167 262.5,243.833 262.5,247.5C 272.833,247.5 283.167,247.5 293.5,247.5C 283.013,248.494 272.346,248.828 261.5,248.5C 261.02,251.685 261.686,254.519 263.5,257C 266.365,257.183 269.031,257.683 271.5,258.5C 267.833,258.5 264.167,258.5 260.5,258.5C 260.795,256.265 260.461,254.265 259.5,252.5C 256.5,252.5 253.5,252.5 250.5,252.5C 250.5,247.167 250.5,241.833 250.5,236.5C 254.5,236.5 258.5,236.5 262.5,236.5 Z"/></g>
<g><path style="opacity:1" fill="#43381d" d="M 333.5,236.5 C 334.488,241.64 334.821,246.974 334.5,252.5C 331.5,252.5 328.5,252.5 325.5,252.5C 325.5,254.5 325.5,256.5 325.5,258.5C 325.5,259.167 325.167,259.5 324.5,259.5C 302.833,259.5 281.167,259.5 259.5,259.5C 259.5,257.167 259.5,254.833 259.5,252.5C 260.461,254.265 260.795,256.265 260.5,258.5C 264.167,258.5 267.833,258.5 271.5,258.5C 288.503,258.667 305.503,258.5 322.5,258C 323.12,255.527 323.786,253.027 324.5,250.5C 327.053,250.055 329.72,250.055 332.5,250.5C 332.833,245.833 333.167,241.167 333.5,236.5 Z"/></g>
<g><path style="opacity:1" fill="#211f1a" d="M 417.5,248.5 C 417.5,253.5 417.5,258.5 417.5,263.5C 412.833,263.5 408.167,263.5 403.5,263.5C 403.5,258.5 403.5,253.5 403.5,248.5C 408.167,248.5 412.833,248.5 417.5,248.5 Z"/></g>
<g><path style="opacity:1" fill="#f5d285" d="M 250.5,252.5 C 253.5,252.5 256.5,252.5 259.5,252.5C 259.5,254.833 259.5,257.167 259.5,259.5C 281.167,259.5 302.833,259.5 324.5,259.5C 303.466,260.342 282.3,261.342 261,262.5C 257.955,260.316 256.789,257.316 257.5,253.5C 254.941,253.802 252.607,253.468 250.5,252.5 Z"/></g>
<g><path style="opacity:1" fill="#311d02" d="M 108.5,259.5 C 108.5,259.167 108.5,258.833 108.5,258.5C 113.5,258.5 118.5,258.5 123.5,258.5C 123.5,263.5 123.5,268.5 123.5,273.5C 123.167,273.5 122.833,273.5 122.5,273.5C 122.5,269.167 122.5,264.833 122.5,260.5C 117.737,260.774 113.07,260.441 108.5,259.5 Z"/></g>
<g><path style="opacity:1" fill="#1f1f1e" d="M 108.5,259.5 C 113.07,260.441 117.737,260.774 122.5,260.5C 122.5,264.833 122.5,269.167 122.5,273.5C 117.833,273.5 113.167,273.5 108.5,273.5C 108.5,268.833 108.5,264.167 108.5,259.5 Z"/></g>
<g><path style="opacity:0.173" fill="#cac9c6" d="M 94.5,258.5 C 99.1667,258.5 103.833,258.5 108.5,258.5C 108.5,258.833 108.5,259.167 108.5,259.5C 108.5,264.167 108.5,268.833 108.5,273.5C 113.167,273.5 117.833,273.5 122.5,273.5C 122.833,273.5 123.167,273.5 123.5,273.5C 123.5,273.833 123.5,274.167 123.5,274.5C 123.5,279.167 123.5,283.833 123.5,288.5C 122.514,284.03 122.181,279.363 122.5,274.5C 117.5,274.5 112.5,274.5 107.5,274.5C 107.5,269.5 107.5,264.5 107.5,259.5C 102.968,259.818 98.6344,259.485 94.5,258.5 Z"/></g>
<g><path style="opacity:1" fill="#8c6f34" d="M 389.5,263.5 C 394.167,263.5 398.833,263.5 403.5,263.5C 403.5,263.833 403.5,264.167 403.5,264.5C 403.5,264.833 403.5,265.167 403.5,265.5C 399.265,264.564 394.931,264.231 390.5,264.5C 390.5,268.833 390.5,273.167 390.5,277.5C 390.167,277.5 389.833,277.5 389.5,277.5C 389.5,272.833 389.5,268.167 389.5,263.5 Z"/></g>
<g><path style="opacity:1" fill="#282722" d="M 403.5,265.5 C 403.824,269.555 403.491,273.555 402.5,277.5C 399.007,278.444 395.34,278.444 391.5,277.5C 391.167,277.5 390.833,277.5 390.5,277.5C 390.5,273.167 390.5,268.833 390.5,264.5C 394.931,264.231 399.265,264.564 403.5,265.5 Z"/></g>
<g><path style="opacity:1" fill="#e3af49" d="M 123.5,258.5 C 124.117,258.611 124.617,258.944 125,259.5C 125.499,263.821 125.666,268.154 125.5,272.5C 130.695,272.179 135.695,272.513 140.5,273.5C 134.833,273.5 129.167,273.5 123.5,273.5C 123.5,268.5 123.5,263.5 123.5,258.5 Z"/></g>
<g><path style="opacity:1" fill="#f6bb55" d="M 389.5,263.5 C 389.5,268.167 389.5,272.833 389.5,277.5C 382.833,277.5 376.167,277.5 369.5,277.5C 375.645,276.51 381.978,276.177 388.5,276.5C 388.182,271.968 388.515,267.634 389.5,263.5 Z"/></g>
<g><path style="opacity:1" fill="#80602b" d="M 123.5,274.5 C 123.5,274.167 123.5,273.833 123.5,273.5C 129.167,273.5 134.833,273.5 140.5,273.5C 140.5,276.167 140.5,278.833 140.5,281.5C 150.167,281.5 159.833,281.5 169.5,281.5C 169.5,281.833 169.5,282.167 169.5,282.5C 159.5,282.5 149.5,282.5 139.5,282.5C 139.5,279.833 139.5,277.167 139.5,274.5C 134.167,274.5 128.833,274.5 123.5,274.5 Z"/></g>
<g><path style="opacity:0.145" fill="#93928f" d="M 389.5,277.5 C 389.833,277.5 390.167,277.5 390.5,277.5C 390.833,277.5 391.167,277.5 391.5,277.5C 390.883,282.269 390.216,286.936 389.5,291.5C 389.5,287.167 389.5,282.833 389.5,278.5C 389.5,278.167 389.5,277.833 389.5,277.5 Z"/></g>
<g><path style="opacity:1" fill="#876a40" d="M 369.5,277.5 C 376.167,277.5 382.833,277.5 389.5,277.5C 389.5,277.833 389.5,278.167 389.5,278.5C 383.167,278.5 376.833,278.5 370.5,278.5C 370.5,282.833 370.5,287.167 370.5,291.5C 376.833,291.5 383.167,291.5 389.5,291.5C 383.355,292.49 377.022,292.823 370.5,292.5C 370.167,292.5 369.833,292.5 369.5,292.5C 362.833,291.833 356.167,291.167 349.5,290.5C 350.167,290.5 350.833,290.5 351.5,290.5C 357.5,290.5 363.5,290.5 369.5,290.5C 369.5,286.167 369.5,281.833 369.5,277.5 Z"/></g>
<g><path style="opacity:1" fill="#22201d" d="M 389.5,278.5 C 389.5,282.833 389.5,287.167 389.5,291.5C 383.167,291.5 376.833,291.5 370.5,291.5C 370.5,287.167 370.5,282.833 370.5,278.5C 376.833,278.5 383.167,278.5 389.5,278.5 Z"/></g>
<g><path style="opacity:1" fill="#f4ae40" d="M 353.5,236.5 C 354.496,250.99 354.829,265.657 354.5,280.5C 348.095,279.406 345.762,282.073 347.5,288.5C 354.175,288.666 360.842,288.5 367.5,288C 368.135,284.397 368.802,280.897 369.5,277.5C 369.5,281.833 369.5,286.167 369.5,290.5C 363.5,290.5 357.5,290.5 351.5,290.5C 350.081,289.549 348.415,289.216 346.5,289.5C 346.5,286.167 346.5,282.833 346.5,279.5C 348.833,279.5 351.167,279.5 353.5,279.5C 353.5,265.167 353.5,250.833 353.5,236.5 Z"/></g>
<g><path style="opacity:1" fill="#db9f44" d="M 169.5,281.5 C 170.482,284.962 170.815,288.629 170.5,292.5C 189.833,292.5 209.167,292.5 228.5,292.5C 228.5,292.833 228.5,293.167 228.5,293.5C 208.833,293.5 189.167,293.5 169.5,293.5C 169.5,289.833 169.5,286.167 169.5,282.5C 169.5,282.167 169.5,281.833 169.5,281.5 Z"/></g>
<g><path style="opacity:1" fill="#f4cf8f" d="M 346.5,291.5 C 346.5,291.833 346.5,292.167 346.5,292.5C 307.337,293.499 268.004,293.832 228.5,293.5C 228.5,293.167 228.5,292.833 228.5,292.5C 229.5,292.5 230.5,292.5 231.5,292.5C 269.906,292.827 308.239,292.494 346.5,291.5 Z"/></g>
<g><path style="opacity:1" fill="#4d3a1c" d="M 346.5,292.5 C 348.379,292.393 348.712,292.893 347.5,294C 288.168,294.5 228.834,294.667 169.5,294.5C 169.5,294.167 169.5,293.833 169.5,293.5C 189.167,293.5 208.833,293.5 228.5,293.5C 268.004,293.832 307.337,293.499 346.5,292.5 Z"/></g>
<g><path style="opacity:1" fill="#252422" d="M 123.5,274.5 C 128.833,274.5 134.167,274.5 139.5,274.5C 139.5,277.167 139.5,279.833 139.5,282.5C 149.5,282.5 159.5,282.5 169.5,282.5C 169.5,286.167 169.5,289.833 169.5,293.5C 160.766,292.865 152.433,293.532 144.5,295.5C 144.5,299.5 144.5,303.5 144.5,307.5C 136.5,307.5 128.5,307.5 120.5,307.5C 120.5,303.5 120.5,299.5 120.5,295.5C 125.833,295.5 131.167,295.5 136.5,295.5C 136.5,293.5 136.5,291.5 136.5,289.5C 131.968,289.818 127.634,289.485 123.5,288.5C 123.5,283.833 123.5,279.167 123.5,274.5 Z"/></g>
<g><path style="opacity:1" fill="#fcf2c5" d="M 192.5,334.5 C 191.833,334.833 191.167,335.167 190.5,335.5C 188.011,335.298 185.677,335.798 183.5,337C 182.333,339.5 180.5,341.333 178,342.5C 177.519,345.477 176.352,348.143 174.5,350.5C 174.233,346.305 173.899,342.138 173.5,338C 169.892,337.974 166.558,337.141 163.5,335.5C 161.714,337.922 160.048,337.922 158.5,335.5C 157.505,340.792 157.172,346.125 157.5,351.5C 152.833,351.5 148.167,351.5 143.5,351.5C 145.814,361.493 142.148,364.826 132.5,361.5C 131.691,359.929 131.357,358.262 131.5,356.5C 128.308,356.595 125.308,355.929 122.5,354.5C 122.682,352.409 122.348,350.409 121.5,348.5C 117.375,345.409 113.209,342.409 109,339.5C 108.233,335.442 108.4,331.442 109.5,327.5C 113.445,326.509 117.445,326.176 121.5,326.5C 121.344,322.418 121.844,318.418 123,314.5C 124.41,313.213 125.91,312.046 127.5,311C 133.373,310.232 139.206,310.399 145,311.5C 146.059,311.37 146.892,310.87 147.5,310C 147.321,305.651 147.321,301.151 147.5,296.5C 152.179,296.334 156.845,296.501 161.5,297C 162.772,299.044 162.439,300.878 160.5,302.5C 160.833,302.833 161.167,303.167 161.5,303.5C 162.761,300.18 164.428,299.846 166.5,302.5C 165.081,305.495 165.581,308.162 168,310.5C 172.346,308.975 177.179,308.309 182.5,308.5C 192.806,305.814 196.806,309.647 194.5,320C 194.703,325.016 194.036,329.849 192.5,334.5 Z"/></g>
<g><path style="opacity:1" fill="#302f29" d="M 169.5,293.5 C 169.5,293.833 169.5,294.167 169.5,294.5C 169.5,298.5 169.5,302.5 169.5,306.5C 178.833,306.5 188.167,306.5 197.5,306.5C 197.034,304.799 197.034,303.299 197.5,302C 200.482,301.502 203.482,301.335 206.5,301.5C 206.167,303.5 205.833,305.5 205.5,307.5C 206.5,307.5 207.5,307.5 208.5,307.5C 208.5,309.833 208.5,312.167 208.5,314.5C 207.732,313.737 207.232,312.737 207,311.5C 206.474,314.272 205.641,316.938 204.5,319.5C 203.833,313.833 203.167,308.167 202.5,302.5C 197.688,312.718 195.355,323.385 195.5,334.5C 195.5,325.5 195.5,316.5 195.5,307.5C 186.5,307.5 177.5,307.5 168.5,307.5C 168.5,303.5 168.5,299.5 168.5,295.5C 160.833,295.5 153.167,295.5 145.5,295.5C 145.167,295.5 144.833,295.5 144.5,295.5C 152.433,293.532 160.766,292.865 169.5,293.5 Z"/></g>
<g><path style="opacity:1" fill="#787466" d="M 144.5,295.5 C 144.833,295.5 145.167,295.5 145.5,295.5C 145.5,299.833 145.5,304.167 145.5,308.5C 137.167,308.5 128.833,308.5 120.5,308.5C 115.833,308.5 111.167,308.5 106.5,308.5C 106.5,308.167 106.5,307.833 106.5,307.5C 111.167,307.5 115.833,307.5 120.5,307.5C 128.5,307.5 136.5,307.5 144.5,307.5C 144.5,303.5 144.5,299.5 144.5,295.5 Z"/></g>
<g><path style="opacity:1" fill="#201f1e" d="M 106.5,308.5 C 111.167,308.5 115.833,308.5 120.5,308.5C 120.5,313.833 120.5,319.167 120.5,324.5C 115.833,324.5 111.167,324.5 106.5,324.5C 106.5,319.167 106.5,313.833 106.5,308.5 Z"/></g>
<g><path style="opacity:1" fill="#f1eacb" d="M 145.5,295.5 C 153.167,295.5 160.833,295.5 168.5,295.5C 168.5,299.5 168.5,303.5 168.5,307.5C 177.5,307.5 186.5,307.5 195.5,307.5C 195.5,316.5 195.5,325.5 195.5,334.5C 194.5,334.5 193.5,334.5 192.5,334.5C 194.036,329.849 194.703,325.016 194.5,320C 196.806,309.647 192.806,305.814 182.5,308.5C 177.179,308.309 172.346,308.975 168,310.5C 165.581,308.162 165.081,305.495 166.5,302.5C 164.428,299.846 162.761,300.18 161.5,303.5C 161.167,303.167 160.833,302.833 160.5,302.5C 162.439,300.878 162.772,299.044 161.5,297C 156.845,296.501 152.179,296.334 147.5,296.5C 147.321,301.151 147.321,305.651 147.5,310C 146.892,310.87 146.059,311.37 145,311.5C 139.206,310.399 133.373,310.232 127.5,311C 125.91,312.046 124.41,313.213 123,314.5C 121.844,318.418 121.344,322.418 121.5,326.5C 117.445,326.176 113.445,326.509 109.5,327.5C 108.4,331.442 108.233,335.442 109,339.5C 113.209,342.409 117.375,345.409 121.5,348.5C 122.348,350.409 122.682,352.409 122.5,354.5C 117.503,349.671 112.336,345.004 107,340.5C 106.501,335.177 106.334,329.844 106.5,324.5C 111.167,324.5 115.833,324.5 120.5,324.5C 120.5,319.167 120.5,313.833 120.5,308.5C 128.833,308.5 137.167,308.5 145.5,308.5C 145.5,304.167 145.5,299.833 145.5,295.5 Z"/></g>
<g><path style="opacity:0.222" fill="#d2cdc8" d="M 106.5,307.5 C 106.5,307.833 106.5,308.167 106.5,308.5C 106.5,313.833 106.5,319.167 106.5,324.5C 101.833,324.5 97.1667,324.5 92.5,324.5C 96.6344,323.515 100.968,323.182 105.5,323.5C 105.179,317.974 105.512,312.64 106.5,307.5 Z"/></g>
<g><path style="opacity:0.283" fill="#aeaeac" d="M 369.5,292.5 C 369.833,292.5 370.167,292.5 370.5,292.5C 370.5,297.167 370.5,301.833 370.5,306.5C 371.5,306.5 372.5,306.5 373.5,306.5C 373.5,309.833 373.5,313.167 373.5,316.5C 387.5,316.5 401.5,316.5 415.5,316.5C 415.5,320.833 415.5,325.167 415.5,329.5C 414.517,325.702 414.183,321.702 414.5,317.5C 400.5,317.5 386.5,317.5 372.5,317.5C 372.5,314.167 372.5,310.833 372.5,307.5C 371.5,307.5 370.5,307.5 369.5,307.5C 369.5,302.5 369.5,297.5 369.5,292.5 Z"/></g>
<g><path style="opacity:1" fill="#6b6a59" d="M 224.5,314.5 C 225.434,315.568 225.768,316.901 225.5,318.5C 230.167,318.5 234.833,318.5 239.5,318.5C 239.5,318.833 239.5,319.167 239.5,319.5C 239.5,323.5 239.5,327.5 239.5,331.5C 238.517,327.702 238.183,323.702 238.5,319.5C 233.833,319.5 229.167,319.5 224.5,319.5C 224.5,317.833 224.5,316.167 224.5,314.5 Z"/></g>
<g><path style="opacity:1" fill="#f3edcd" d="M 208.5,307.5 C 213.833,307.5 219.167,307.5 224.5,307.5C 224.5,309.833 224.5,312.167 224.5,314.5C 224.5,316.167 224.5,317.833 224.5,319.5C 229.167,319.5 233.833,319.5 238.5,319.5C 238.183,323.702 238.517,327.702 239.5,331.5C 244.167,331.5 248.833,331.5 253.5,331.5C 253.179,336.695 253.513,341.695 254.5,346.5C 258.5,346.5 262.5,346.5 266.5,346.5C 266.5,350.167 266.5,353.833 266.5,357.5C 265.504,357.586 264.671,357.252 264,356.5C 263.792,354.141 263.626,351.974 263.5,350C 259.898,348.924 256.231,348.09 252.5,347.5C 251.778,343.153 251.112,338.82 250.5,334.5C 245.423,333.895 240.423,333.062 235.5,332C 238.167,331.333 238.167,330.667 235.5,330C 237.619,327.782 237.952,325.282 236.5,322.5C 231.968,321.86 227.468,321.194 223,320.5C 222.501,316.514 222.334,312.514 222.5,308.5C 218.167,308.5 213.833,308.5 209.5,308.5C 209.212,315.563 209.712,322.563 211,329.5C 211.879,332.346 213.546,333.013 216,331.5C 218.772,336.108 222.605,339.442 227.5,341.5C 232.393,352.899 232.56,364.233 228,375.5C 227.329,374.748 226.496,374.414 225.5,374.5C 234.203,357.394 230.203,344.227 213.5,335C 212.207,334.51 210.873,334.343 209.5,334.5C 208.861,327.852 208.527,321.186 208.5,314.5C 208.5,312.167 208.5,309.833 208.5,307.5 Z"/></g>
<g><path style="opacity:1" fill="#1d1e1c" d="M 239.5,319.5 C 244.167,319.5 248.833,319.5 253.5,319.5C 253.5,323.5 253.5,327.5 253.5,331.5C 248.833,331.5 244.167,331.5 239.5,331.5C 239.5,327.5 239.5,323.5 239.5,319.5 Z"/></g>
<g><path style="opacity:1" fill="#70b2a3" d="M 266.5,341.5 C 266.5,337.833 266.5,334.167 266.5,330.5C 262.5,330.5 258.5,330.5 254.5,330.5C 254.815,326.629 254.482,322.962 253.5,319.5C 248.833,319.5 244.167,319.5 239.5,319.5C 239.5,319.167 239.5,318.833 239.5,318.5C 239.5,314.833 239.5,311.167 239.5,307.5C 250.167,307.5 260.833,307.5 271.5,307.5C 271.5,313.167 271.5,318.833 271.5,324.5C 273.5,324.5 275.5,324.5 277.5,324.5C 277.5,330.5 277.5,336.5 277.5,342.5C 273.629,342.815 269.962,342.482 266.5,341.5 Z"/></g>
<g><path style="opacity:1" fill="#546d64" d="M 253.5,319.5 C 254.482,322.962 254.815,326.629 254.5,330.5C 258.5,330.5 262.5,330.5 266.5,330.5C 266.5,334.167 266.5,337.833 266.5,341.5C 265.521,338.375 265.187,335.042 265.5,331.5C 261.833,331.5 258.167,331.5 254.5,331.5C 254.5,336.5 254.5,341.5 254.5,346.5C 253.513,341.695 253.179,336.695 253.5,331.5C 253.5,327.5 253.5,323.5 253.5,319.5 Z"/></g>
<g><path style="opacity:1" fill="#fcf1c4" d="M 266.5,357.5 C 267.341,359.512 268.841,360.845 271,361.5C 270.891,383.145 271.058,404.812 271.5,426.5C 250.808,426.541 230.141,425.874 209.5,424.5C 207.779,422.306 205.445,421.139 202.5,421C 189.237,419.846 176.237,417.512 163.5,414C 162.809,412.933 162.309,411.766 162,410.5C 159.831,410.289 157.497,410.622 155,411.5C 152.269,410.383 149.435,409.717 146.5,409.5C 146.5,400.5 146.5,391.5 146.5,382.5C 151.099,382.8 155.599,382.467 160,381.5C 160.5,372.84 160.666,364.173 160.5,355.5C 164.064,355.151 167.398,355.817 170.5,357.5C 169.509,359.123 170.176,360.123 172.5,360.5C 173.086,360.291 173.586,359.957 174,359.5C 174.333,363.167 174.667,366.833 175,370.5C 176.766,372.596 178.099,374.929 179,377.5C 182.706,380.511 186.373,383.511 190,386.5C 190.671,385.748 191.504,385.414 192.5,385.5C 206.08,389.196 217.08,385.529 225.5,374.5C 226.496,374.414 227.329,374.748 228,375.5C 232.56,364.233 232.393,352.899 227.5,341.5C 222.605,339.442 218.772,336.108 216,331.5C 213.546,333.013 211.879,332.346 211,329.5C 209.712,322.563 209.212,315.563 209.5,308.5C 213.833,308.5 218.167,308.5 222.5,308.5C 222.334,312.514 222.501,316.514 223,320.5C 227.468,321.194 231.968,321.86 236.5,322.5C 237.952,325.282 237.619,327.782 235.5,330C 238.167,330.667 238.167,331.333 235.5,332C 240.423,333.062 245.423,333.895 250.5,334.5C 251.112,338.82 251.778,343.153 252.5,347.5C 256.231,348.09 259.898,348.924 263.5,350C 263.626,351.974 263.792,354.141 264,356.5C 264.671,357.252 265.504,357.586 266.5,357.5 Z"/></g>
<g><path style="opacity:1" fill="#fda52b" d="M 399.5,363.5 C 398.539,365.265 398.205,367.265 398.5,369.5C 396.616,369.712 395.283,370.712 394.5,372.5C 391.232,373.487 387.898,373.82 384.5,373.5C 384.5,359.833 384.5,346.167 384.5,332.5C 393.833,332.5 403.167,332.5 412.5,332.5C 412.5,342.5 412.5,352.5 412.5,362.5C 407.968,362.182 403.634,362.515 399.5,363.5 Z"/></g>
<g><path style="opacity:0.2" fill="#cac8c7" d="M 92.5,340.5 C 88.7016,341.483 84.7016,341.817 80.5,341.5C 80.5,354.833 80.5,368.167 80.5,381.5C 79.5043,368.01 79.171,354.344 79.5,340.5C 83.8333,340.5 88.1667,340.5 92.5,340.5 Z"/></g>
<g><path style="opacity:1" fill="#eda539" d="M 383.5,331.5 C 393.5,331.5 403.5,331.5 413.5,331.5C 413.5,342.167 413.5,352.833 413.5,363.5C 408.833,363.5 404.167,363.5 399.5,363.5C 403.634,362.515 407.968,362.182 412.5,362.5C 412.5,352.5 412.5,342.5 412.5,332.5C 403.167,332.5 393.833,332.5 384.5,332.5C 384.5,346.167 384.5,359.833 384.5,373.5C 387.898,373.82 391.232,373.487 394.5,372.5C 395.283,370.712 396.616,369.712 398.5,369.5C 398.5,371.167 398.5,372.833 398.5,374.5C 393.5,374.5 388.5,374.5 383.5,374.5C 383.5,360.167 383.5,345.833 383.5,331.5 Z"/></g>
<g><path style="opacity:0.12" fill="#bbbaba" d="M 414.5,364.5 C 419.167,364.5 423.833,364.5 428.5,364.5C 424.366,365.485 420.032,365.818 415.5,365.5C 415.815,369.371 415.482,373.038 414.5,376.5C 414.5,372.5 414.5,368.5 414.5,364.5 Z"/></g>
<g><path style="opacity:1" fill="#211e1c" d="M 399.5,364.5 C 404.5,364.5 409.5,364.5 414.5,364.5C 414.5,368.5 414.5,372.5 414.5,376.5C 409.5,376.5 404.5,376.5 399.5,376.5C 399.5,376.167 399.5,375.833 399.5,375.5C 399.5,371.833 399.5,368.167 399.5,364.5 Z"/></g>
<g><path style="opacity:1" fill="#22221f" d="M 208.5,314.5 C 208.527,321.186 208.861,327.852 209.5,334.5C 210.873,334.343 212.207,334.51 213.5,335C 230.203,344.227 234.203,357.394 225.5,374.5C 217.08,385.529 206.08,389.196 192.5,385.5C 176.332,375.762 172.165,362.095 180,344.5C 183.103,340.886 186.603,337.886 190.5,335.5C 191.167,335.167 191.833,334.833 192.5,334.5C 193.5,334.5 194.5,334.5 195.5,334.5C 195.355,323.385 197.688,312.718 202.5,302.5C 203.167,308.167 203.833,313.833 204.5,319.5C 205.641,316.938 206.474,314.272 207,311.5C 207.232,312.737 207.732,313.737 208.5,314.5 Z"/></g>
<g><path style="opacity:1" fill="#cb9946" d="M 383.5,331.5 C 383.5,345.833 383.5,360.167 383.5,374.5C 388.5,374.5 393.5,374.5 398.5,374.5C 398.5,372.833 398.5,371.167 398.5,369.5C 398.205,367.265 398.539,365.265 399.5,363.5C 399.5,363.833 399.5,364.167 399.5,364.5C 399.5,368.167 399.5,371.833 399.5,375.5C 393.833,375.5 388.167,375.5 382.5,375.5C 382.5,370.833 382.5,366.167 382.5,361.5C 382.173,351.319 382.506,341.319 383.5,331.5 Z"/></g>
<g><path style="opacity:1" fill="#51390e" d="M 382.5,361.5 C 382.5,366.167 382.5,370.833 382.5,375.5C 388.167,375.5 393.833,375.5 399.5,375.5C 399.5,375.833 399.5,376.167 399.5,376.5C 393.5,376.5 387.5,376.5 381.5,376.5C 381.179,371.305 381.513,366.305 382.5,361.5 Z"/></g>
<g><path style="opacity:0.592" fill="#6f6f6e" d="M 92.5,392.5 C 92.8333,392.5 93.1667,392.5 93.5,392.5C 97.8333,392.5 102.167,392.5 106.5,392.5C 106.5,395.833 106.5,399.167 106.5,402.5C 115.167,402.5 123.833,402.5 132.5,402.5C 132.81,405.713 132.477,408.713 131.5,411.5C 131.5,408.833 131.5,406.167 131.5,403.5C 122.833,403.5 114.167,403.5 105.5,403.5C 105.5,400.167 105.5,396.833 105.5,393.5C 100.968,393.818 96.6344,393.485 92.5,392.5 Z"/></g>
<g><path style="opacity:0.214" fill="#acaca8" d="M 117.5,411.5 C 117.5,415.167 117.5,418.833 117.5,422.5C 112.5,422.5 107.5,422.5 102.5,422.5C 106.97,421.514 111.637,421.181 116.5,421.5C 116.187,417.958 116.521,414.625 117.5,411.5 Z"/></g>
<g><path style="opacity:0.369" fill="#868684" d="M 369.5,426.5 C 365.366,427.485 361.032,427.818 356.5,427.5C 356.5,431.5 356.5,435.5 356.5,439.5C 355.167,439.5 353.833,439.5 352.5,439.5C 352.5,443.167 352.5,446.833 352.5,450.5C 351.517,446.702 351.183,442.702 351.5,438.5C 352.833,438.5 354.167,438.5 355.5,438.5C 355.5,434.5 355.5,430.5 355.5,426.5C 360.167,426.5 364.833,426.5 369.5,426.5 Z"/></g>
<g><path style="opacity:1" fill="#222220" d="M 349.5,290.5 C 356.167,291.167 362.833,291.833 369.5,292.5C 369.5,297.5 369.5,302.5 369.5,307.5C 370.5,307.5 371.5,307.5 372.5,307.5C 372.5,310.833 372.5,314.167 372.5,317.5C 386.5,317.5 400.5,317.5 414.5,317.5C 414.183,321.702 414.517,325.702 415.5,329.5C 420.167,329.5 424.833,329.5 429.5,329.5C 429.828,341.345 429.495,353.012 428.5,364.5C 423.833,364.5 419.167,364.5 414.5,364.5C 414.5,353.167 414.5,341.833 414.5,330.5C 403.986,330.172 393.653,330.506 383.5,331.5C 382.506,341.319 382.173,351.319 382.5,361.5C 381.513,366.305 381.179,371.305 381.5,376.5C 387.5,376.5 393.5,376.5 399.5,376.5C 400.436,380.735 400.769,385.069 400.5,389.5C 393.833,389.5 387.167,389.5 380.5,389.5C 380.5,393.833 380.5,398.167 380.5,402.5C 376.833,402.5 373.167,402.5 369.5,402.5C 369.5,410.5 369.5,418.5 369.5,426.5C 364.833,426.5 360.167,426.5 355.5,426.5C 355.5,430.5 355.5,434.5 355.5,438.5C 354.167,438.5 352.833,438.5 351.5,438.5C 351.183,442.702 351.517,446.702 352.5,450.5C 354.5,450.5 356.5,450.5 358.5,450.5C 361.167,450.5 363.833,450.5 366.5,450.5C 366.5,453.833 366.5,457.167 366.5,460.5C 368.167,460.5 369.833,460.5 371.5,460.5C 371.833,460.5 372.167,460.5 372.5,460.5C 373.568,461.434 374.901,461.768 376.5,461.5C 376.5,465.5 376.5,469.5 376.5,473.5C 373.5,473.5 370.5,473.5 367.5,473.5C 366.521,476.625 366.187,479.958 366.5,483.5C 361.833,483.5 357.167,483.5 352.5,483.5C 352.784,485.415 352.451,487.081 351.5,488.5C 348.167,488.5 344.833,488.5 341.5,488.5C 341.784,491.777 341.451,494.943 340.5,498C 328.171,498.5 315.838,498.667 303.5,498.5C 303.5,494.833 303.5,491.167 303.5,487.5C 299.167,487.5 294.833,487.5 290.5,487.5C 290.5,482.833 290.5,478.167 290.5,473.5C 289.5,473.5 288.5,473.5 287.5,473.5C 284.833,473.5 282.167,473.5 279.5,473.5C 279.795,471.265 279.461,469.265 278.5,467.5C 274.366,466.515 270.032,466.182 265.5,466.5C 265.802,463.941 265.468,461.607 264.5,459.5C 258.167,459.5 251.833,459.5 245.5,459.5C 231.5,459.5 217.5,459.5 203.5,459.5C 203.5,456.5 203.5,453.5 203.5,450.5C 228.5,450.5 253.5,450.5 278.5,450.5C 278.19,453.713 278.523,456.713 279.5,459.5C 283.634,460.485 287.968,460.818 292.5,460.5C 292.182,465.032 292.515,469.366 293.5,473.5C 297.167,473.5 300.833,473.5 304.5,473.5C 304.5,476.833 304.5,480.167 304.5,483.5C 316.5,483.5 328.5,483.5 340.5,483.5C 340.5,479.833 340.5,476.167 340.5,472.5C 344.833,472.5 349.167,472.5 353.5,472.5C 354.647,468.354 354.814,464.02 354,459.5C 349.599,458.533 345.099,458.2 340.5,458.5C 340.666,451.492 340.5,444.492 340,437.5C 335.55,436.2 331.05,436.2 326.5,437.5C 326.137,438.183 325.804,438.85 325.5,439.5C 321.833,439.5 318.167,439.5 314.5,439.5C 286.005,438.502 257.338,438.169 228.5,438.5C 226.833,438.5 225.167,438.5 223.5,438.5C 207.8,435.539 191.8,432.872 175.5,430.5C 169.916,428.878 164.249,427.545 158.5,426.5C 157.566,427.568 157.232,428.901 157.5,430.5C 153.833,430.5 150.167,430.5 146.5,430.5C 146.784,427.223 146.451,424.057 145.5,421C 143.167,420.833 140.833,420.667 138.5,420.5C 135.731,420.529 133.397,421.195 131.5,422.5C 130.527,424.948 130.194,427.615 130.5,430.5C 125.056,429.892 120.056,430.558 115.5,432.5C 114.236,437.722 113.569,443.055 113.5,448.5C 111.713,454.281 110.379,460.281 109.5,466.5C 109.559,468.722 110.725,469.722 113,469.5C 117.508,468.87 122.008,468.203 126.5,467.5C 127.416,467.543 128.083,467.876 128.5,468.5C 126.589,468.574 125.422,469.574 125,471.5C 124.39,474.827 123.89,478.161 123.5,481.5C 118.673,481.779 114.007,481.113 109.5,479.5C 108.631,477.283 108.298,474.95 108.5,472.5C 108.03,471.307 107.03,470.64 105.5,470.5C 101.903,469.411 98.2366,468.745 94.5,468.5C 94.5,466.833 94.5,465.167 94.5,463.5C 96.1628,461.562 96.8294,459.228 96.5,456.5C 96.7054,451.728 97.3721,447.062 98.5,442.5C 101.593,439.83 102.26,436.496 100.5,432.5C 101.01,429.017 101.677,425.684 102.5,422.5C 107.5,422.5 112.5,422.5 117.5,422.5C 117.5,418.833 117.5,415.167 117.5,411.5C 122.167,411.5 126.833,411.5 131.5,411.5C 132.477,408.713 132.81,405.713 132.5,402.5C 123.833,402.5 115.167,402.5 106.5,402.5C 106.5,399.167 106.5,395.833 106.5,392.5C 113.755,392.813 120.921,392.48 128,391.5C 128.831,384.808 128.664,378.142 127.5,371.5C 126.583,370.873 125.583,370.539 124.5,370.5C 124.167,370.5 123.833,370.5 123.5,370.5C 120.457,366.456 116.791,363.123 112.5,360.5C 107.893,353.993 101.56,351.66 93.5,353.5C 93.5,362.167 93.5,370.833 93.5,379.5C 97.1235,380.324 100.79,381.324 104.5,382.5C 104.5,384.833 104.5,387.167 104.5,389.5C 102.8,389.626 101.3,390.293 100,391.5C 99.5,391.333 99,391.167 98.5,391C 100.369,385.994 99.2028,385.161 95,388.5C 94.6667,387.833 94.3333,387.167 94,386.5C 93.5045,388.473 93.3379,390.473 93.5,392.5C 93.1667,392.5 92.8333,392.5 92.5,392.5C 92.5,388.833 92.5,385.167 92.5,381.5C 88.5,381.5 84.5,381.5 80.5,381.5C 80.5,368.167 80.5,354.833 80.5,341.5C 84.7016,341.817 88.7016,341.483 92.5,340.5C 92.5,335.167 92.5,329.833 92.5,324.5C 97.1667,324.5 101.833,324.5 106.5,324.5C 106.334,329.844 106.501,335.177 107,340.5C 112.336,345.004 117.503,349.671 122.5,354.5C 125.938,357.435 129.271,360.601 132.5,364C 136.486,364.499 140.486,364.666 144.5,364.5C 144.5,360.5 144.5,356.5 144.5,352.5C 149.167,352.5 153.833,352.5 158.5,352.5C 158.5,352.833 158.5,353.167 158.5,353.5C 158.5,362.5 158.5,371.5 158.5,380.5C 154.167,380.5 149.833,380.5 145.5,380.5C 145.5,390.5 145.5,400.5 145.5,410.5C 166.324,417.44 187.657,422.107 209.5,424.5C 230.531,428.098 251.864,429.432 273.5,428.5C 273.5,404.833 273.5,381.167 273.5,357.5C 271.167,357.5 268.833,357.5 266.5,357.5C 266.5,353.833 266.5,350.167 266.5,346.5C 262.5,346.5 258.5,346.5 254.5,346.5C 254.5,341.5 254.5,336.5 254.5,331.5C 258.167,331.5 261.833,331.5 265.5,331.5C 265.187,335.042 265.521,338.375 266.5,341.5C 269.962,342.482 273.629,342.815 277.5,342.5C 277.5,336.5 277.5,330.5 277.5,324.5C 275.5,324.5 273.5,324.5 271.5,324.5C 271.5,318.833 271.5,313.167 271.5,307.5C 260.833,307.5 250.167,307.5 239.5,307.5C 239.5,311.167 239.5,314.833 239.5,318.5C 234.833,318.5 230.167,318.5 225.5,318.5C 225.768,316.901 225.434,315.568 224.5,314.5C 224.5,312.167 224.5,309.833 224.5,307.5C 219.167,307.5 213.833,307.5 208.5,307.5C 207.5,307.5 206.5,307.5 205.5,307.5C 205.833,305.5 206.167,303.5 206.5,301.5C 203.482,301.335 200.482,301.502 197.5,302C 197.034,303.299 197.034,304.799 197.5,306.5C 188.167,306.5 178.833,306.5 169.5,306.5C 169.5,302.5 169.5,298.5 169.5,294.5C 228.834,294.667 288.168,294.5 347.5,294C 348.712,292.893 348.379,292.393 346.5,292.5C 346.5,292.167 346.5,291.833 346.5,291.5C 347.209,290.596 348.209,290.263 349.5,290.5 Z"/></g>
<g><path style="opacity:1" fill="#7d5713" d="M 144.5,422.5 C 145.477,425.287 145.81,428.287 145.5,431.5C 149.833,431.5 154.167,431.5 158.5,431.5C 154.03,432.486 149.363,432.819 144.5,432.5C 144.5,429.167 144.5,425.833 144.5,422.5 Z"/></g>
<g><path style="opacity:1" fill="#382608" d="M 131.5,422.5 C 131.5,425.833 131.5,429.167 131.5,432.5C 126.167,432.5 120.833,432.5 115.5,432.5C 120.056,430.558 125.056,429.892 130.5,430.5C 130.194,427.615 130.527,424.948 131.5,422.5 Z"/></g>
<g><path style="opacity:1" fill="#e0a443" d="M 131.5,422.5 C 135.833,422.5 140.167,422.5 144.5,422.5C 144.5,425.833 144.5,429.167 144.5,432.5C 149.363,432.819 154.03,432.486 158.5,431.5C 158.5,429.833 158.5,428.167 158.5,426.5C 164.249,427.545 169.916,428.878 175.5,430.5C 180.732,432.26 186.065,433.594 191.5,434.5C 182.467,433.966 173.634,432.632 165,430.5C 163.5,430.667 162,430.833 160.5,431C 160.043,431.414 159.709,431.914 159.5,432.5C 154.208,433.495 148.875,433.828 143.5,433.5C 143.784,430.223 143.451,427.057 142.5,424C 139.183,423.502 135.85,423.335 132.5,423.5C 132.81,426.713 132.477,429.713 131.5,432.5C 131.5,429.167 131.5,425.833 131.5,422.5 Z"/></g>
<g><path style="opacity:1" fill="#f0eaca" d="M 266.5,357.5 C 268.833,357.5 271.167,357.5 273.5,357.5C 273.5,381.167 273.5,404.833 273.5,428.5C 251.864,429.432 230.531,428.098 209.5,424.5C 230.141,425.874 250.808,426.541 271.5,426.5C 271.058,404.812 270.891,383.145 271,361.5C 268.841,360.845 267.341,359.512 266.5,357.5 Z"/></g>
<g><path style="opacity:1" fill="#3d2a0f" d="M 158.5,426.5 C 158.5,428.167 158.5,429.833 158.5,431.5C 154.167,431.5 149.833,431.5 145.5,431.5C 145.81,428.287 145.477,425.287 144.5,422.5C 140.167,422.5 135.833,422.5 131.5,422.5C 133.397,421.195 135.731,420.529 138.5,420.5C 140.833,420.667 143.167,420.833 145.5,421C 146.451,424.057 146.784,427.223 146.5,430.5C 150.167,430.5 153.833,430.5 157.5,430.5C 157.232,428.901 157.566,427.568 158.5,426.5 Z"/></g>
<g><path style="opacity:1" fill="#918a77" d="M 289.5,405.5 C 293.298,404.517 297.298,404.183 301.5,404.5C 301.817,408.702 301.483,412.702 300.5,416.5C 300.5,412.833 300.5,409.167 300.5,405.5C 296.833,405.5 293.167,405.5 289.5,405.5 Z"/></g>
<g><path style="opacity:1" fill="#26241f" d="M 289.5,405.5 C 293.167,405.5 296.833,405.5 300.5,405.5C 300.5,409.167 300.5,412.833 300.5,416.5C 300.5,417.167 300.5,417.833 300.5,418.5C 296.833,418.5 293.167,418.5 289.5,418.5C 289.5,414.167 289.5,409.833 289.5,405.5 Z"/></g>
<g><path style="opacity:1" fill="#f3ebc7" d="M 304.5,346.5 C 304.833,346.5 305.167,346.5 305.5,346.5C 305.539,347.756 305.039,348.756 304,349.5C 302.506,348.253 301.006,348.253 299.5,349.5C 299.217,358.458 294.883,361.458 286.5,358.5C 286.5,364.167 286.5,369.833 286.5,375.5C 287.5,375.5 288.5,375.5 289.5,375.5C 289.5,379.833 289.5,384.167 289.5,388.5C 288.5,388.5 287.5,388.5 286.5,388.5C 286.338,390.527 286.505,392.527 287,394.5C 287.333,394.167 287.667,393.833 288,393.5C 288.822,395.788 289.489,398.122 290,400.5C 290.689,401.357 291.522,402.023 292.5,402.5C 295.205,401.871 297.872,401.537 300.5,401.5C 301.386,402.325 301.719,403.325 301.5,404.5C 297.298,404.183 293.298,404.517 289.5,405.5C 289.5,409.833 289.5,414.167 289.5,418.5C 293.167,418.5 296.833,418.5 300.5,418.5C 300.196,419.15 299.863,419.817 299.5,420.5C 300.552,422.43 301.886,423.93 303.5,425C 313.246,424.889 323.246,425.056 333.5,425.5C 333.5,425.833 333.5,426.167 333.5,426.5C 317.557,428.224 301.557,428.891 285.5,428.5C 285.5,404.833 285.5,381.167 285.5,357.5C 288.833,357.5 292.167,357.5 295.5,357.5C 295.5,353.833 295.5,350.167 295.5,346.5C 298.5,346.5 301.5,346.5 304.5,346.5 Z"/></g>
<g><path style="opacity:1" fill="#dea941" d="M 123.5,370.5 C 123.833,370.5 124.167,370.5 124.5,370.5C 124.811,371.478 125.478,372.145 126.5,372.5C 127.817,378.654 127.817,384.654 126.5,390.5C 120.167,390.5 113.833,390.5 107.5,390.5C 107.5,387.167 107.5,383.833 107.5,380.5C 108.477,383.287 108.81,386.287 108.5,389.5C 114.29,389.904 119.956,389.404 125.5,388C 125.429,383.283 125.262,378.45 125,373.5C 123.961,372.756 123.461,371.756 123.5,370.5 Z"/></g>
<g><path style="opacity:1" fill="#272013" d="M 124.5,370.5 C 125.583,370.539 126.583,370.873 127.5,371.5C 128.664,378.142 128.831,384.808 128,391.5C 120.921,392.48 113.755,392.813 106.5,392.5C 102.167,392.5 97.8333,392.5 93.5,392.5C 93.3379,390.473 93.5045,388.473 94,386.5C 94.3333,387.167 94.6667,387.833 95,388.5C 99.2028,385.161 100.369,385.994 98.5,391C 99,391.167 99.5,391.333 100,391.5C 101.3,390.293 102.8,389.626 104.5,389.5C 104.5,387.167 104.5,384.833 104.5,382.5C 100.79,381.324 97.1235,380.324 93.5,379.5C 97.8333,379.5 102.167,379.5 106.5,379.5C 106.5,383.5 106.5,387.5 106.5,391.5C 113.354,391.824 120.021,391.491 126.5,390.5C 127.817,384.654 127.817,378.654 126.5,372.5C 125.478,372.145 124.811,371.478 124.5,370.5 Z"/></g>
<g><path style="opacity:1" fill="#93732b" d="M 106.5,379.5 C 107.167,379.5 107.5,379.833 107.5,380.5C 107.5,383.833 107.5,387.167 107.5,390.5C 113.833,390.5 120.167,390.5 126.5,390.5C 120.021,391.491 113.354,391.824 106.5,391.5C 106.5,387.5 106.5,383.5 106.5,379.5 Z"/></g>
<g><path style="opacity:1" fill="#eae4c6" d="M 358.5,319.5 C 361.5,319.5 364.5,319.5 367.5,319.5C 367.5,346.833 367.5,374.167 367.5,401.5C 363.5,401.5 359.5,401.5 355.5,401.5C 355.5,409.167 355.5,416.833 355.5,424.5C 348.24,425.813 340.907,426.479 333.5,426.5C 333.5,426.167 333.5,425.833 333.5,425.5C 338.928,423.818 344.595,422.985 350.5,423C 351.025,422.308 351.692,421.808 352.5,421.5C 353.44,414.491 354.44,407.491 355.5,400.5C 358.24,398.625 361.073,397.958 364,398.5C 366.185,372.549 367.018,346.549 366.5,320.5C 363.615,320.806 360.948,320.473 358.5,319.5 Z"/></g>
<g><path style="opacity:1" fill="#2a2621" d="M 289.5,375.5 C 293.167,375.5 296.833,375.5 300.5,375.5C 300.666,379.514 300.499,383.514 300,387.5C 296.606,388.456 293.106,388.789 289.5,388.5C 289.5,384.167 289.5,379.833 289.5,375.5 Z"/></g>
<g><path style="opacity:1" fill="#fca52b" d="M 112.5,360.5 C 116.791,363.123 120.457,366.456 123.5,370.5C 123.461,371.756 123.961,372.756 125,373.5C 125.262,378.45 125.429,383.283 125.5,388C 119.956,389.404 114.29,389.904 108.5,389.5C 108.81,386.287 108.477,383.287 107.5,380.5C 107.5,379.833 107.167,379.5 106.5,379.5C 102.702,378.517 98.7016,378.183 94.5,378.5C 94.3337,371.159 94.5003,363.826 95,356.5C 98.4085,355.378 101.909,355.211 105.5,356C 107.174,358.505 109.507,360.005 112.5,360.5 Z"/></g>
<g><path style="opacity:1" fill="#d8a043" d="M 112.5,360.5 C 109.507,360.005 107.174,358.505 105.5,356C 101.909,355.211 98.4085,355.378 95,356.5C 94.5003,363.826 94.3337,371.159 94.5,378.5C 98.7016,378.183 102.702,378.517 106.5,379.5C 102.167,379.5 97.8333,379.5 93.5,379.5C 93.5,370.833 93.5,362.167 93.5,353.5C 101.56,351.66 107.893,353.993 112.5,360.5 Z"/></g>
<g><path style="opacity:1" fill="#fbf1c5" d="M 332.5,307.5 C 334.5,307.5 336.5,307.5 338.5,307.5C 338.5,316.833 338.5,326.167 338.5,335.5C 334.167,335.5 329.833,335.5 325.5,335.5C 325.5,341.167 325.5,346.833 325.5,352.5C 320.786,352.173 316.12,352.507 311.5,353.5C 310.18,361.03 310.18,368.53 311.5,376C 315.821,376.499 320.154,376.666 324.5,376.5C 324.334,380.846 324.501,385.179 325,389.5C 325.374,390.416 325.874,391.25 326.5,392C 335.359,391.9 344.025,392.734 352.5,394.5C 353.712,392.153 354.379,389.653 354.5,387C 353.837,383.527 353.504,380.027 353.5,376.5C 356.385,376.806 359.052,376.473 361.5,375.5C 361.5,368.167 361.5,360.833 361.5,353.5C 358.167,353.5 354.833,353.5 351.5,353.5C 351.5,352.167 351.5,350.833 351.5,349.5C 351.5,335.5 351.5,321.5 351.5,307.5C 353.5,307.5 355.5,307.5 357.5,307.5C 357.183,311.702 357.517,315.702 358.5,319.5C 360.948,320.473 363.615,320.806 366.5,320.5C 367.018,346.549 366.185,372.549 364,398.5C 361.073,397.958 358.24,398.625 355.5,400.5C 354.44,407.491 353.44,414.491 352.5,421.5C 351.692,421.808 351.025,422.308 350.5,423C 344.595,422.985 338.928,423.818 333.5,425.5C 323.246,425.056 313.246,424.889 303.5,425C 301.886,423.93 300.552,422.43 299.5,420.5C 299.863,419.817 300.196,419.15 300.5,418.5C 300.5,417.833 300.5,417.167 300.5,416.5C 301.483,412.702 301.817,408.702 301.5,404.5C 301.719,403.325 301.386,402.325 300.5,401.5C 297.872,401.537 295.205,401.871 292.5,402.5C 291.522,402.023 290.689,401.357 290,400.5C 289.489,398.122 288.822,395.788 288,393.5C 287.667,393.833 287.333,394.167 287,394.5C 286.505,392.527 286.338,390.527 286.5,388.5C 287.5,388.5 288.5,388.5 289.5,388.5C 293.106,388.789 296.606,388.456 300,387.5C 300.499,383.514 300.666,379.514 300.5,375.5C 296.833,375.5 293.167,375.5 289.5,375.5C 288.5,375.5 287.5,375.5 286.5,375.5C 286.5,369.833 286.5,364.167 286.5,358.5C 294.883,361.458 299.217,358.458 299.5,349.5C 301.006,348.253 302.506,348.253 304,349.5C 305.039,348.756 305.539,347.756 305.5,346.5C 305.5,341.833 305.5,337.167 305.5,332.5C 309.371,332.815 313.038,332.482 316.5,331.5C 317.483,327.702 317.817,323.702 317.5,319.5C 322.5,319.5 327.5,319.5 332.5,319.5C 332.5,315.5 332.5,311.5 332.5,307.5 Z"/></g>
<g><path style="opacity:1" fill="#e9f7d5" d="M 338.5,335.5 C 334.702,336.483 330.702,336.817 326.5,336.5C 326.5,342.167 326.5,347.833 326.5,353.5C 321.833,353.5 317.167,353.5 312.5,353.5C 312.5,360.833 312.5,368.167 312.5,375.5C 317.167,375.5 321.833,375.5 326.5,375.5C 326.5,380.5 326.5,385.5 326.5,390.5C 335.167,390.5 343.833,390.5 352.5,390.5C 352.5,385.5 352.5,380.5 352.5,375.5C 355.5,375.5 358.5,375.5 361.5,375.5C 359.052,376.473 356.385,376.806 353.5,376.5C 353.504,380.027 353.837,383.527 354.5,387C 354.379,389.653 353.712,392.153 352.5,394.5C 344.025,392.734 335.359,391.9 326.5,392C 325.874,391.25 325.374,390.416 325,389.5C 324.501,385.179 324.334,380.846 324.5,376.5C 320.154,376.666 315.821,376.499 311.5,376C 310.18,368.53 310.18,361.03 311.5,353.5C 316.12,352.507 320.786,352.173 325.5,352.5C 325.5,346.833 325.5,341.167 325.5,335.5C 329.833,335.5 334.167,335.5 338.5,335.5 Z"/></g>
<g><path style="opacity:1" fill="#e8e2c2" d="M 190.5,335.5 C 186.603,337.886 183.103,340.886 180,344.5C 172.165,362.095 176.332,375.762 192.5,385.5C 191.504,385.414 190.671,385.748 190,386.5C 186.373,383.511 182.706,380.511 179,377.5C 178.099,374.929 176.766,372.596 175,370.5C 174.667,366.833 174.333,363.167 174,359.5C 173.586,359.957 173.086,360.291 172.5,360.5C 170.176,360.123 169.509,359.123 170.5,357.5C 167.398,355.817 164.064,355.151 160.5,355.5C 160.666,364.173 160.5,372.84 160,381.5C 155.599,382.467 151.099,382.8 146.5,382.5C 146.5,391.5 146.5,400.5 146.5,409.5C 149.435,409.717 152.269,410.383 155,411.5C 157.497,410.622 159.831,410.289 162,410.5C 162.309,411.766 162.809,412.933 163.5,414C 176.237,417.512 189.237,419.846 202.5,421C 205.445,421.139 207.779,422.306 209.5,424.5C 187.657,422.107 166.324,417.44 145.5,410.5C 145.5,400.5 145.5,390.5 145.5,380.5C 149.833,380.5 154.167,380.5 158.5,380.5C 158.5,371.5 158.5,362.5 158.5,353.5C 163.167,353.5 167.833,353.5 172.5,353.5C 172.5,348.833 172.5,344.167 172.5,339.5C 167.637,339.181 162.97,339.514 158.5,340.5C 158.5,344.5 158.5,348.5 158.5,352.5C 153.833,352.5 149.167,352.5 144.5,352.5C 144.5,356.5 144.5,360.5 144.5,364.5C 140.486,364.666 136.486,364.499 132.5,364C 129.271,360.601 125.938,357.435 122.5,354.5C 125.308,355.929 128.308,356.595 131.5,356.5C 131.357,358.262 131.691,359.929 132.5,361.5C 142.148,364.826 145.814,361.493 143.5,351.5C 148.167,351.5 152.833,351.5 157.5,351.5C 157.172,346.125 157.505,340.792 158.5,335.5C 160.048,337.922 161.714,337.922 163.5,335.5C 166.558,337.141 169.892,337.974 173.5,338C 173.899,342.138 174.233,346.305 174.5,350.5C 176.352,348.143 177.519,345.477 178,342.5C 180.5,341.333 182.333,339.5 183.5,337C 185.677,335.798 188.011,335.298 190.5,335.5 Z"/></g>
<g><path style="opacity:1" fill="#70b4a3" d="M 338.5,335.5 C 338.833,335.5 339.167,335.5 339.5,335.5C 339.5,340.167 339.5,344.833 339.5,349.5C 343.5,349.5 347.5,349.5 351.5,349.5C 351.5,350.833 351.5,352.167 351.5,353.5C 354.833,353.5 358.167,353.5 361.5,353.5C 361.5,360.833 361.5,368.167 361.5,375.5C 358.5,375.5 355.5,375.5 352.5,375.5C 352.5,380.5 352.5,385.5 352.5,390.5C 343.833,390.5 335.167,390.5 326.5,390.5C 326.5,385.5 326.5,380.5 326.5,375.5C 321.833,375.5 317.167,375.5 312.5,375.5C 312.5,368.167 312.5,360.833 312.5,353.5C 317.167,353.5 321.833,353.5 326.5,353.5C 326.5,347.833 326.5,342.167 326.5,336.5C 330.702,336.817 334.702,336.483 338.5,335.5 Z"/></g>
<g><path style="opacity:1" fill="#23221f" d="M 158.5,340.5 C 162.833,340.5 167.167,340.5 171.5,340.5C 171.5,344.5 171.5,348.5 171.5,352.5C 167.167,352.5 162.833,352.5 158.5,352.5C 158.5,348.5 158.5,344.5 158.5,340.5 Z"/></g>
<g><path style="opacity:1" fill="#faf0c7" d="M 197.5,347.5 C 210.821,345.656 216.655,351.323 215,364.5C 208.078,374.221 200.412,374.887 192,366.5C 188.772,358.559 190.605,352.226 197.5,347.5 Z"/></g>
<g><path style="opacity:1" fill="#bd964b" d="M 383.5,331.5 C 393.653,330.506 403.986,330.172 414.5,330.5C 414.5,341.833 414.5,353.167 414.5,364.5C 409.5,364.5 404.5,364.5 399.5,364.5C 399.5,364.167 399.5,363.833 399.5,363.5C 404.167,363.5 408.833,363.5 413.5,363.5C 413.5,352.833 413.5,342.167 413.5,331.5C 403.5,331.5 393.5,331.5 383.5,331.5 Z"/></g>
<g><path style="opacity:1" fill="#635f51" d="M 158.5,340.5 C 162.97,339.514 167.637,339.181 172.5,339.5C 172.5,344.167 172.5,348.833 172.5,353.5C 167.833,353.5 163.167,353.5 158.5,353.5C 158.5,353.167 158.5,352.833 158.5,352.5C 162.833,352.5 167.167,352.5 171.5,352.5C 171.5,348.5 171.5,344.5 171.5,340.5C 167.167,340.5 162.833,340.5 158.5,340.5 Z"/></g>
<g><path style="opacity:1" fill="#1e201c" d="M 305.5,319.5 C 309.167,319.5 312.833,319.5 316.5,319.5C 316.5,323.5 316.5,327.5 316.5,331.5C 312.833,331.5 309.167,331.5 305.5,331.5C 305.5,327.5 305.5,323.5 305.5,319.5 Z"/></g>
<g><path style="opacity:1" fill="#546458" d="M 305.5,319.5 C 305.5,323.5 305.5,327.5 305.5,331.5C 309.167,331.5 312.833,331.5 316.5,331.5C 313.038,332.482 309.371,332.815 305.5,332.5C 305.5,337.167 305.5,341.833 305.5,346.5C 305.167,346.5 304.833,346.5 304.5,346.5C 304.5,341.833 304.5,337.167 304.5,332.5C 302.833,332.5 301.167,332.5 299.5,332.5C 300.919,331.549 302.585,331.216 304.5,331.5C 304.183,327.298 304.517,323.298 305.5,319.5 Z"/></g>
<g><path style="opacity:1" fill="#5c584a" d="M 357.5,307.5 C 358.482,310.962 358.815,314.629 358.5,318.5C 361.713,318.19 364.713,318.523 367.5,319.5C 364.5,319.5 361.5,319.5 358.5,319.5C 357.517,315.702 357.183,311.702 357.5,307.5 Z"/></g>
<g><path style="opacity:1" fill="#6f6c5a" d="M 332.5,307.5 C 332.5,311.5 332.5,315.5 332.5,319.5C 327.5,319.5 322.5,319.5 317.5,319.5C 317.817,323.702 317.483,327.702 316.5,331.5C 316.5,327.5 316.5,323.5 316.5,319.5C 316.5,319.167 316.5,318.833 316.5,318.5C 321.5,318.5 326.5,318.5 331.5,318.5C 331.185,314.629 331.518,310.962 332.5,307.5 Z"/></g>
<g><path style="opacity:1" fill="#6f6a53" d="M 332.5,307.5 C 334.607,306.532 336.941,306.198 339.5,306.5C 339.5,316.167 339.5,325.833 339.5,335.5C 339.167,335.5 338.833,335.5 338.5,335.5C 338.5,326.167 338.5,316.833 338.5,307.5C 336.5,307.5 334.5,307.5 332.5,307.5 Z"/></g>
<g><path style="opacity:1" fill="#70b2a4" d="M 316.5,318.5 C 316.5,318.833 316.5,319.167 316.5,319.5C 312.833,319.5 309.167,319.5 305.5,319.5C 304.517,323.298 304.183,327.298 304.5,331.5C 302.585,331.216 300.919,331.549 299.5,332.5C 298.167,332.5 296.833,332.5 295.5,332.5C 295.5,335.833 295.5,339.167 295.5,342.5C 293.5,342.5 291.5,342.5 289.5,342.5C 289.5,336.5 289.5,330.5 289.5,324.5C 291.5,324.5 293.5,324.5 295.5,324.5C 295.447,318.804 295.78,313.138 296.5,307.5C 303.167,307.5 309.833,307.5 316.5,307.5C 316.5,311.167 316.5,314.833 316.5,318.5 Z"/></g>
<g><path style="opacity:1" fill="#3b2d0e" d="M 175.5,430.5 C 191.8,432.872 207.8,435.539 223.5,438.5C 220.5,438.5 217.5,438.5 214.5,438.5C 206.946,436.767 199.28,435.433 191.5,434.5C 186.065,433.594 180.732,432.26 175.5,430.5 Z"/></g>
<g><path style="opacity:1" fill="#6d6c6a" d="M 100.5,432.5 C 102.26,436.496 101.593,439.83 98.5,442.5C 98.8994,438.989 99.5661,435.656 100.5,432.5 Z"/></g>
<g><path style="opacity:1" fill="#d2a24d" d="M 214.5,438.5 C 217.5,438.5 220.5,438.5 223.5,438.5C 225.167,438.5 226.833,438.5 228.5,438.5C 244.138,440.014 259.971,440.681 276,440.5C 288.85,440.438 301.684,440.105 314.5,439.5C 318.167,439.5 321.833,439.5 325.5,439.5C 329.798,438.8 334.131,438.467 338.5,438.5C 338.5,445.833 338.5,453.167 338.5,460.5C 337.509,453.687 337.175,446.687 337.5,439.5C 304.871,441.516 272.205,442.016 239.5,441C 230.956,440.784 222.623,439.951 214.5,438.5 Z"/></g>
<g><path style="opacity:1" fill="#30260b" d="M 228.5,438.5 C 257.338,438.169 286.005,438.502 314.5,439.5C 301.684,440.105 288.85,440.438 276,440.5C 259.971,440.681 244.138,440.014 228.5,438.5 Z"/></g>
<g><path style="opacity:1" fill="#fba62c" d="M 191.5,434.5 C 199.28,435.433 206.946,436.767 214.5,438.5C 222.623,439.951 230.956,440.784 239.5,441C 272.205,442.016 304.871,441.516 337.5,439.5C 337.175,446.687 337.509,453.687 338.5,460.5C 343.167,460.5 347.833,460.5 352.5,460.5C 352.665,463.85 352.498,467.183 352,470.5C 348.065,471.138 344.231,471.804 340.5,472.5C 340.057,475.814 339.057,478.981 337.5,482C 327.172,482.5 316.839,482.666 306.5,482.5C 307.055,478.988 306.388,475.988 304.5,473.5C 300.833,473.5 297.167,473.5 293.5,473.5C 293.5,468.833 293.5,464.167 293.5,459.5C 289.366,458.515 285.032,458.182 280.5,458.5C 280.784,455.223 280.451,452.057 279.5,449C 253.997,448.17 228.663,448.337 203.5,449.5C 203.167,449.5 202.833,449.5 202.5,449.5C 200.631,451.635 199.964,454.302 200.5,457.5C 195.535,456.74 190.535,456.906 185.5,458C 186.167,458.333 186.833,458.667 187.5,459C 186.577,461.041 186.244,463.208 186.5,465.5C 171.833,465.5 157.167,465.5 142.5,465.5C 142.813,461.958 142.479,458.625 141.5,455.5C 137.148,454.754 132.648,454.087 128,453.5C 127.055,453.905 126.388,454.572 126,455.5C 125.788,458.758 125.288,461.924 124.5,465C 120.179,465.499 115.846,465.666 111.5,465.5C 112.588,459.896 113.254,454.229 113.5,448.5C 113.569,443.055 114.236,437.722 115.5,432.5C 120.833,432.5 126.167,432.5 131.5,432.5C 132.477,429.713 132.81,426.713 132.5,423.5C 135.85,423.335 139.183,423.502 142.5,424C 143.451,427.057 143.784,430.223 143.5,433.5C 148.875,433.828 154.208,433.495 159.5,432.5C 159.709,431.914 160.043,431.414 160.5,431C 162,430.833 163.5,430.667 165,430.5C 173.634,432.632 182.467,433.966 191.5,434.5 Z"/></g>
<g><path style="opacity:1" fill="#e5ae50" d="M 203.5,449.5 C 228.663,448.337 253.997,448.17 279.5,449C 280.451,452.057 280.784,455.223 280.5,458.5C 285.032,458.182 289.366,458.515 293.5,459.5C 288.833,459.5 284.167,459.5 279.5,459.5C 278.523,456.713 278.19,453.713 278.5,450.5C 253.672,449.502 228.672,449.169 203.5,449.5 Z"/></g>
<g><path style="opacity:1" fill="#4f340f" d="M 202.5,449.5 C 202.833,449.5 203.167,449.5 203.5,449.5C 228.672,449.169 253.672,449.502 278.5,450.5C 253.5,450.5 228.5,450.5 203.5,450.5C 203.5,453.5 203.5,456.5 203.5,459.5C 203.167,459.5 202.833,459.5 202.5,459.5C 202.5,456.167 202.5,452.833 202.5,449.5 Z"/></g>
<g><path style="opacity:0.173" fill="#767772" d="M 96.5,456.5 C 96.8294,459.228 96.1628,461.562 94.5,463.5C 94.7215,460.933 95.3882,458.599 96.5,456.5 Z"/></g>
<g><path style="opacity:0.153" fill="#c3c5c3" d="M 358.5,450.5 C 361.287,449.523 364.287,449.19 367.5,449.5C 367.5,452.833 367.5,456.167 367.5,459.5C 369.099,459.232 370.432,459.566 371.5,460.5C 369.833,460.5 368.167,460.5 366.5,460.5C 366.5,457.167 366.5,453.833 366.5,450.5C 363.833,450.5 361.167,450.5 358.5,450.5 Z"/></g>
<g><path style="opacity:1" fill="#31210c" d="M 353.5,472.5 C 353.817,468.298 353.483,464.298 352.5,460.5C 347.833,460.5 343.167,460.5 338.5,460.5C 338.5,453.167 338.5,445.833 338.5,438.5C 334.131,438.467 329.798,438.8 325.5,439.5C 325.804,438.85 326.137,438.183 326.5,437.5C 331.05,436.2 335.55,436.2 340,437.5C 340.5,444.492 340.666,451.492 340.5,458.5C 345.099,458.2 349.599,458.533 354,459.5C 354.814,464.02 354.647,468.354 353.5,472.5 Z"/></g>
<g><path style="opacity:1" fill="#262017" d="M 141.5,455.5 C 141.5,459.167 141.5,462.833 141.5,466.5C 156.991,467.496 172.658,467.83 188.5,467.5C 173.009,468.496 157.342,468.83 141.5,468.5C 137.5,468.5 133.5,468.5 129.5,468.5C 129.167,468.5 128.833,468.5 128.5,468.5C 128.083,467.876 127.416,467.543 126.5,467.5C 122.008,468.203 117.508,468.87 113,469.5C 110.725,469.722 109.559,468.722 109.5,466.5C 114.844,466.666 120.177,466.499 125.5,466C 126.206,462.869 126.873,459.702 127.5,456.5C 132.12,455.507 136.786,455.173 141.5,455.5 Z"/></g>
<g><path style="opacity:0.094" fill="#b8b9b6" d="M 202.5,459.5 C 202.833,459.5 203.167,459.5 203.5,459.5C 217.5,459.5 231.5,459.5 245.5,459.5C 231.677,460.496 217.677,460.829 203.5,460.5C 203.5,463.5 203.5,466.5 203.5,469.5C 199.167,469.5 194.833,469.5 190.5,469.5C 190.5,473.167 190.5,476.833 190.5,480.5C 181.318,480.827 172.318,480.493 163.5,479.5C 172.167,479.5 180.833,479.5 189.5,479.5C 189.5,475.833 189.5,472.167 189.5,468.5C 193.833,468.5 198.167,468.5 202.5,468.5C 202.5,465.5 202.5,462.5 202.5,459.5 Z"/></g>
<g><path style="opacity:0.602" fill="#5f605d" d="M 372.5,460.5 C 374.167,460.5 375.833,460.5 377.5,460.5C 377.818,465.032 377.485,469.366 376.5,473.5C 376.5,469.5 376.5,465.5 376.5,461.5C 374.901,461.768 373.568,461.434 372.5,460.5 Z"/></g>
<g><path style="opacity:1" fill="#c79f4c" d="M 113.5,448.5 C 113.254,454.229 112.588,459.896 111.5,465.5C 115.846,465.666 120.179,465.499 124.5,465C 125.288,461.924 125.788,458.758 126,455.5C 126.388,454.572 127.055,453.905 128,453.5C 132.648,454.087 137.148,454.754 141.5,455.5C 136.786,455.173 132.12,455.507 127.5,456.5C 126.873,459.702 126.206,462.869 125.5,466C 120.177,466.499 114.844,466.666 109.5,466.5C 110.379,460.281 111.713,454.281 113.5,448.5 Z"/></g>
<g><path style="opacity:1" fill="#ecae43" d="M 202.5,449.5 C 202.5,452.833 202.5,456.167 202.5,459.5C 198.167,459.5 193.833,459.5 189.5,459.5C 188.532,461.607 188.198,463.941 188.5,466.5C 172.833,466.5 157.167,466.5 141.5,466.5C 141.5,462.833 141.5,459.167 141.5,455.5C 142.479,458.625 142.813,461.958 142.5,465.5C 157.167,465.5 171.833,465.5 186.5,465.5C 186.244,463.208 186.577,461.041 187.5,459C 186.833,458.667 186.167,458.333 185.5,458C 190.535,456.906 195.535,456.74 200.5,457.5C 199.964,454.302 200.631,451.635 202.5,449.5 Z"/></g>
<g><path style="opacity:1" fill="#9f792f" d="M 189.5,459.5 C 189.806,462.385 189.473,465.052 188.5,467.5C 172.658,467.83 156.991,467.496 141.5,466.5C 157.167,466.5 172.833,466.5 188.5,466.5C 188.198,463.941 188.532,461.607 189.5,459.5 Z"/></g>
<g><path style="opacity:0.427" fill="#919190" d="M 264.5,459.5 C 265.468,461.607 265.802,463.941 265.5,466.5C 270.032,466.182 274.366,466.515 278.5,467.5C 273.833,467.5 269.167,467.5 264.5,467.5C 264.5,464.833 264.5,462.167 264.5,459.5 Z"/></g>
<g><path style="opacity:1" fill="#583b14" d="M 279.5,459.5 C 284.167,459.5 288.833,459.5 293.5,459.5C 293.5,464.167 293.5,468.833 293.5,473.5C 292.515,469.366 292.182,465.032 292.5,460.5C 287.968,460.818 283.634,460.485 279.5,459.5 Z"/></g>
<g><path style="opacity:1" fill="#b19646" d="M 352.5,460.5 C 353.483,464.298 353.817,468.298 353.5,472.5C 349.167,472.5 344.833,472.5 340.5,472.5C 344.231,471.804 348.065,471.138 352,470.5C 352.498,467.183 352.665,463.85 352.5,460.5 Z"/></g>
<g><path style="opacity:0.569" fill="#62635f" d="M 278.5,467.5 C 279.461,469.265 279.795,471.265 279.5,473.5C 282.167,473.5 284.833,473.5 287.5,473.5C 284.713,474.477 281.713,474.81 278.5,474.5C 278.5,472.167 278.5,469.833 278.5,467.5 Z"/></g>
<g><path style="opacity:1" fill="#1f1f1e" d="M 189.5,459.5 C 193.833,459.5 198.167,459.5 202.5,459.5C 202.5,462.5 202.5,465.5 202.5,468.5C 198.167,468.5 193.833,468.5 189.5,468.5C 189.5,472.167 189.5,475.833 189.5,479.5C 180.833,479.5 172.167,479.5 163.5,479.5C 156.352,478.508 149.019,478.175 141.5,478.5C 141.5,475.167 141.5,471.833 141.5,468.5C 157.342,468.83 173.009,468.496 188.5,467.5C 189.473,465.052 189.806,462.385 189.5,459.5 Z"/></g>
<g><path style="opacity:0.322" fill="#7c7c75" d="M 108.5,472.5 C 108.298,474.95 108.631,477.283 109.5,479.5C 108.275,478.848 107.608,477.681 107.5,476C 107.514,474.615 107.848,473.449 108.5,472.5 Z"/></g>
<g><path style="opacity:0.816" fill="#484748" d="M 129.5,468.5 C 133.5,468.5 137.5,468.5 141.5,468.5C 141.5,471.833 141.5,475.167 141.5,478.5C 149.019,478.175 156.352,478.508 163.5,479.5C 156.013,479.618 148.347,479.618 140.5,479.5C 140.5,476.167 140.5,472.833 140.5,469.5C 136.629,469.815 132.962,469.482 129.5,468.5 Z"/></g>
<g><path style="opacity:1" fill="#e1aa49" d="M 340.5,472.5 C 340.5,476.167 340.5,479.833 340.5,483.5C 328.5,483.5 316.5,483.5 304.5,483.5C 304.5,480.167 304.5,476.833 304.5,473.5C 306.388,475.988 307.055,478.988 306.5,482.5C 316.839,482.666 327.172,482.5 337.5,482C 339.057,478.981 340.057,475.814 340.5,472.5 Z"/></g>
<g><path style="opacity:0.356" fill="#a5a5a3" d="M 367.5,473.5 C 367.5,477.167 367.5,480.833 367.5,484.5C 362.833,484.5 358.167,484.5 353.5,484.5C 353.785,486.288 353.452,487.955 352.5,489.5C 351.893,489.376 351.56,489.043 351.5,488.5C 352.451,487.081 352.784,485.415 352.5,483.5C 357.167,483.5 361.833,483.5 366.5,483.5C 366.187,479.958 366.521,476.625 367.5,473.5 Z"/></g>
</svg>
