<?xml version="1.0" encoding="UTF-8"?>
<!DOCTYPE svg PUBLIC "-//W3C//DTD SVG 1.1//EN" "http://www.w3.org/Graphics/SVG/1.1/DTD/svg11.dtd">
<svg xmlns="http://www.w3.org/2000/svg" version="1.1" width="408px" height="612px" style="shape-rendering:geometricPrecision; text-rendering:geometricPrecision; image-rendering:optimizeQuality; fill-rule:evenodd; clip-rule:evenodd" xmlns:xlink="http://www.w3.org/1999/xlink">
<g><path style="opacity:0.99" fill="#7d3a33" d="M 160.5,161.5 C 189.167,161.5 217.833,161.5 246.5,161.5C 246.5,167.167 246.5,172.833 246.5,178.5C 246.167,178.5 245.833,178.5 245.5,178.5C 244.555,173.595 244.221,168.595 244.5,163.5C 216.825,163.167 189.159,163.5 161.5,164.5C 162.135,168.367 162.801,172.2 163.5,176C 162.756,177.039 161.756,177.539 160.5,177.5C 160.5,172.167 160.5,166.833 160.5,161.5 Z"/></g>
<g><path style="opacity:1" fill="#7c1b12" d="M 245.5,178.5 C 217.167,178.5 188.833,178.5 160.5,178.5C 160.5,178.167 160.5,177.833 160.5,177.5C 161.756,177.539 162.756,177.039 163.5,176C 162.801,172.2 162.135,168.367 161.5,164.5C 189.159,163.5 216.825,163.167 244.5,163.5C 244.221,168.595 244.555,173.595 245.5,178.5 Z"/></g>
<g><path style="opacity:0.027" fill="#fffbe3" d="M 160.5,161.5 C 160.5,166.833 160.5,172.167 160.5,177.5C 160.5,177.833 160.5,178.167 160.5,178.5C 160.167,178.5 159.833,178.5 159.5,178.5C 159.167,178.5 158.833,178.5 158.5,178.5C 159.126,172.732 159.793,167.066 160.5,161.5 Z"/></g>
<g><path style="opacity:1" fill="#cd4434" d="M 159.5,178.5 C 159.833,178.5 160.167,178.5 160.5,178.5C 188.833,178.5 217.167,178.5 245.5,178.5C 245.833,178.5 246.167,178.5 246.5,178.5C 246.5,178.833 246.5,179.167 246.5,179.5C 246.5,180.167 246.5,180.833 246.5,181.5C 246.5,209.167 246.5,236.833 246.5,264.5C 274.5,264.5 302.5,264.5 330.5,264.5C 330.833,264.5 331.167,264.5 331.5,264.5C 331.5,264.833 331.5,265.167 331.5,265.5C 331.5,294.833 331.5,324.167 331.5,353.5C 331.5,353.833 331.5,354.167 331.5,354.5C 331.167,354.5 330.833,354.5 330.5,354.5C 302.5,354.5 274.5,354.5 246.5,354.5C 274.328,353.502 302.328,353.169 330.5,353.5C 330.5,324.5 330.5,295.5 330.5,266.5C 302.808,266.395 275.141,266.562 247.5,267C 246.667,266.167 245.833,265.333 245,264.5C 244.5,236.502 244.333,208.502 244.5,180.5C 217.167,180.5 189.833,180.5 162.5,180.5C 162.8,185.099 162.467,189.599 161.5,194C 162.324,215.443 162.991,236.776 163.5,258C 161.809,260.571 160.809,263.404 160.5,266.5C 132.468,266.808 104.468,266.475 76.5,265.5C 76.5,294.5 76.5,323.5 76.5,352.5C 104.833,352.5 133.167,352.5 161.5,352.5C 161.349,357.292 162.016,361.959 163.5,366.5C 162.175,377.363 162.175,388.197 163.5,399C 162.633,402.754 161.966,406.587 161.5,410.5C 161.594,412.689 162.261,414.689 163.5,416.5C 163.136,420.652 163.136,424.652 163.5,428.5C 162.352,432.108 161.852,435.775 162,439.5C 162.5,440 163,440.5 163.5,441C 190.831,441.5 218.165,441.667 245.5,441.5C 245.169,412.662 245.502,383.995 246.5,355.5C 246.5,384.167 246.5,412.833 246.5,441.5C 246.5,441.833 246.5,442.167 246.5,442.5C 246.167,442.5 245.833,442.5 245.5,442.5C 217.167,442.5 188.833,442.5 160.5,442.5C 160.167,442.5 159.833,442.5 159.5,442.5C 159.5,441.833 159.5,441.167 159.5,440.5C 159.5,411.833 159.5,383.167 159.5,354.5C 131.833,354.5 104.167,354.5 76.5,354.5C 76.1667,354.5 75.8333,354.5 75.5,354.5C 75.5,354.167 75.5,353.833 75.5,353.5C 75.5,324.167 75.5,294.833 75.5,265.5C 75.5,265.167 75.5,264.833 75.5,264.5C 103.5,264.5 131.5,264.5 159.5,264.5C 159.5,236.167 159.5,207.833 159.5,179.5C 159.5,179.167 159.5,178.833 159.5,178.5 Z"/></g>
<g><path style="opacity:1" fill="#da422f" d="M 246.5,354.5 C 246.5,354.833 246.5,355.167 246.5,355.5C 245.502,383.995 245.169,412.662 245.5,441.5C 218.165,441.667 190.831,441.5 163.5,441C 163,440.5 162.5,440 162,439.5C 161.852,435.775 162.352,432.108 163.5,428.5C 163.136,424.652 163.136,420.652 163.5,416.5C 162.261,414.689 161.594,412.689 161.5,410.5C 161.966,406.587 162.633,402.754 163.5,399C 162.175,388.197 162.175,377.363 163.5,366.5C 162.016,361.959 161.349,357.292 161.5,352.5C 133.167,352.5 104.833,352.5 76.5,352.5C 76.5,323.5 76.5,294.5 76.5,265.5C 104.468,266.475 132.468,266.808 160.5,266.5C 160.809,263.404 161.809,260.571 163.5,258C 162.991,236.776 162.324,215.443 161.5,194C 162.467,189.599 162.8,185.099 162.5,180.5C 189.833,180.5 217.167,180.5 244.5,180.5C 244.333,208.502 244.5,236.502 245,264.5C 245.833,265.333 246.667,266.167 247.5,267C 275.141,266.562 302.808,266.395 330.5,266.5C 330.5,295.5 330.5,324.5 330.5,353.5C 302.328,353.169 274.328,353.502 246.5,354.5 Z"/></g>
<g><path style="opacity:0.721" fill="#a36964" d="M 246.5,161.5 C 247.489,166.975 247.822,172.642 247.5,178.5C 252.833,178.5 258.167,178.5 263.5,178.5C 263.5,201.5 263.5,224.5 263.5,247.5C 262.503,225.006 262.169,202.339 262.5,179.5C 257.167,179.5 251.833,179.5 246.5,179.5C 246.5,179.167 246.5,178.833 246.5,178.5C 246.5,172.833 246.5,167.167 246.5,161.5 Z"/></g>
<g><path style="opacity:0.373" fill="#cc9c98" d="M 144.5,178.5 C 144.5,201.833 144.5,225.167 144.5,248.5C 121.5,248.5 98.5,248.5 75.5,248.5C 75.5,253.5 75.5,258.5 75.5,263.5C 75.5,263.833 75.5,264.167 75.5,264.5C 75.1667,264.5 74.8333,264.5 74.5,264.5C 74.5,258.833 74.5,253.167 74.5,247.5C 97.5,247.5 120.5,247.5 143.5,247.5C 143.169,224.327 143.502,201.327 144.5,178.5 Z"/></g>
<g><path style="opacity:0.359" fill="#ce9f9a" d="M 263.5,248.5 C 263.5,248.167 263.5,247.833 263.5,247.5C 286.5,247.5 309.5,247.5 332.5,247.5C 332.5,253.167 332.5,258.833 332.5,264.5C 332.167,264.5 331.833,264.5 331.5,264.5C 331.5,259.167 331.5,253.833 331.5,248.5C 308.833,248.5 286.167,248.5 263.5,248.5 Z"/></g>
<g><path style="opacity:1" fill="#71201b" d="M 144.5,178.5 C 149.167,178.5 153.833,178.5 158.5,178.5C 158.833,178.5 159.167,178.5 159.5,178.5C 159.5,178.833 159.5,179.167 159.5,179.5C 155.167,179.5 150.833,179.5 146.5,179.5C 146.241,201.969 146.574,224.302 147.5,246.5C 147,247.5 146.5,248.5 146,249.5C 122.908,250.494 99.7417,250.827 76.5,250.5C 76.8182,255.032 76.4849,259.366 75.5,263.5C 75.5,258.5 75.5,253.5 75.5,248.5C 98.5,248.5 121.5,248.5 144.5,248.5C 144.5,225.167 144.5,201.833 144.5,178.5 Z"/></g>
<g><path style="opacity:1" fill="#7b1b13" d="M 246.5,179.5 C 251.833,179.5 257.167,179.5 262.5,179.5C 262.169,202.339 262.503,225.006 263.5,247.5C 263.5,247.833 263.5,248.167 263.5,248.5C 265.56,250.154 268.06,251.154 271,251.5C 290.757,250.507 310.591,250.174 330.5,250.5C 330.5,254.833 330.5,259.167 330.5,263.5C 303.122,263.825 275.789,263.491 248.5,262.5C 247.833,235.336 247.167,208.336 246.5,181.5C 246.5,180.833 246.5,180.167 246.5,179.5 Z"/></g>
<g><path style="opacity:1" fill="#71201a" d="M 263.5,248.5 C 286.167,248.5 308.833,248.5 331.5,248.5C 331.5,253.833 331.5,259.167 331.5,264.5C 331.167,264.5 330.833,264.5 330.5,264.5C 330.5,264.167 330.5,263.833 330.5,263.5C 330.5,259.167 330.5,254.833 330.5,250.5C 310.591,250.174 290.757,250.507 271,251.5C 268.06,251.154 265.56,250.154 263.5,248.5 Z"/></g>
<g><path style="opacity:1" fill="#7b1b12" d="M 159.5,179.5 C 159.5,207.833 159.5,236.167 159.5,264.5C 131.5,264.5 103.5,264.5 75.5,264.5C 75.5,264.167 75.5,263.833 75.5,263.5C 76.4849,259.366 76.8182,255.032 76.5,250.5C 99.7417,250.827 122.908,250.494 146,249.5C 146.5,248.5 147,247.5 147.5,246.5C 146.574,224.302 146.241,201.969 146.5,179.5C 150.833,179.5 155.167,179.5 159.5,179.5 Z"/></g>
<g><path style="opacity:1" fill="#821002" d="M 246.5,181.5 C 247.167,208.336 247.833,235.336 248.5,262.5C 275.789,263.491 303.122,263.825 330.5,263.5C 330.5,263.833 330.5,264.167 330.5,264.5C 302.5,264.5 274.5,264.5 246.5,264.5C 246.5,236.833 246.5,209.167 246.5,181.5 Z"/></g>
<g><path style="opacity:1" fill="#7d1c13" d="M 75.5,265.5 C 75.5,294.833 75.5,324.167 75.5,353.5C 75.1667,353.5 74.8333,353.5 74.5,353.5C 70.3002,352.78 65.9669,352.114 61.5,351.5C 60.5002,323.508 60.1669,295.508 60.5,267.5C 65.5527,266.951 70.5527,266.285 75.5,265.5 Z"/></g>
<g><path style="opacity:0.882" fill="#652019" d="M 74.5,264.5 C 74.8333,264.5 75.1667,264.5 75.5,264.5C 75.5,264.833 75.5,265.167 75.5,265.5C 70.5527,266.285 65.5527,266.951 60.5,267.5C 60.1669,295.508 60.5002,323.508 61.5,351.5C 65.9669,352.114 70.3002,352.78 74.5,353.5C 69.5,353.5 64.5,353.5 59.5,353.5C 59.5,323.833 59.5,294.167 59.5,264.5C 64.4043,264.034 69.4043,264.034 74.5,264.5 Z"/></g>
<g><path style="opacity:0.752" fill="#5d1b14" d="M 331.5,265.5 C 331.5,265.167 331.5,264.833 331.5,264.5C 331.833,264.5 332.167,264.5 332.5,264.5C 337.5,264.5 342.5,264.5 347.5,264.5C 347.831,294.338 347.498,324.005 346.5,353.5C 346.5,324.5 346.5,295.5 346.5,266.5C 341.405,266.779 336.405,266.445 331.5,265.5 Z"/></g>
<g><path style="opacity:1" fill="#7c1b13" d="M 331.5,265.5 C 336.405,266.445 341.405,266.779 346.5,266.5C 346.5,295.5 346.5,324.5 346.5,353.5C 341.5,353.5 336.5,353.5 331.5,353.5C 331.5,324.167 331.5,294.833 331.5,265.5 Z"/></g>
<g><path style="opacity:0.608" fill="#b88e89" d="M 59.5,264.5 C 59.5,294.167 59.5,323.833 59.5,353.5C 64.5,353.5 69.5,353.5 74.5,353.5C 74.8333,353.5 75.1667,353.5 75.5,353.5C 75.5,353.833 75.5,354.167 75.5,354.5C 75.1667,354.5 74.8333,354.5 74.5,354.5C 69.1667,354.5 63.8333,354.5 58.5,354.5C 58.1686,324.329 58.5019,294.329 59.5,264.5 Z"/></g>
<g><path style="opacity:0.595" fill="#be9590" d="M 347.5,264.5 C 348.498,294.329 348.831,324.329 348.5,354.5C 343.167,354.5 337.833,354.5 332.5,354.5C 332.167,354.5 331.833,354.5 331.5,354.5C 331.5,354.167 331.5,353.833 331.5,353.5C 336.5,353.5 341.5,353.5 346.5,353.5C 347.498,324.005 347.831,294.338 347.5,264.5 Z"/></g>
<g><path style="opacity:1" fill="#7a2018" d="M 330.5,354.5 C 330.833,354.5 331.167,354.5 331.5,354.5C 331.5,359.833 331.5,365.167 331.5,370.5C 308.661,370.169 285.994,370.503 263.5,371.5C 263.5,395.167 263.5,418.833 263.5,442.5C 257.833,442.5 252.167,442.5 246.5,442.5C 246.5,442.167 246.5,441.833 246.5,441.5C 247.167,441.5 247.5,441.167 247.5,440.5C 251.846,440.666 256.179,440.499 260.5,440C 261.75,431.868 261.583,423.702 260,415.5C 258.86,417.078 258.36,418.744 258.5,420.5C 257.5,420 256.5,419.5 255.5,419C 256.944,417.237 257.944,415.237 258.5,413C 257.846,408.08 257.512,403.08 257.5,398C 257.53,392.75 258.196,387.75 259.5,383C 259.043,382.586 258.709,382.086 258.5,381.5C 259.896,380.148 260.563,378.481 260.5,376.5C 258.593,372.077 256.427,367.744 254,363.5C 253.396,365.686 252.23,365.852 250.5,364C 255.144,362.43 255.477,360.43 251.5,358C 251.667,357.5 251.833,357 252,356.5C 255.694,356.556 259.527,356.723 263.5,357C 261.167,357.333 258.833,357.667 256.5,358C 255.167,359 255.167,360 256.5,361C 261.086,361.197 265.586,361.697 270,362.5C 285.952,361.362 302.285,361.362 319,362.5C 321.103,360.697 321.936,358.364 321.5,355.5C 324.713,355.81 327.713,355.477 330.5,354.5 Z"/></g>
<g><path style="opacity:1" fill="#7c1b13" d="M 76.5,354.5 C 104.167,354.5 131.833,354.5 159.5,354.5C 159.5,383.167 159.5,411.833 159.5,440.5C 155.486,440.666 151.486,440.499 147.5,440C 146.273,438.413 146.606,437.079 148.5,436C 147.809,434.933 147.309,433.766 147,432.5C 146.667,411.833 146.333,391.167 146,370.5C 145.751,369.376 145.251,368.376 144.5,367.5C 122.069,368.103 99.7355,368.437 77.5,368.5C 76.6864,363.881 76.3531,359.214 76.5,354.5 Z"/></g>
<g><path style="opacity:1" fill="#7c1b12" d="M 321.5,355.5 C 321.936,358.364 321.103,360.697 319,362.5C 302.285,361.362 285.952,361.362 270,362.5C 265.586,361.697 261.086,361.197 256.5,361C 255.167,360 255.167,359 256.5,358C 258.833,357.667 261.167,357.333 263.5,357C 259.527,356.723 255.694,356.556 252,356.5C 251.833,357 251.667,357.5 251.5,358C 255.477,360.43 255.144,362.43 250.5,364C 252.23,365.852 253.396,365.686 254,363.5C 256.427,367.744 258.593,372.077 260.5,376.5C 260.563,378.481 259.896,380.148 258.5,381.5C 258.709,382.086 259.043,382.586 259.5,383C 258.196,387.75 257.53,392.75 257.5,398C 257.512,403.08 257.846,408.08 258.5,413C 257.944,415.237 256.944,417.237 255.5,419C 256.5,419.5 257.5,420 258.5,420.5C 258.36,418.744 258.86,417.078 260,415.5C 261.583,423.702 261.75,431.868 260.5,440C 256.179,440.499 251.846,440.666 247.5,440.5C 247.5,412.167 247.5,383.833 247.5,355.5C 272.167,355.5 296.833,355.5 321.5,355.5 Z"/></g>
<g><path style="opacity:0.322" fill="#cda19c" d="M 331.5,354.5 C 331.833,354.5 332.167,354.5 332.5,354.5C 332.5,360.167 332.5,365.833 332.5,371.5C 309.5,371.5 286.5,371.5 263.5,371.5C 285.994,370.503 308.661,370.169 331.5,370.5C 331.5,365.167 331.5,359.833 331.5,354.5 Z"/></g>
<g><path style="opacity:1" fill="#831305" d="M 246.5,354.5 C 274.5,354.5 302.5,354.5 330.5,354.5C 327.713,355.477 324.713,355.81 321.5,355.5C 296.833,355.5 272.167,355.5 247.5,355.5C 247.5,383.833 247.5,412.167 247.5,440.5C 247.5,441.167 247.167,441.5 246.5,441.5C 246.5,412.833 246.5,384.167 246.5,355.5C 246.5,355.167 246.5,354.833 246.5,354.5 Z"/></g>
<g><path style="opacity:1" fill="#701f19" d="M 75.5,354.5 C 75.8333,354.5 76.1667,354.5 76.5,354.5C 76.3531,359.214 76.6864,363.881 77.5,368.5C 99.7355,368.437 122.069,368.103 144.5,367.5C 145.251,368.376 145.751,369.376 146,370.5C 146.333,391.167 146.667,411.833 147,432.5C 147.309,433.766 147.809,434.933 148.5,436C 146.606,437.079 146.273,438.413 147.5,440C 151.486,440.499 155.486,440.666 159.5,440.5C 159.5,441.167 159.5,441.833 159.5,442.5C 154.5,442.5 149.5,442.5 144.5,442.5C 144.5,418.5 144.5,394.5 144.5,370.5C 121.5,370.5 98.5,370.5 75.5,370.5C 75.5,365.167 75.5,359.833 75.5,354.5 Z"/></g>
<g><path style="opacity:0.506" fill="#c4938e" d="M 74.5,354.5 C 74.8333,354.5 75.1667,354.5 75.5,354.5C 75.5,359.833 75.5,365.167 75.5,370.5C 98.5,370.5 121.5,370.5 144.5,370.5C 144.5,394.5 144.5,418.5 144.5,442.5C 144.167,442.5 143.833,442.5 143.5,442.5C 143.5,418.833 143.5,395.167 143.5,371.5C 120.5,371.5 97.5,371.5 74.5,371.5C 74.5,365.833 74.5,360.167 74.5,354.5 Z"/></g>
<g><path style="opacity:0.055" fill="#ffefe7" d="M 143.5,442.5 C 143.833,442.5 144.167,442.5 144.5,442.5C 149.5,442.5 154.5,442.5 159.5,442.5C 159.833,442.5 160.167,442.5 160.5,442.5C 160.5,443.5 160.5,444.5 160.5,445.5C 160.5,449.833 160.5,454.167 160.5,458.5C 159.513,453.695 159.179,448.695 159.5,443.5C 153.974,443.821 148.64,443.488 143.5,442.5 Z"/></g>
<g><path style="opacity:1" fill="#7c1b12" d="M 160.5,442.5 C 188.833,442.5 217.167,442.5 245.5,442.5C 245.5,447.5 245.5,452.5 245.5,457.5C 217.5,457.5 189.5,457.5 161.5,457.5C 161.817,453.298 161.483,449.298 160.5,445.5C 160.5,444.5 160.5,443.5 160.5,442.5 Z"/></g>
<g><path style="opacity:0.027" fill="#ffe6e0" d="M 246.5,442.5 C 252.167,442.5 257.833,442.5 263.5,442.5C 258.36,443.488 253.026,443.821 247.5,443.5C 247.821,448.695 247.487,453.695 246.5,458.5C 246.5,453.167 246.5,447.833 246.5,442.5 Z"/></g>
<g><path style="opacity:0.964" fill="#571d1a" d="M 245.5,442.5 C 245.833,442.5 246.167,442.5 246.5,442.5C 246.5,447.833 246.5,453.167 246.5,458.5C 217.833,458.5 189.167,458.5 160.5,458.5C 160.5,454.167 160.5,449.833 160.5,445.5C 161.483,449.298 161.817,453.298 161.5,457.5C 189.5,457.5 217.5,457.5 245.5,457.5C 245.5,452.5 245.5,447.5 245.5,442.5 Z"/></g>
</svg>
