<?xml version="1.0" encoding="UTF-8"?>
<!DOCTYPE svg PUBLIC "-//W3C//DTD SVG 1.1//EN" "http://www.w3.org/Graphics/SVG/1.1/DTD/svg11.dtd">
<svg xmlns="http://www.w3.org/2000/svg" version="1.1" width="408px" height="612px" style="shape-rendering:geometricPrecision; text-rendering:geometricPrecision; image-rendering:optimizeQuality; fill-rule:evenodd; clip-rule:evenodd" xmlns:xlink="http://www.w3.org/1999/xlink">
<g><path style="opacity:1" fill="#303440" d="M 231.5,73.5 C 231.5,77.8333 231.5,82.1667 231.5,86.5C 212.833,86.5 194.167,86.5 175.5,86.5C 175.5,81.8333 175.5,77.1667 175.5,72.5C 194.341,72.1698 213.007,72.5031 231.5,73.5 Z"/></g>
<g><path style="opacity:0.124" fill="#ababac" d="M 231.5,73.5 C 232.216,78.0638 232.883,82.7305 233.5,87.5C 232.833,87.5 232.167,87.5 231.5,87.5C 231.5,87.1667 231.5,86.8333 231.5,86.5C 231.5,82.1667 231.5,77.8333 231.5,73.5 Z"/></g>
<g><path style="opacity:1" fill="#be8c62" d="M 231.5,87.5 C 231.5,102.167 231.5,116.833 231.5,131.5C 230.504,117.343 230.171,103.01 230.5,88.5C 212.5,88.5 194.5,88.5 176.5,88.5C 176.829,103.01 176.496,117.343 175.5,131.5C 175.5,117.167 175.5,102.833 175.5,88.5C 193.993,87.5031 212.659,87.1698 231.5,87.5 Z"/></g>
<g><path style="opacity:1" fill="#c38348" d="M 231.5,131.5 C 231.833,131.5 232.167,131.5 232.5,131.5C 246.323,132.496 260.323,132.829 274.5,132.5C 274.5,141.833 274.5,151.167 274.5,160.5C 231.5,160.5 188.5,160.5 145.5,160.5C 145.5,151.167 145.5,141.833 145.5,132.5C 155.681,132.827 165.681,132.494 175.5,131.5C 176.496,117.343 176.829,103.01 176.5,88.5C 194.5,88.5 212.5,88.5 230.5,88.5C 230.171,103.01 230.504,117.343 231.5,131.5 Z"/></g>
<g><path style="opacity:1" fill="#2b2d37" d="M 231.5,87.5 C 232.167,87.5 232.833,87.5 233.5,87.5C 237.833,87.5 242.167,87.5 246.5,87.5C 246.5,97.5 246.5,107.5 246.5,117.5C 256.167,117.5 265.833,117.5 275.5,117.5C 275.5,122.167 275.5,126.833 275.5,131.5C 261.167,131.5 246.833,131.5 232.5,131.5C 232.167,131.5 231.833,131.5 231.5,131.5C 231.5,116.833 231.5,102.167 231.5,87.5 Z"/></g>
<g><path style="opacity:1" fill="#282d39" d="M 216.5,104.5 C 216.5,113.167 216.5,121.833 216.5,130.5C 208.167,130.5 199.833,130.5 191.5,130.5C 191.5,121.5 191.5,112.5 191.5,103.5C 200.017,103.174 208.35,103.507 216.5,104.5 Z"/></g>
<g><path style="opacity:1" fill="#3b2515" d="M 217.5,102.5 C 217.5,103.167 217.5,103.833 217.5,104.5C 217.167,104.5 216.833,104.5 216.5,104.5C 208.35,103.507 200.017,103.174 191.5,103.5C 191.5,112.5 191.5,121.5 191.5,130.5C 191.5,130.833 191.5,131.167 191.5,131.5C 190.506,122.014 190.173,112.348 190.5,102.5C 199.5,102.5 208.5,102.5 217.5,102.5 Z"/></g>
<g><path style="opacity:1" fill="#2b303a" d="M 175.5,86.5 C 194.167,86.5 212.833,86.5 231.5,86.5C 231.5,86.8333 231.5,87.1667 231.5,87.5C 212.659,87.1698 193.993,87.5031 175.5,88.5C 174.504,102.323 174.171,116.323 174.5,130.5C 160.5,130.5 146.5,130.5 132.5,130.5C 132.5,125.833 132.5,121.167 132.5,116.5C 141.833,116.5 151.167,116.5 160.5,116.5C 160.5,106.833 160.5,97.1667 160.5,87.5C 165.595,87.7787 170.595,87.4454 175.5,86.5 Z"/></g>
<g><path style="opacity:0.625" fill="#84848a" d="M 246.5,87.5 C 247.494,96.9856 247.827,106.652 247.5,116.5C 257.167,116.5 266.833,116.5 276.5,116.5C 276.5,121.5 276.5,126.5 276.5,131.5C 301.339,131.169 326.006,131.502 350.5,132.5C 325.833,132.5 301.167,132.5 276.5,132.5C 276.167,132.5 275.833,132.5 275.5,132.5C 275.5,132.167 275.5,131.833 275.5,131.5C 275.5,126.833 275.5,122.167 275.5,117.5C 265.833,117.5 256.167,117.5 246.5,117.5C 246.5,107.5 246.5,97.5 246.5,87.5 Z"/></g>
<g><path style="opacity:1" fill="#2b231d" d="M 216.5,104.5 C 216.833,104.5 217.167,104.5 217.5,104.5C 217.5,113.5 217.5,122.5 217.5,131.5C 208.833,131.5 200.167,131.5 191.5,131.5C 191.5,131.167 191.5,130.833 191.5,130.5C 199.833,130.5 208.167,130.5 216.5,130.5C 216.5,121.833 216.5,113.167 216.5,104.5 Z"/></g>
<g><path style="opacity:1" fill="#2e221f" d="M 175.5,88.5 C 175.5,102.833 175.5,117.167 175.5,131.5C 161.167,131.5 146.833,131.5 132.5,131.5C 132.5,131.167 132.5,130.833 132.5,130.5C 146.5,130.5 160.5,130.5 174.5,130.5C 174.171,116.323 174.504,102.323 175.5,88.5 Z"/></g>
<g><path style="opacity:1" fill="#bb8454" d="M 217.5,102.5 C 208.5,102.5 199.5,102.5 190.5,102.5C 190.173,112.348 190.506,122.014 191.5,131.5C 200.167,131.5 208.833,131.5 217.5,131.5C 210.791,132.473 204.291,134.14 198,136.5C 196,135.167 194,135.167 192,136.5C 189.155,135.322 187.655,133.155 187.5,130C 188.266,120.856 188.766,111.69 189,102.5C 189.216,100.616 189.883,98.9494 191,97.5C 191.483,98.448 191.649,99.448 191.5,100.5C 200.565,99.8636 209.231,100.53 217.5,102.5 Z"/></g>
<g><path style="opacity:1" fill="#b6865c" d="M 232.5,131.5 C 246.833,131.5 261.167,131.5 275.5,131.5C 275.5,131.833 275.5,132.167 275.5,132.5C 275.5,141.833 275.5,151.167 275.5,160.5C 275.167,160.5 274.833,160.5 274.5,160.5C 274.5,151.167 274.5,141.833 274.5,132.5C 260.323,132.829 246.323,132.496 232.5,131.5 Z"/></g>
<g><path style="opacity:1" fill="#282d39" d="M 131.5,131.5 C 131.5,131.833 131.5,132.167 131.5,132.5C 130.504,146.323 130.171,160.323 130.5,174.5C 115.5,174.5 100.5,174.5 85.5,174.5C 85.1672,290.001 85.5005,405.335 86.5,520.5C 165.002,520.833 243.335,520.499 321.5,519.5C 322.771,517.891 323.771,516.058 324.5,514C 324,513.5 323.5,513 323,512.5C 322.5,399.834 322.333,287.167 322.5,174.5C 307.167,174.5 291.833,174.5 276.5,174.5C 276.5,160.5 276.5,146.5 276.5,132.5C 301.167,132.5 325.833,132.5 350.5,132.5C 351.662,136.687 351.662,141.02 350.5,145.5C 355.363,145.181 360.03,145.514 364.5,146.5C 363.833,146.5 363.167,146.5 362.5,146.5C 358.5,146.5 354.5,146.5 350.5,146.5C 349.504,146.586 348.671,146.252 348,145.5C 328.402,146.161 308.902,146.828 289.5,147.5C 289.5,151.833 289.5,156.167 289.5,160.5C 304.658,161.496 319.991,161.83 335.5,161.5C 335.5,285.833 335.5,410.167 335.5,534.5C 248.151,534.818 160.818,534.484 73.5,533.5C 72.511,410.182 72.1777,286.848 72.5,163.5C 86.5301,162.306 100.53,162.306 114.5,163.5C 119.355,161.865 121.355,158.365 120.5,153C 120.453,150.705 119.787,148.871 118.5,147.5C 98.3402,146.503 78.0069,146.17 57.5,146.5C 57.5,141.5 57.5,136.5 57.5,131.5C 82.1667,131.5 106.833,131.5 131.5,131.5 Z"/></g>
<g><path style="opacity:1" fill="#9a5324" d="M 145.5,132.5 C 145.5,141.833 145.5,151.167 145.5,160.5C 188.5,160.5 231.5,160.5 274.5,160.5C 274.5,165.167 274.5,169.833 274.5,174.5C 227.5,174.5 180.5,174.5 133.5,174.5C 133.5,160.5 133.5,146.5 133.5,132.5C 137.5,132.5 141.5,132.5 145.5,132.5 Z"/></g>
<g><path style="opacity:1" fill="#7b4f34" d="M 131.5,131.5 C 131.833,131.5 132.167,131.5 132.5,131.5C 146.833,131.5 161.167,131.5 175.5,131.5C 165.681,132.494 155.681,132.827 145.5,132.5C 141.5,132.5 137.5,132.5 133.5,132.5C 133.5,146.5 133.5,160.5 133.5,174.5C 180.5,174.5 227.5,174.5 274.5,174.5C 274.5,169.833 274.5,165.167 274.5,160.5C 274.833,160.5 275.167,160.5 275.5,160.5C 275.5,165.5 275.5,170.5 275.5,175.5C 275.5,175.833 275.5,176.167 275.5,176.5C 227.833,176.5 180.167,176.5 132.5,176.5C 132.5,175.833 132.167,175.5 131.5,175.5C 131.5,161.167 131.5,146.833 131.5,132.5C 131.5,132.167 131.5,131.833 131.5,131.5 Z"/></g>
<g><path style="opacity:1" fill="#1b1c20" d="M 131.5,132.5 C 131.5,146.833 131.5,161.167 131.5,175.5C 116.5,175.5 101.5,175.5 86.5,175.5C 86.5,290.5 86.5,405.5 86.5,520.5C 85.5005,405.335 85.1672,290.001 85.5,174.5C 100.5,174.5 115.5,174.5 130.5,174.5C 130.171,160.323 130.504,146.323 131.5,132.5 Z"/></g>
<g><path style="opacity:1" fill="#272c38" d="M 350.5,146.5 C 354.5,146.5 358.5,146.5 362.5,146.5C 363.165,284.264 363.832,421.931 364.5,559.5C 364.5,560.833 364.5,562.167 364.5,563.5C 257.5,563.5 150.5,563.5 43.5,563.5C 43.5,424.833 43.5,286.167 43.5,147.5C 47.8333,147.5 52.1667,147.5 56.5,147.5C 55.3368,281.793 55.1701,416.127 56,550.5C 58.2838,552.984 60.7838,553.151 63.5,551C 159.334,550.833 255.001,550.333 350.5,549.5C 351.195,541.629 351.862,533.629 352.5,525.5C 352.449,399.874 351.783,274.207 350.5,148.5C 350.5,147.833 350.5,147.167 350.5,146.5 Z"/></g>
<g><path style="opacity:1" fill="#274868" d="M 289.5,147.5 C 308.823,147.549 327.989,147.549 347,147.5C 348.376,147.684 349.209,148.351 349.5,149.5C 330.022,148.643 310.355,148.31 290.5,148.5C 290.5,152.167 290.5,155.833 290.5,159.5C 306.167,159.5 321.833,159.5 337.5,159.5C 337.333,207.501 337.5,255.501 338,303.5C 339.037,309.446 339.537,315.446 339.5,321.5C 337.451,352.68 336.951,384.013 338,415.5C 339.114,417.97 339.614,420.636 339.5,423.5C 338.717,428.652 338.051,433.818 337.5,439C 338.478,447.14 339.144,455.307 339.5,463.5C 338.035,488.144 337.202,512.811 337,537.5C 248.736,536.835 160.569,536.168 72.5,535.5C 160.167,535.5 247.833,535.5 335.5,535.5C 336.5,410.668 336.833,285.668 336.5,160.5C 320.833,160.5 305.167,160.5 289.5,160.5C 289.5,156.167 289.5,151.833 289.5,147.5 Z"/></g>
<g><path style="opacity:1" fill="#223044" d="M 56.5,147.5 C 56.8333,147.5 57.1667,147.5 57.5,147.5C 57.5,281.5 57.5,415.5 57.5,549.5C 59.5,549.5 61.5,549.5 63.5,549.5C 158.167,549.5 252.833,549.5 347.5,549.5C 348.5,549.5 349.5,549.5 350.5,549.5C 255.001,550.333 159.334,550.833 63.5,551C 60.7838,553.151 58.2838,552.984 56,550.5C 55.1701,416.127 55.3368,281.793 56.5,147.5 Z"/></g>
<g><path style="opacity:1" fill="#212d3e" d="M 118.5,147.5 C 119.787,148.871 120.453,150.705 120.5,153C 121.355,158.365 119.355,161.865 114.5,163.5C 100.53,162.306 86.5301,162.306 72.5,163.5C 72.1777,286.848 72.511,410.182 73.5,533.5C 160.818,534.484 248.151,534.818 335.5,534.5C 335.5,534.833 335.5,535.167 335.5,535.5C 247.833,535.5 160.167,535.5 72.5,535.5C 71.5004,410.668 71.1671,285.668 71.5,160.5C 86.676,160.829 101.676,160.496 116.5,159.5C 118.423,155.971 119.089,151.971 118.5,147.5 Z"/></g>
<g><path style="opacity:1" fill="#2d2c32" d="M 275.5,132.5 C 275.833,132.5 276.167,132.5 276.5,132.5C 276.5,146.5 276.5,160.5 276.5,174.5C 291.833,174.5 307.167,174.5 322.5,174.5C 322.333,287.167 322.5,399.834 323,512.5C 323.5,513 324,513.5 324.5,514C 323.771,516.058 322.771,517.891 321.5,519.5C 321.5,404.833 321.5,290.167 321.5,175.5C 306.167,175.5 290.833,175.5 275.5,175.5C 275.5,170.5 275.5,165.5 275.5,160.5C 275.5,151.167 275.5,141.833 275.5,132.5 Z"/></g>
<g><path style="opacity:1" fill="#1f2e40" d="M 350.5,148.5 C 351.783,274.207 352.449,399.874 352.5,525.5C 351.862,533.629 351.195,541.629 350.5,549.5C 350.5,415.833 350.5,282.167 350.5,148.5 Z"/></g>
<g><path style="opacity:0.828" fill="#1a1c21" d="M 362.5,146.5 C 363.167,146.5 363.833,146.5 364.5,146.5C 364.5,284.167 364.5,421.833 364.5,559.5C 363.832,421.931 363.165,284.264 362.5,146.5 Z"/></g>
<g><path style="opacity:1" fill="#2a405a" d="M 350.5,146.5 C 350.5,147.167 350.5,147.833 350.5,148.5C 350.5,282.167 350.5,415.833 350.5,549.5C 349.5,549.5 348.5,549.5 347.5,549.5C 349.496,416.377 350.162,283.044 349.5,149.5C 349.209,148.351 348.376,147.684 347,147.5C 327.989,147.549 308.823,147.549 289.5,147.5C 308.902,146.828 328.402,146.161 348,145.5C 348.671,146.252 349.504,146.586 350.5,146.5 Z"/></g>
<g><path style="opacity:1" fill="#2a4867" d="M 57.5,146.5 C 78.0069,146.17 98.3402,146.503 118.5,147.5C 119.089,151.971 118.423,155.971 116.5,159.5C 116.5,155.833 116.5,152.167 116.5,148.5C 97.0068,148.569 77.6735,148.569 58.5,148.5C 58.5,281.5 58.5,414.5 58.5,547.5C 60.5529,547.402 62.2196,548.069 63.5,549.5C 61.5,549.5 59.5,549.5 57.5,549.5C 57.5,415.5 57.5,281.5 57.5,147.5C 57.5,147.167 57.5,146.833 57.5,146.5 Z"/></g>
<g><path style="opacity:0.297" fill="#7e8085" d="M 57.5,146.5 C 57.5,146.833 57.5,147.167 57.5,147.5C 57.1667,147.5 56.8333,147.5 56.5,147.5C 52.1667,147.5 47.8333,147.5 43.5,147.5C 43.5,286.167 43.5,424.833 43.5,563.5C 150.5,563.5 257.5,563.5 364.5,563.5C 257.335,564.499 150.001,564.833 42.5,564.5C 42.5,425.167 42.5,285.833 42.5,146.5C 47.5,146.5 52.5,146.5 57.5,146.5 Z"/></g>
<g><path style="opacity:1" fill="#234a70" d="M 116.5,159.5 C 101.676,160.496 86.676,160.829 71.5,160.5C 71.1671,285.668 71.5004,410.668 72.5,535.5C 160.569,536.168 248.736,536.835 337,537.5C 337.202,512.811 338.035,488.144 339.5,463.5C 339.144,455.307 338.478,447.14 337.5,439C 338.051,433.818 338.717,428.652 339.5,423.5C 339.614,420.636 339.114,417.97 338,415.5C 336.951,384.013 337.451,352.68 339.5,321.5C 339.537,315.446 339.037,309.446 338,303.5C 337.5,255.501 337.333,207.501 337.5,159.5C 321.833,159.5 306.167,159.5 290.5,159.5C 290.5,155.833 290.5,152.167 290.5,148.5C 310.355,148.31 330.022,148.643 349.5,149.5C 350.162,283.044 349.496,416.377 347.5,549.5C 252.833,549.5 158.167,549.5 63.5,549.5C 62.2196,548.069 60.5529,547.402 58.5,547.5C 58.5,414.5 58.5,281.5 58.5,148.5C 77.6735,148.569 97.0068,148.569 116.5,148.5C 116.5,152.167 116.5,155.833 116.5,159.5 Z"/></g>
<g><path style="opacity:1" fill="#e2e1dd" d="M 131.5,175.5 C 132.167,175.5 132.5,175.833 132.5,176.5C 132.5,180.833 132.5,185.167 132.5,189.5C 131.515,185.366 131.182,181.032 131.5,176.5C 117.5,176.5 103.5,176.5 89.5,176.5C 88.7321,177.263 88.2321,178.263 88,179.5C 87.4263,292.306 87.4263,404.973 88,517.5C 88.5,518 89,518.5 89.5,519C 166.833,519.5 244.166,519.667 321.5,519.5C 243.335,520.499 165.002,520.833 86.5,520.5C 86.5,405.5 86.5,290.5 86.5,175.5C 101.5,175.5 116.5,175.5 131.5,175.5 Z"/></g>
<g><path style="opacity:1" fill="#252e36" d="M 325.5,175.5 C 327.085,176.474 328.085,177.974 328.5,180C 327.444,288.867 327.444,398.033 328.5,507.5C 328.023,508.931 327.357,510.264 326.5,511.5C 326.02,399.725 325.687,287.725 325.5,175.5 Z"/></g>
<g><path style="opacity:1" fill="#233a53" d="M 289.5,160.5 C 305.167,160.5 320.833,160.5 336.5,160.5C 336.833,285.668 336.5,410.668 335.5,535.5C 335.5,535.167 335.5,534.833 335.5,534.5C 335.5,410.167 335.5,285.833 335.5,161.5C 319.991,161.83 304.658,161.496 289.5,160.5 Z"/></g>
<g><path style="opacity:1" fill="#f5f1e6" d="M 275.5,175.5 C 290.833,175.5 306.167,175.5 321.5,175.5C 321.5,290.167 321.5,404.833 321.5,519.5C 244.166,519.667 166.833,519.5 89.5,519C 89,518.5 88.5,518 88,517.5C 87.4263,404.973 87.4263,292.306 88,179.5C 88.2321,178.263 88.7321,177.263 89.5,176.5C 89.0203,288.694 89.0203,400.361 89.5,511.5C 90.552,511.649 91.552,511.483 92.5,511C 93.0611,509.324 94.0611,507.991 95.5,507C 92.8333,506.333 92.8333,505.667 95.5,505C 92.5363,504.16 92.203,503.16 94.5,502C 93.3318,500.594 93.6652,499.428 95.5,498.5C 95.1543,497.304 94.6543,497.304 94,498.5C 93.1705,493.136 93.3372,487.802 94.5,482.5C 95.1735,484.689 96.1735,486.689 97.5,488.5C 94.5538,490.467 94.0538,492.8 96,495.5C 96.1911,501.083 96.6911,506.583 97.5,512C 95.3344,514.485 92.6678,514.985 89.5,513.5C 89.2275,515.958 90.2275,517.625 92.5,518.5C 141.36,518.477 190.193,517.81 239,516.5C 255.239,517.982 271.572,518.648 288,518.5C 298.5,518.167 309,517.833 319.5,517.5C 320.498,403.874 320.831,290.207 320.5,176.5C 305.833,176.5 291.167,176.5 276.5,176.5C 276.815,180.371 276.482,184.038 275.5,187.5C 275.5,183.833 275.5,180.167 275.5,176.5C 275.5,176.167 275.5,175.833 275.5,175.5 Z"/></g>
<g><path style="opacity:1" fill="#f5eede" d="M 89.5,176.5 C 103.5,176.5 117.5,176.5 131.5,176.5C 131.182,181.032 131.515,185.366 132.5,189.5C 180.512,190.162 228.178,189.495 275.5,187.5C 276.482,184.038 276.815,180.371 276.5,176.5C 291.167,176.5 305.833,176.5 320.5,176.5C 320.831,290.207 320.498,403.874 319.5,517.5C 309,517.833 298.5,518.167 288,518.5C 271.572,518.648 255.239,517.982 239,516.5C 190.193,517.81 141.36,518.477 92.5,518.5C 90.2275,517.625 89.2275,515.958 89.5,513.5C 92.6678,514.985 95.3344,514.485 97.5,512C 96.6911,506.583 96.1911,501.083 96,495.5C 94.0538,492.8 94.5538,490.467 97.5,488.5C 96.1735,486.689 95.1735,484.689 94.5,482.5C 93.3372,487.802 93.1705,493.136 94,498.5C 94.6543,497.304 95.1543,497.304 95.5,498.5C 93.6652,499.428 93.3318,500.594 94.5,502C 92.203,503.16 92.5363,504.16 95.5,505C 92.8333,505.667 92.8333,506.333 95.5,507C 94.0611,507.991 93.0611,509.324 92.5,511C 91.552,511.483 90.552,511.649 89.5,511.5C 89.0203,400.361 89.0203,288.694 89.5,176.5 Z"/></g>
<g><path style="opacity:1" fill="#7f7e7e" d="M 161.5,491.5 C 161.5,495.833 161.5,500.167 161.5,504.5C 190.167,504.5 218.833,504.5 247.5,504.5C 218.671,505.498 189.671,505.831 160.5,505.5C 160.181,500.637 160.514,495.97 161.5,491.5 Z"/></g>
<g><path style="opacity:1" fill="#888787" d="M 118.5,475.5 C 118.5,480.5 118.5,485.5 118.5,490.5C 114.5,490.5 110.5,490.5 106.5,490.5C 106.5,495.167 106.5,499.833 106.5,504.5C 119.167,504.5 131.833,504.5 144.5,504.5C 131.677,505.495 118.677,505.829 105.5,505.5C 105.5,500.167 105.5,494.833 105.5,489.5C 109.5,489.5 113.5,489.5 117.5,489.5C 117.181,484.637 117.514,479.97 118.5,475.5 Z"/></g>
<g><path style="opacity:1" fill="#282d38" d="M 161.5,491.5 C 190.167,491.5 218.833,491.5 247.5,491.5C 247.5,495.833 247.5,500.167 247.5,504.5C 218.833,504.5 190.167,504.5 161.5,504.5C 161.5,500.167 161.5,495.833 161.5,491.5 Z"/></g>
<g><path style="opacity:1" fill="#292d36" d="M 131.5,462.5 C 135.833,462.5 140.167,462.5 144.5,462.5C 144.5,476.5 144.5,490.5 144.5,504.5C 131.833,504.5 119.167,504.5 106.5,504.5C 106.5,499.833 106.5,495.167 106.5,490.5C 110.5,490.5 114.5,490.5 118.5,490.5C 118.5,485.5 118.5,480.5 118.5,475.5C 122.833,475.5 127.167,475.5 131.5,475.5C 131.5,471.167 131.5,466.833 131.5,462.5 Z"/></g>
<g><path style="opacity:1" fill="#f2f1e8" d="M 118.5,490.5 C 122.833,490.5 127.167,490.5 131.5,490.5C 131.5,491.833 131.5,493.167 131.5,494.5C 127.167,494.5 122.833,494.5 118.5,494.5C 118.5,493.167 118.5,491.833 118.5,490.5 Z"/></g>
<g><path style="opacity:1" fill="#929191" d="M 161.5,462.5 C 208.664,461.501 255.997,461.168 303.5,461.5C 303.5,466.5 303.5,471.5 303.5,476.5C 255.997,476.832 208.664,476.499 161.5,475.5C 208.5,475.5 255.5,475.5 302.5,475.5C 302.5,471.167 302.5,466.833 302.5,462.5C 255.5,462.5 208.5,462.5 161.5,462.5 Z"/></g>
<g><path style="opacity:1" fill="#272c37" d="M 161.5,462.5 C 208.5,462.5 255.5,462.5 302.5,462.5C 302.5,466.833 302.5,471.167 302.5,475.5C 255.5,475.5 208.5,475.5 161.5,475.5C 161.5,471.167 161.5,466.833 161.5,462.5 Z"/></g>
<g><path style="opacity:1" fill="#6a6b69" d="M 131.5,448.5 C 132.485,452.634 132.818,456.968 132.5,461.5C 136.702,461.183 140.702,461.517 144.5,462.5C 140.167,462.5 135.833,462.5 131.5,462.5C 122.651,462.826 113.984,462.493 105.5,461.5C 114.167,461.5 122.833,461.5 131.5,461.5C 131.5,457.167 131.5,452.833 131.5,448.5 Z"/></g>
<g><path style="opacity:1" fill="#292c36" d="M 131.5,448.5 C 131.5,452.833 131.5,457.167 131.5,461.5C 122.833,461.5 114.167,461.5 105.5,461.5C 105.5,457.167 105.5,452.833 105.5,448.5C 114.167,448.5 122.833,448.5 131.5,448.5 Z"/></g>
<g><path style="opacity:1" fill="#2e2f32" d="M 161.5,421.5 C 190.167,421.5 218.833,421.5 247.5,421.5C 247.5,426.167 247.5,430.833 247.5,435.5C 218.833,435.5 190.167,435.5 161.5,435.5C 161.5,430.833 161.5,426.167 161.5,421.5 Z"/></g>
<g><path style="opacity:1" fill="#272c39" d="M 162.5,422.5 C 190.532,422.192 218.532,422.525 246.5,423.5C 246.789,427.106 246.456,430.606 245.5,434C 217.833,434.667 190.167,434.667 162.5,434C 162.642,430.379 162.642,426.545 162.5,422.5 Z"/></g>
<g><path style="opacity:1" fill="#5d5b5d" d="M 302.5,407.5 C 302.5,403.167 302.5,398.833 302.5,394.5C 255.5,394.5 208.5,394.5 161.5,394.5C 161.5,398.833 161.5,403.167 161.5,407.5C 160.514,403.03 160.181,398.363 160.5,393.5C 208.167,393.5 255.833,393.5 303.5,393.5C 303.819,398.363 303.486,403.03 302.5,407.5 Z"/></g>
<g><path style="opacity:1" fill="#282d38" d="M 302.5,407.5 C 255.5,407.5 208.5,407.5 161.5,407.5C 161.5,403.167 161.5,398.833 161.5,394.5C 208.5,394.5 255.5,394.5 302.5,394.5C 302.5,398.833 302.5,403.167 302.5,407.5 Z"/></g>
<g><path style="opacity:1" fill="#f1ece2" d="M 105.5,394.5 C 114.167,394.5 122.833,394.5 131.5,394.5C 131.5,398.833 131.5,403.167 131.5,407.5C 127.167,407.5 122.833,407.5 118.5,407.5C 118.5,412.167 118.5,416.833 118.5,421.5C 114.167,421.5 109.833,421.5 105.5,421.5C 105.5,426.167 105.5,430.833 105.5,435.5C 118.5,435.5 131.5,435.5 144.5,435.5C 144.5,430.833 144.5,426.167 144.5,421.5C 140.5,421.5 136.5,421.5 132.5,421.5C 132.5,416.833 132.5,412.167 132.5,407.5C 136.5,407.5 140.5,407.5 144.5,407.5C 144.5,402.833 144.5,398.167 144.5,393.5C 140.5,393.5 136.5,393.5 132.5,393.5C 132.5,389.167 132.5,384.833 132.5,380.5C 123.833,380.5 115.167,380.5 106.5,380.5C 113.345,379.833 120.345,379.167 127.5,378.5C 126.975,377.808 126.308,377.308 125.5,377C 121.167,376.667 116.833,376.333 112.5,376C 111.464,374.383 110.297,374.216 109,375.5C 107.333,374.5 105.667,373.5 104,372.5C 103.517,371.552 103.351,370.552 103.5,369.5C 105.199,369.66 106.866,369.494 108.5,369C 107.234,368.691 106.067,368.191 105,367.5C 104.501,362.177 104.334,356.844 104.5,351.5C 107.909,351.751 111.242,351.417 114.5,350.5C 114.538,347.309 114.871,343.976 115.5,340.5C 112.482,340.665 109.482,340.498 106.5,340C 104.671,339.727 103.171,338.893 102,337.5C 102.642,332.602 103.809,327.935 105.5,323.5C 105.5,327.833 105.5,332.167 105.5,336.5C 109.833,336.5 114.167,336.5 118.5,336.5C 118.5,341.833 118.5,347.167 118.5,352.5C 114.167,352.5 109.833,352.5 105.5,352.5C 105.5,356.833 105.5,361.167 105.5,365.5C 118.323,366.495 131.323,366.829 144.5,366.5C 144.819,361.637 144.486,356.97 143.5,352.5C 139.833,352.5 136.167,352.5 132.5,352.5C 132.5,338.167 132.5,323.833 132.5,309.5C 127.833,309.5 123.167,309.5 118.5,309.5C 118.5,313.833 118.5,318.167 118.5,322.5C 114.167,322.5 109.833,322.5 105.5,322.5C 108.625,321.521 111.958,321.187 115.5,321.5C 115.775,318.039 116.108,314.539 116.5,311C 115.99,309.174 115.156,309.007 114,310.5C 111.644,308.013 112.144,306.347 115.5,305.5C 115.109,306.891 115.942,307.891 118,308.5C 121.862,306.995 125.862,305.995 130,305.5C 132.099,306.466 133.932,307.8 135.5,309.5C 134.333,323.417 134.333,337.084 135.5,350.5C 139.106,350.789 142.606,350.456 146,349.5C 146.374,350.416 146.874,351.25 147.5,352C 146.711,354.267 146.044,356.6 145.5,359C 146.738,361.715 146.738,364.382 145.5,367C 140.921,368.16 136.254,368.993 131.5,369.5C 124.41,368.552 117.077,368.385 109.5,369C 111.037,370.11 111.703,371.61 111.5,373.5C 116.875,373.172 122.208,373.505 127.5,374.5C 131.661,377.758 135.661,381.258 139.5,385C 139,385.5 138.5,386 138,386.5C 136.644,385.62 135.144,385.286 133.5,385.5C 133.5,387.5 133.5,389.5 133.5,391.5C 137.6,391.476 141.6,390.809 145.5,389.5C 147.27,390.856 148.936,392.356 150.5,394C 149.5,394.333 148.5,394.667 147.5,395C 148.602,397.401 148.769,399.901 148,402.5C 146.853,405.618 145.52,408.618 144,411.5C 143.326,410.422 142.326,409.755 141,409.5C 138.551,409.861 136.218,410.528 134,411.5C 134.158,414.179 134.658,416.846 135.5,419.5C 137.857,419.663 140.19,419.497 142.5,419C 143.191,417.933 143.691,416.766 144,415.5C 145.093,417.972 146.76,419.972 149,421.5C 148.236,426.145 148.403,430.812 149.5,435.5C 148.974,437.23 147.974,438.564 146.5,439.5C 145.808,438.975 145.308,438.308 145,437.5C 144.612,438.428 143.945,439.095 143,439.5C 132.333,439.5 121.667,439.5 111,439.5C 110.055,439.095 109.388,438.428 109,437.5C 108.692,438.308 108.192,438.975 107.5,439.5C 106.575,438.359 105.741,438.359 105,439.5C 101.705,436.532 101.205,433.365 103.5,430C 100.447,425.034 100.947,420.534 105,416.5C 109.406,421.957 113.573,421.791 117.5,416C 115.462,412.301 115.462,408.801 117.5,405.5C 118.667,405.167 119.833,404.833 121,404.5C 128.204,407.462 131.037,405.129 129.5,397.5C 121.5,397.5 113.5,397.5 105.5,397.5C 105.5,396.5 105.5,395.5 105.5,394.5 Z"/></g>
<g><path style="opacity:1" fill="#2b2f39" d="M 131.5,407.5 C 131.833,407.5 132.167,407.5 132.5,407.5C 132.5,412.167 132.5,416.833 132.5,421.5C 136.5,421.5 140.5,421.5 144.5,421.5C 144.5,426.167 144.5,430.833 144.5,435.5C 131.5,435.5 118.5,435.5 105.5,435.5C 105.5,430.833 105.5,426.167 105.5,421.5C 109.833,421.5 114.167,421.5 118.5,421.5C 118.5,416.833 118.5,412.167 118.5,407.5C 122.833,407.5 127.167,407.5 131.5,407.5 Z"/></g>
<g><path style="opacity:1" fill="#282c34" d="M 105.5,381.5 C 114.167,381.5 122.833,381.5 131.5,381.5C 131.183,385.702 131.517,389.702 132.5,393.5C 136.5,393.5 140.5,393.5 144.5,393.5C 144.5,398.167 144.5,402.833 144.5,407.5C 140.5,407.5 136.5,407.5 132.5,407.5C 132.167,407.5 131.833,407.5 131.5,407.5C 131.5,403.167 131.5,398.833 131.5,394.5C 122.833,394.5 114.167,394.5 105.5,394.5C 105.5,390.167 105.5,385.833 105.5,381.5 Z"/></g>
<g><path style="opacity:1" fill="#b3b2ae" d="M 105.5,381.5 C 105.5,380.833 105.833,380.5 106.5,380.5C 115.167,380.5 123.833,380.5 132.5,380.5C 132.5,384.833 132.5,389.167 132.5,393.5C 131.517,389.702 131.183,385.702 131.5,381.5C 122.833,381.5 114.167,381.5 105.5,381.5 Z"/></g>
<g><path style="opacity:1" fill="#565755" d="M 161.5,352.5 C 161.5,356.833 161.5,361.167 161.5,365.5C 195.167,365.5 228.833,365.5 262.5,365.5C 262.5,361.167 262.5,356.833 262.5,352.5C 263.486,356.97 263.819,361.637 263.5,366.5C 229.167,366.5 194.833,366.5 160.5,366.5C 160.181,361.637 160.514,356.97 161.5,352.5 Z"/></g>
<g><path style="opacity:1" fill="#4c4e4c" d="M 143.5,352.5 C 144.486,356.97 144.819,361.637 144.5,366.5C 131.323,366.829 118.323,366.495 105.5,365.5C 118.167,365.5 130.833,365.5 143.5,365.5C 143.5,361.167 143.5,356.833 143.5,352.5 Z"/></g>
<g><path style="opacity:1" fill="#282c38" d="M 161.5,352.5 C 195.167,352.5 228.833,352.5 262.5,352.5C 262.5,356.833 262.5,361.167 262.5,365.5C 228.833,365.5 195.167,365.5 161.5,365.5C 161.5,361.167 161.5,356.833 161.5,352.5 Z"/></g>
<g><path style="opacity:1" fill="#2b2f38" d="M 143.5,352.5 C 143.5,356.833 143.5,361.167 143.5,365.5C 130.833,365.5 118.167,365.5 105.5,365.5C 105.5,361.167 105.5,356.833 105.5,352.5C 109.833,352.5 114.167,352.5 118.5,352.5C 118.5,347.167 118.5,341.833 118.5,336.5C 114.167,336.5 109.833,336.5 105.5,336.5C 105.5,332.167 105.5,327.833 105.5,323.5C 105.5,323.167 105.5,322.833 105.5,322.5C 109.833,322.5 114.167,322.5 118.5,322.5C 118.5,318.167 118.5,313.833 118.5,309.5C 123.167,309.5 127.833,309.5 132.5,309.5C 132.5,323.833 132.5,338.167 132.5,352.5C 136.167,352.5 139.833,352.5 143.5,352.5 Z"/></g>
<g><path style="opacity:1" fill="#eeeae1" d="M 162.5,318.5 C 165.693,319.011 168.859,319.678 172,320.5C 173.658,320.325 174.991,319.658 176,318.5C 176.667,321.167 177.333,321.167 178,318.5C 180,319.833 182,319.833 184,318.5C 184.667,321.167 185.333,321.167 186,318.5C 187.333,321.167 188.667,321.167 190,318.5C 190.5,319 191,319.5 191.5,320C 205.5,320.167 219.5,320.333 233.5,320.5C 247.888,320.491 262.055,319.825 276,318.5C 276.667,321.167 277.333,321.167 278,318.5C 281.592,319.325 284.925,319.325 288,318.5C 292.87,320.254 298.037,321.087 303.5,321C 304.167,326 304.833,331 305.5,336C 304.833,337.333 303.833,338.333 302.5,339C 290.157,339.296 277.823,339.796 265.5,340.5C 259.428,341.159 253.428,340.492 247.5,338.5C 231.699,340.445 215.866,340.445 200,338.5C 195.945,338.351 192.112,339.018 188.5,340.5C 179.099,340.02 169.599,340.02 160,340.5C 157.547,337.292 157.38,334.125 159.5,331C 158.213,327.875 158.213,324.709 159.5,321.5C 160.855,320.812 161.855,319.812 162.5,318.5 Z"/></g>
<g><path style="opacity:1" fill="#272b36" d="M 161.5,322.5 C 208.833,322.5 256.167,322.5 303.5,322.5C 303.5,327.167 303.5,331.833 303.5,336.5C 256.167,336.5 208.833,336.5 161.5,336.5C 161.5,331.833 161.5,327.167 161.5,322.5 Z"/></g>
<g><path style="opacity:1" fill="#c2453e" d="M 218.5,233.5 C 228.167,233.5 237.833,233.5 247.5,233.5C 247.5,243.5 247.5,253.5 247.5,263.5C 237.833,263.5 228.167,263.5 218.5,263.5C 218.5,273.5 218.5,283.5 218.5,293.5C 208.833,293.5 199.167,293.5 189.5,293.5C 189.5,283.5 189.5,273.5 189.5,263.5C 190.494,272.652 190.827,281.985 190.5,291.5C 199.167,291.5 207.833,291.5 216.5,291.5C 216.182,281.917 216.515,272.417 217.5,263C 227.161,262.5 236.828,262.334 246.5,262.5C 246.5,253.167 246.5,243.833 246.5,234.5C 236.985,234.827 227.652,234.494 218.5,233.5 Z"/></g>
<g><path style="opacity:1" fill="#c54840" d="M 189.5,233.5 C 189.762,234.978 189.429,236.311 188.5,237.5C 185.7,236.268 182.7,235.601 179.5,235.5C 173.792,236.541 168.125,236.541 162.5,235.5C 162.5,244.5 162.5,253.5 162.5,262.5C 171.682,262.173 180.682,262.507 189.5,263.5C 180.167,263.5 170.833,263.5 161.5,263.5C 161.5,253.5 161.5,243.5 161.5,233.5C 170.833,233.5 180.167,233.5 189.5,233.5 Z"/></g>
<g><path style="opacity:1" fill="#d53630" d="M 218.5,233.5 C 227.652,234.494 236.985,234.827 246.5,234.5C 246.5,243.833 246.5,253.167 246.5,262.5C 236.828,262.334 227.161,262.5 217.5,263C 216.515,272.417 216.182,281.917 216.5,291.5C 207.833,291.5 199.167,291.5 190.5,291.5C 190.827,281.985 190.494,272.652 189.5,263.5C 180.682,262.507 171.682,262.173 162.5,262.5C 162.5,253.5 162.5,244.5 162.5,235.5C 168.125,236.541 173.792,236.541 179.5,235.5C 182.7,235.601 185.7,236.268 188.5,237.5C 189.429,236.311 189.762,234.978 189.5,233.5C 190.494,224.348 190.827,215.015 190.5,205.5C 199.221,205.196 207.888,205.529 216.5,206.5C 217.167,215.658 217.833,224.658 218.5,233.5 Z"/></g>
<g><path style="opacity:1" fill="#a83731" d="M 218.5,233.5 C 217.833,224.658 217.167,215.658 216.5,206.5C 207.888,205.529 199.221,205.196 190.5,205.5C 190.827,215.015 190.494,224.348 189.5,233.5C 189.5,223.833 189.5,214.167 189.5,204.5C 199.167,204.5 208.833,204.5 218.5,204.5C 218.5,214.167 218.5,223.833 218.5,233.5 Z"/></g>
<g><path style="opacity:1" fill="#292d38" d="M 132.5,176.5 C 180.167,176.5 227.833,176.5 275.5,176.5C 275.5,180.167 275.5,183.833 275.5,187.5C 228.178,189.495 180.512,190.162 132.5,189.5C 132.5,185.167 132.5,180.833 132.5,176.5 Z"/></g>
</svg>
