<?xml version="1.0" encoding="UTF-8"?>
<svg version="1.1" xmlns="http://www.w3.org/2000/svg" width="499" height="499">
<path d="M0 0 C18.15 0 36.3 0 55 0 C55 2.64 55 5.28 55 8 C56.60681641 7.98259766 56.60681641 7.98259766 58.24609375 7.96484375 C59.64322743 7.95546701 61.04036299 7.94636669 62.4375 7.9375 C63.14455078 7.92912109 63.85160156 7.92074219 64.58007812 7.91210938 C66.38693559 7.90346412 68.19387603 7.94779989 70 8 C71 9 71 9 71.0625 12.0625 C71.041875 13.031875 71.02125 14.00125 71 15 C71.99902344 14.98839844 72.99804688 14.97679688 74.02734375 14.96484375 C75.31769531 14.95582031 76.60804688 14.94679688 77.9375 14.9375 C79.22527344 14.92589844 80.51304687 14.91429688 81.83984375 14.90234375 C85 15 85 15 86 16 C86.04092937 18.33297433 86.04241723 20.66705225 86 23 C88.31 23 90.62 23 93 23 C93 25.64 93 28.28 93 31 C95.64 31 98.28 31 101 31 C101 33.31 101 35.62 101 38 C102.7015625 37.9690625 102.7015625 37.9690625 104.4375 37.9375 C108 38 108 38 109 39 C109.04092937 41.33297433 109.04241723 43.66705225 109 46 C111.31 46 113.62 46 116 46 C116 48.64 116 51.28 116 54 C118.64 54 121.28 54 124 54 C124 58.95 124 63.9 124 69 C126.31 69 128.62 69 131 69 C132.06723961 72.46222615 132.10173486 75.64039266 132.0625 79.25 C132.05347656 80.32765625 132.04445313 81.4053125 132.03515625 82.515625 C132.01775391 83.74539062 132.01775391 83.74539062 132 85 C134.31 85 136.62 85 139 85 C139 105.79 139 126.58 139 148 C136.69 148 134.38 148 132 148 C132.01160156 148.74765625 132.02320313 149.4953125 132.03515625 150.265625 C132.04417969 151.25046875 132.05320312 152.2353125 132.0625 153.25 C132.07410156 154.22453125 132.08570313 155.1990625 132.09765625 156.203125 C132.01195577 158.65758678 131.70706066 160.66168914 131 163 C128.69 163 126.38 163 124 163 C124 167.95 124 172.9 124 178 C121.36 178 118.72 178 116 178 C116 179.98 116 181.96 116 184 C117.7015625 183.9690625 117.7015625 183.9690625 119.4375 183.9375 C123 184 123 184 124 185 C124.04092937 187.33297433 124.04241723 189.66705225 124 192 C126.31 192 128.62 192 131 192 C131.33 194.64 131.66 197.28 132 200 C133.98 200 135.96 200 138 200 C138 197.36 138 194.72 138 192 C143.28 192 148.56 192 154 192 C154.33 194.31 154.66 196.62 155 199 C157.31 199.33 159.62 199.66 162 200 C162 202.31 162 204.62 162 207 C163.7015625 206.9690625 163.7015625 206.9690625 165.4375 206.9375 C169 207 169 207 170 208 C170.04092937 210.33297433 170.04241723 212.66705225 170 215 C172.31 215 174.62 215 177 215 C177 217.64 177 220.28 177 223 C179.64 223 182.28 223 185 223 C185 225.31 185 227.62 185 230 C186.7015625 229.9690625 186.7015625 229.9690625 188.4375 229.9375 C192 230 192 230 193 231 C193.04092937 233.33297433 193.04241723 235.66705225 193 238 C195.64 238 198.28 238 201 238 C201 240.64 201 243.28 201 246 C202.7015625 245.9690625 202.7015625 245.9690625 204.4375 245.9375 C208 246 208 246 209 247 C209.04092937 249.33297433 209.04241723 251.66705225 209 254 C211.31 254 213.62 254 216 254 C216 256.31 216 258.62 216 261 C217.423125 260.9690625 217.423125 260.9690625 218.875 260.9375 C222 261 222 261 224 262 C224 264.31 224 266.62 224 269 C225.7015625 268.9690625 225.7015625 268.9690625 227.4375 268.9375 C231 269 231 269 232 270 C232.04092937 272.33297433 232.04241723 274.66705225 232 277 C234.31 277 236.62 277 239 277 C239 279.31 239 281.62 239 284 C240.423125 283.9690625 240.423125 283.9690625 241.875 283.9375 C245 284 245 284 247 285 C247 287.31 247 289.62 247 292 C249.31 292 251.62 292 254 292 C254.33 294.31 254.66 296.62 255 299 C257.31 299.33 259.62 299.66 262 300 C262 302.31 262 304.62 262 307 C263.7015625 306.9690625 263.7015625 306.9690625 265.4375 306.9375 C269 307 269 307 270 308 C270.07319621 310.69654854 270.09242537 313.36691458 270.0625 316.0625 C270.05798828 316.82111328 270.05347656 317.57972656 270.04882812 318.36132812 C270.0370068 320.24091871 270.01907078 322.12046899 270 324 C267.36 324 264.72 324 262 324 C262 326.64 262 329.28 262 332 C259.69 332 257.38 332 255 332 C255.04125 332.94875 255.0825 333.8975 255.125 334.875 C255 338 255 338 253 340 C249.875 340.125 249.875 340.125 247 340 C247 342.31 247 344.62 247 347 C244.36 347 241.72 347 239 347 C239 349.64 239 352.28 239 355 C236.35409986 355.02684679 233.70846904 355.04676357 231.0625 355.0625 C230.30775391 355.07087891 229.55300781 355.07925781 228.77539062 355.08789062 C226.85005687 355.09652441 224.92464419 355.05224333 223 355 C222 354 222 354 221.9375 350.4375 C221.9684375 348.7359375 221.9684375 348.7359375 222 347 C219.69 347 217.38 347 215 347 C215 344.69 215 342.38 215 340 C213.2984375 340.0309375 213.2984375 340.0309375 211.5625 340.0625 C208 340 208 340 207 339 C206.95907063 336.66702567 206.95758277 334.33294775 207 332 C204.69 332 202.38 332 200 332 C198.64560332 329.29120665 198.93498549 326.99066732 199 324 C196.69 324 194.38 324 192 324 C192 321.69 192 319.38 192 317 C190.2984375 317.0309375 190.2984375 317.0309375 188.5625 317.0625 C185 317 185 317 184 316 C183.95907063 313.66702567 183.95758277 311.33294775 184 309 C181.69 309 179.38 309 177 309 C175.64560332 306.29120665 175.93498549 303.99066732 176 301 C173.69 301 171.38 301 169 301 C169 298.69 169 296.38 169 294 C167.2984375 294.0309375 167.2984375 294.0309375 165.5625 294.0625 C162 294 162 294 161 293 C160.95907063 290.66702567 160.95758277 288.33294775 161 286 C158.36 286 155.72 286 153 286 C153 283.36 153 280.72 153 278 C151.2984375 278.0309375 151.2984375 278.0309375 149.5625 278.0625 C146 278 146 278 145 277 C144.95907063 274.66702567 144.95758277 272.33294775 145 270 C142.69 270 140.38 270 138 270 C137.67 267.36 137.34 264.72 137 262 C134.69 262 132.38 262 130 262 C130 259.69 130 257.38 130 255 C128.2984375 255.0309375 128.2984375 255.0309375 126.5625 255.0625 C123 255 123 255 122 254 C121.95907063 251.66702567 121.95758277 249.33294775 122 247 C119.69 247 117.38 247 115 247 C114.67 244.69 114.34 242.38 114 240 C111.69 239.67 109.38 239.34 107 239 C107 233.72 107 228.44 107 223 C109.64 223 112.28 223 115 223 C114.67 221.02 114.34 219.04 114 217 C111.69 216.67 109.38 216.34 107 216 C107 213.69 107 211.38 107 209 C105.2984375 209.0309375 105.2984375 209.0309375 103.5625 209.0625 C100 209 100 209 99 208 C98.95907063 205.66702567 98.95758277 203.33294775 99 201 C97.02 201 95.04 201 93 201 C93 203.64 93 206.28 93 209 C90.69 209 88.38 209 86 209 C86 211.31 86 213.62 86 216 C81.05 216.33 76.1 216.66 71 217 C70.67 219.31 70.34 221.62 70 224 C65.05 224 60.1 224 55 224 C55 226.64 55 229.28 55 232 C36.85 232 18.7 232 0 232 C0 229.36 0 226.72 0 224 C-5.28 224 -10.56 224 -16 224 C-16 221.69 -16 219.38 -16 217 C-20.95 216.67 -25.9 216.34 -31 216 C-31 213.69 -31 211.38 -31 209 C-32.7015625 209.0309375 -32.7015625 209.0309375 -34.4375 209.0625 C-38 209 -38 209 -39 208 C-39.04092937 205.66702567 -39.04241723 203.33294775 -39 201 C-41.64 201 -44.28 201 -47 201 C-47 198.69 -47 196.38 -47 194 C-48.4540625 194.0309375 -48.4540625 194.0309375 -49.9375 194.0625 C-53 194 -53 194 -54 193 C-54.04092937 190.66702567 -54.04241723 188.33294775 -54 186 C-56.64 186 -59.28 186 -62 186 C-62 183.36 -62 180.72 -62 178 C-63.7015625 178.0309375 -63.7015625 178.0309375 -65.4375 178.0625 C-69 178 -69 178 -70 177 C-70.07271741 174.64686445 -70.08370868 172.29166332 -70.0625 169.9375 C-70.05347656 168.64714844 -70.04445313 167.35679687 -70.03515625 166.02734375 C-70.02355469 165.02832031 -70.01195313 164.02929688 -70 163 C-72.31 163 -74.62 163 -77 163 C-77 158.05 -77 153.1 -77 148 C-79.31 148 -81.62 148 -84 148 C-85 147 -85 147 -85.12025452 144.52598572 C-85.11803391 143.42678299 -85.11581329 142.32758026 -85.11352539 141.19506836 C-85.11344986 139.95385727 -85.11337433 138.71264618 -85.11329651 137.43382263 C-85.10818911 136.0691626 -85.1029731 134.70450298 -85.09765625 133.33984375 C-85.095792 131.95121817 -85.09436813 130.56259193 -85.09336853 129.17396545 C-85.08954387 125.51278885 -85.07971403 121.8516517 -85.06866455 118.19049072 C-85.05844932 114.45707737 -85.05387067 110.72365766 -85.04882812 106.99023438 C-85.03809171 99.66013823 -85.02101591 92.33007464 -85 85 C-82.36 85 -79.72 85 -77 85 C-77 79.72 -77 74.44 -77 69 C-74.69 69 -72.38 69 -70 69 C-70.01160156 68.00097656 -70.02320312 67.00195312 -70.03515625 65.97265625 C-70.04417969 64.68230469 -70.05320312 63.39195312 -70.0625 62.0625 C-70.07410156 60.77472656 -70.08570312 59.48695313 -70.09765625 58.16015625 C-70 55 -70 55 -69 54 C-66.66702567 53.95907063 -64.33294775 53.95758277 -62 54 C-62 51.36 -62 48.72 -62 46 C-59.36 46 -56.72 46 -54 46 C-54 43.36 -54 40.72 -54 38 C-51.69 38 -49.38 38 -47 38 C-47 35.69 -47 33.38 -47 31 C-44.36 31 -41.72 31 -39 31 C-39 28.36 -39 25.72 -39 23 C-36.36 23 -33.72 23 -31 23 C-31 20.69 -31 18.38 -31 16 C-26.05 15.67 -21.1 15.34 -16 15 C-16 12.69 -16 10.38 -16 8 C-10.72 8 -5.44 8 0 8 C0 5.36 0 2.72 0 0 Z " fill="#5B5A5B" transform="translate(157,72)"/>
<path d="M0 0 C12.54 0 25.08 0 38 0 C38 2.64 38 5.28 38 8 C42.95 8 47.9 8 53 8 C53 10.31 53 12.62 53 15 C58.28 15 63.56 15 69 15 C69 17.64 69 20.28 69 23 C71.64 23 74.28 23 77 23 C77 25.64 77 28.28 77 31 C79.64 31 82.28 31 85 31 C85 35.95 85 40.9 85 46 C87.31 46 89.62 46 92 46 C92 50.95 92 55.9 92 61 C94.64 61 97.28 61 100 61 C100 76.18 100 91.36 100 107 C97.36 107 94.72 107 92 107 C92 111.95 92 116.9 92 122 C89.69 122 87.38 122 85 122 C85 127.28 85 132.56 85 138 C82.36 138 79.72 138 77 138 C77 140.64 77 143.28 77 146 C74.36 146 71.72 146 69 146 C69 148.31 69 150.62 69 153 C63.72 153 58.44 153 53 153 C53 155.64 53 158.28 53 161 C48.05 161 43.1 161 38 161 C38 163.64 38 166.28 38 169 C25.46 169 12.92 169 0 169 C0 166.36 0 163.72 0 161 C-4.95 161 -9.9 161 -15 161 C-15 158.36 -15 155.72 -15 153 C-19.95 153 -24.9 153 -30 153 C-30 150.69 -30 148.38 -30 146 C-32.64 146 -35.28 146 -38 146 C-38 143.36 -38 140.72 -38 138 C-40.64 138 -43.28 138 -46 138 C-46 132.72 -46 127.44 -46 122 C-48.31 122 -50.62 122 -53 122 C-53 117.05 -53 112.1 -53 107 C-55.64 107 -58.28 107 -61 107 C-61 91.82 -61 76.64 -61 61 C-58.36 61 -55.72 61 -53 61 C-53 56.05 -53 51.1 -53 46 C-50.69 46 -48.38 46 -46 46 C-46 41.05 -46 36.1 -46 31 C-43.36 31 -40.72 31 -38 31 C-38 28.36 -38 25.72 -38 23 C-35.69 23 -33.38 23 -31 23 C-31.0309375 21.2984375 -31.0309375 21.2984375 -31.0625 19.5625 C-31 16 -31 16 -30 15 C-27.46950598 14.92686433 -24.96695163 14.90752473 -22.4375 14.9375 C-21.72658203 14.94201172 -21.01566406 14.94652344 -20.28320312 14.95117188 C-18.52209987 14.96299136 -16.76103964 14.98092737 -15 15 C-15 12.69 -15 10.38 -15 8 C-10.05 8 -5.1 8 0 8 C0 5.36 0 2.72 0 0 Z " fill="#E3E8F1" transform="translate(165,104)"/>
<path d="M0 0 C5.28 0 10.56 0 16 0 C16.495 3.465 16.495 3.465 17 7 C19.31 7.33 21.62 7.66 24 8 C24 10.31 24 12.62 24 15 C25.7015625 14.9690625 25.7015625 14.9690625 27.4375 14.9375 C31 15 31 15 32 16 C32.04092937 18.33297433 32.04241723 20.66705225 32 23 C34.31 23 36.62 23 39 23 C39 25.64 39 28.28 39 31 C41.64 31 44.28 31 47 31 C47 33.31 47 35.62 47 38 C48.7015625 37.9690625 48.7015625 37.9690625 50.4375 37.9375 C54 38 54 38 55 39 C55.04092937 41.33297433 55.04241723 43.66705225 55 46 C57.64 46 60.28 46 63 46 C63 48.64 63 51.28 63 54 C64.7015625 53.9690625 64.7015625 53.9690625 66.4375 53.9375 C70 54 70 54 71 55 C71.04092937 57.33297433 71.04241723 59.66705225 71 62 C73.31 62 75.62 62 78 62 C78 64.31 78 66.62 78 69 C78.94875 68.979375 79.8975 68.95875 80.875 68.9375 C84 69 84 69 86 70 C86 72.31 86 74.62 86 77 C87.134375 76.979375 88.26875 76.95875 89.4375 76.9375 C93 77 93 77 94 78 C94.04092937 80.33297433 94.04241723 82.66705225 94 85 C96.31 85 98.62 85 101 85 C101 87.31 101 89.62 101 92 C101.94875 91.979375 102.8975 91.95875 103.875 91.9375 C107 92 107 92 109 93 C109 95.31 109 97.62 109 100 C111.31 100 113.62 100 116 100 C116.33 102.31 116.66 104.62 117 107 C119.31 107.33 121.62 107.66 124 108 C124 110.31 124 112.62 124 115 C125.134375 114.979375 126.26875 114.95875 127.4375 114.9375 C131 115 131 115 132 116 C132.07319621 118.69654854 132.09242537 121.36691458 132.0625 124.0625 C132.05798828 124.82111328 132.05347656 125.57972656 132.04882812 126.36132812 C132.0370068 128.24091871 132.01907078 130.12046899 132 132 C129.36 132 126.72 132 124 132 C124 134.64 124 137.28 124 140 C121.69 140 119.38 140 117 140 C117.04125 140.94875 117.0825 141.8975 117.125 142.875 C117 146 117 146 115 148 C111.875 148.125 111.875 148.125 109 148 C109 150.31 109 152.62 109 155 C106.36 155 103.72 155 101 155 C101 157.64 101 160.28 101 163 C98.35409986 163.02684679 95.70846904 163.04676357 93.0625 163.0625 C92.30775391 163.07087891 91.55300781 163.07925781 90.77539062 163.08789062 C88.85005687 163.09652441 86.92464419 163.05224333 85 163 C84 162 84 162 83.9375 158.4375 C83.958125 157.303125 83.97875 156.16875 84 155 C81.69 155 79.38 155 77 155 C77 152.69 77 150.38 77 148 C75.2984375 148.0309375 75.2984375 148.0309375 73.5625 148.0625 C70 148 70 148 69 147 C68.95907063 144.66702567 68.95758277 142.33294775 69 140 C66.69 140 64.38 140 62 140 C60.64560332 137.29120665 60.93498549 134.99066732 61 132 C58.69 132 56.38 132 54 132 C54 129.69 54 127.38 54 125 C52.865625 125.020625 51.73125 125.04125 50.5625 125.0625 C47 125 47 125 46 124 C45.95907063 121.66702567 45.95758277 119.33294775 46 117 C43.69 117 41.38 117 39 117 C37.64560332 114.29120665 37.93498549 111.99066732 38 109 C35.69 109 33.38 109 31 109 C31 106.69 31 104.38 31 102 C29.865625 102.020625 28.73125 102.04125 27.5625 102.0625 C24 102 24 102 23 101 C22.95907063 98.66702567 22.95758277 96.33294775 23 94 C20.36 94 17.72 94 15 94 C15 91.36 15 88.72 15 86 C13.865625 86.020625 12.73125 86.04125 11.5625 86.0625 C8 86 8 86 7 85 C6.95907063 82.66702567 6.95758277 80.33294775 7 78 C4.69 78 2.38 78 0 78 C-0.33 75.36 -0.66 72.72 -1 70 C-3.31 70 -5.62 70 -8 70 C-8 67.69 -8 65.38 -8 63 C-9.7015625 63.0309375 -9.7015625 63.0309375 -11.4375 63.0625 C-15 63 -15 63 -16 62 C-16.04092937 59.66702567 -16.04241723 57.33294775 -16 55 C-18.31 55 -20.62 55 -23 55 C-23.33 52.69 -23.66 50.38 -24 48 C-26.31 47.67 -28.62 47.34 -31 47 C-31 41.72 -31 36.44 -31 31 C-28.36 31 -25.72 31 -23 31 C-23.33 28.69 -23.66 26.38 -24 24 C-18.39 24 -12.78 24 -7 24 C-7 21.36 -7 18.72 -7 16 C-4.69 16 -2.38 16 0 16 C0 13.69 0 11.38 0 9 C-2.31 9 -4.62 9 -7 9 C-6.67 8.01 -6.34 7.02 -6 6 C-6 6.66 -6 7.32 -6 8 C-4.02 8 -2.04 8 0 8 C0 5.36 0 2.72 0 0 Z " fill="#7C3E2F" transform="translate(295,264)"/>
<path d="M0 0 C12.54 0 25.08 0 38 0 C38 2.64 38 5.28 38 8 C42.95 8 47.9 8 53 8 C53 10.31 53 12.62 53 15 C58.28 15 63.56 15 69 15 C69 17.64 69 20.28 69 23 C71.64 23 74.28 23 77 23 C77 25.64 77 28.28 77 31 C79.64 31 82.28 31 85 31 C85 35.95 85 40.9 85 46 C87.31 46 89.62 46 92 46 C92 50.95 92 55.9 92 61 C94.64 61 97.28 61 100 61 C100 76.18 100 91.36 100 107 C97.36 107 94.72 107 92 107 C92 111.95 92 116.9 92 122 C89.69 122 87.38 122 85 122 C85 127.28 85 132.56 85 138 C82.36 138 79.72 138 77 138 C77 140.64 77 143.28 77 146 C74.36 146 71.72 146 69 146 C69 148.31 69 150.62 69 153 C66.52076199 153.02685095 64.0418116 153.04676547 61.5625 153.0625 C60.85544922 153.07087891 60.14839844 153.07925781 59.41992188 153.08789062 C57.61306441 153.09653588 55.80612397 153.05220011 54 153 C53 152 53 152 52.90234375 148.83984375 C52.93489583 145.2265625 52.96744792 141.61328125 53 138 C58.28 138 63.56 138 69 138 C69 132.72 69 127.44 69 122 C71.64 122 74.28 122 77 122 C77 117.05 77 112.1 77 107 C79.64 107 82.28 107 85 107 C85 91.82 85 76.64 85 61 C82.36 61 79.72 61 77 61 C77 56.05 77 51.1 77 46 C74.36 46 71.72 46 69 46 C69 41.05 69 36.1 69 31 C64.10846529 31.0395679 64.10846529 31.0395679 59.21704102 31.09008789 C57.47778283 31.09724913 55.73854696 31.05024702 54 31 C53.67 30.67 53.34 30.34 53 30 C53 27.69 53 25.38 53 23 C48.05 23 43.1 23 38 23 C38 20.36 38 17.72 38 15 C25.46 15 12.92 15 0 15 C0 17.64 0 20.28 0 23 C-4.95 23 -9.9 23 -15 23 C-15 25.64 -15 28.28 -15 31 C-19.95 31 -24.9 31 -30 31 C-30 35.95 -30 40.9 -30 46 C-32.64 46 -35.28 46 -38 46 C-38 50.95 -38 55.9 -38 61 C-40.64 61 -43.28 61 -46 61 C-46 76.18 -46 91.36 -46 107 C-43.36 107 -40.72 107 -38 107 C-38 111.95 -38 116.9 -38 122 C-35.36 122 -32.72 122 -30 122 C-30 127.28 -30 132.56 -30 138 C-25.05 138 -20.1 138 -15 138 C-15 140.64 -15 143.28 -15 146 C-10.05 146 -5.1 146 0 146 C0 148.31 0 150.62 0 153 C17.49 153 34.98 153 53 153 C53 155.64 53 158.28 53 161 C48.05 161 43.1 161 38 161 C38 163.64 38 166.28 38 169 C25.46 169 12.92 169 0 169 C0 166.36 0 163.72 0 161 C-4.95 161 -9.9 161 -15 161 C-15 158.36 -15 155.72 -15 153 C-19.95 153 -24.9 153 -30 153 C-30 150.69 -30 148.38 -30 146 C-32.64 146 -35.28 146 -38 146 C-38 143.36 -38 140.72 -38 138 C-40.64 138 -43.28 138 -46 138 C-46 132.72 -46 127.44 -46 122 C-48.31 122 -50.62 122 -53 122 C-53 117.05 -53 112.1 -53 107 C-55.64 107 -58.28 107 -61 107 C-61 91.82 -61 76.64 -61 61 C-58.36 61 -55.72 61 -53 61 C-53 56.05 -53 51.1 -53 46 C-50.69 46 -48.38 46 -46 46 C-46 41.05 -46 36.1 -46 31 C-43.36 31 -40.72 31 -38 31 C-38 28.36 -38 25.72 -38 23 C-35.69 23 -33.38 23 -31 23 C-31.0309375 21.2984375 -31.0309375 21.2984375 -31.0625 19.5625 C-31 16 -31 16 -30 15 C-27.46950598 14.92686433 -24.96695163 14.90752473 -22.4375 14.9375 C-21.72658203 14.94201172 -21.01566406 14.94652344 -20.28320312 14.95117188 C-18.52209987 14.96299136 -16.76103964 14.98092737 -15 15 C-15 12.69 -15 10.38 -15 8 C-10.05 8 -5.1 8 0 8 C0 5.36 0 2.72 0 0 Z " fill="#C8CDDA" transform="translate(165,104)"/>
<path d="M0 0 C5.28 0 10.56 0 16 0 C16.495 3.465 16.495 3.465 17 7 C19.31 7.33 21.62 7.66 24 8 C24 10.31 24 12.62 24 15 C25.7015625 14.9690625 25.7015625 14.9690625 27.4375 14.9375 C31 15 31 15 32 16 C32.04092937 18.33297433 32.04241723 20.66705225 32 23 C34.31 23 36.62 23 39 23 C39 25.64 39 28.28 39 31 C41.64 31 44.28 31 47 31 C47 33.31 47 35.62 47 38 C48.7015625 37.9690625 48.7015625 37.9690625 50.4375 37.9375 C54 38 54 38 55 39 C55.04092937 41.33297433 55.04241723 43.66705225 55 46 C57.64 46 60.28 46 63 46 C63 48.64 63 51.28 63 54 C64.7015625 53.9690625 64.7015625 53.9690625 66.4375 53.9375 C70 54 70 54 71 55 C71.04092937 57.33297433 71.04241723 59.66705225 71 62 C70.34 62 69.68 62 69 62 C69 59.69 69 57.38 69 55 C66.69 55 64.38 55 62 55 C62 59.95 62 64.9 62 70 C59.36 70 56.72 70 54 70 C54 72.64 54 75.28 54 78 C51.69 78 49.38 78 47 78 C47 80.31 47 82.62 47 85 C44.03 85 41.06 85 38 85 C38.495 88.96 38.495 88.96 39 93 C34.05 93 29.1 93 24 93 C24 95.31 24 97.62 24 100 C26.64 100 29.28 100 32 100 C32 102.64 32 105.28 32 108 C34.31 108 36.62 108 39 108 C39 110.31 39 112.62 39 115 C38.67 115 38.34 115 38 115 C38 113.02 38 111.04 38 109 C35.69 109 33.38 109 31 109 C31 106.69 31 104.38 31 102 C29.865625 102.020625 28.73125 102.04125 27.5625 102.0625 C24 102 24 102 23 101 C22.95907063 98.66702567 22.95758277 96.33294775 23 94 C20.36 94 17.72 94 15 94 C15 91.36 15 88.72 15 86 C13.865625 86.020625 12.73125 86.04125 11.5625 86.0625 C8 86 8 86 7 85 C6.95907063 82.66702567 6.95758277 80.33294775 7 78 C4.69 78 2.38 78 0 78 C-0.33 75.36 -0.66 72.72 -1 70 C-3.31 70 -5.62 70 -8 70 C-8 67.69 -8 65.38 -8 63 C-9.7015625 63.0309375 -9.7015625 63.0309375 -11.4375 63.0625 C-15 63 -15 63 -16 62 C-16.04092937 59.66702567 -16.04241723 57.33294775 -16 55 C-18.31 55 -20.62 55 -23 55 C-23.33 52.69 -23.66 50.38 -24 48 C-26.31 47.67 -28.62 47.34 -31 47 C-31 41.72 -31 36.44 -31 31 C-28.36 31 -25.72 31 -23 31 C-23.33 28.69 -23.66 26.38 -24 24 C-18.39 24 -12.78 24 -7 24 C-7 21.36 -7 18.72 -7 16 C-4.69 16 -2.38 16 0 16 C0 13.69 0 11.38 0 9 C-2.31 9 -4.62 9 -7 9 C-6.67 8.01 -6.34 7.02 -6 6 C-6 6.66 -6 7.32 -6 8 C-4.02 8 -2.04 8 0 8 C0 5.36 0 2.72 0 0 Z " fill="#7E4233" transform="translate(295,264)"/>
<path d="M0 0 C4.95 0 9.9 0 15 0 C15 5.28 15 10.56 15 16 C12.69 16 10.38 16 8 16 C8 17.98 8 19.96 8 22 C9.7015625 21.9690625 9.7015625 21.9690625 11.4375 21.9375 C15 22 15 22 16 23 C16.04092937 25.33297433 16.04241723 27.66705225 16 30 C18.31 30 20.62 30 23 30 C23 32.97 23 35.94 23 39 C25.31 39 27.62 39 30 39 C30 41.31 30 43.62 30 46 C27.69 46 25.38 46 23 46 C23 48.64 23 51.28 23 54 C15.08 54 7.16 54 -1 54 C-1 51.69 -1 49.38 -1 47 C-2.7015625 47.0309375 -2.7015625 47.0309375 -4.4375 47.0625 C-8 47 -8 47 -9 46 C-9.04092937 43.66702567 -9.04241723 41.33294775 -9 39 C-10.98 39 -12.96 39 -15 39 C-15 41.64 -15 44.28 -15 47 C-17.31 47 -19.62 47 -22 47 C-22 49.31 -22 51.62 -22 54 C-26.95 54.33 -31.9 54.66 -37 55 C-37.33 57.31 -37.66 59.62 -38 62 C-42.95 62 -47.9 62 -53 62 C-53 64.64 -53 67.28 -53 70 C-71.15 70 -89.3 70 -108 70 C-108 67.36 -108 64.72 -108 62 C-113.28 62 -118.56 62 -124 62 C-124 59.69 -124 57.38 -124 55 C-130.93 54.505 -130.93 54.505 -138 54 C-138 51.36 -138 48.72 -138 46 C-140.31 46 -142.62 46 -145 46 C-145 43.69 -145 41.38 -145 39 C-137.74 39 -130.48 39 -123 39 C-123 41.64 -123 44.28 -123 47 C-118.05 47 -113.1 47 -108 47 C-108 49.31 -108 51.62 -108 54 C-90.18 54 -72.36 54 -54 54 C-54 51.36 -54 48.72 -54 46 C-49.05 46.33 -44.1 46.66 -39 47 C-39 44.03 -39 41.06 -39 38 C-33.72 38.33 -28.44 38.66 -23 39 C-23 36.36 -23 33.72 -23 31 C-20.36 31 -17.72 31 -15 31 C-15 28.36 -15 25.72 -15 23 C-10.05 23 -5.1 23 0 23 C0 15.41 0 7.82 0 0 Z " fill="#5F5D59" transform="translate(265,234)"/>
<path d="M0 0 C0.33 0 0.66 0 1 0 C1 2.31 1 4.62 1 7 C3.31 7 5.62 7 8 7 C8.495 10.465 8.495 10.465 9 14 C11.31 14.33 13.62 14.66 16 15 C16 17.31 16 19.62 16 22 C17.7015625 21.9690625 17.7015625 21.9690625 19.4375 21.9375 C23 22 23 22 24 23 C24.07319621 25.69654854 24.09242537 28.36691458 24.0625 31.0625 C24.05798828 31.82111328 24.05347656 32.57972656 24.04882812 33.36132812 C24.0370068 35.24091871 24.01907078 37.12046899 24 39 C21.36 39 18.72 39 16 39 C16 41.64 16 44.28 16 47 C13.69 47 11.38 47 9 47 C9.04125 47.94875 9.0825 48.8975 9.125 49.875 C9 53 9 53 7 55 C3.875 55.125 3.875 55.125 1 55 C1 57.31 1 59.62 1 62 C-1.64 62 -4.28 62 -7 62 C-7 64.64 -7 67.28 -7 70 C-9.64590014 70.02684679 -12.29153096 70.04676357 -14.9375 70.0625 C-15.69224609 70.07087891 -16.44699219 70.07925781 -17.22460938 70.08789062 C-19.14994313 70.09652441 -21.07535581 70.05224333 -23 70 C-24 69 -24 69 -24.0625 65.4375 C-24.041875 64.303125 -24.02125 63.16875 -24 62 C-26.31 62 -28.62 62 -31 62 C-31 59.69 -31 57.38 -31 55 C-33.31 55 -35.62 55 -38 55 C-38 47.08 -38 39.16 -38 31 C-36.02 31 -34.04 31 -32 31 C-31.67 28.36 -31.34 25.72 -31 23 C-28.36 23 -25.72 23 -23 23 C-23 20.36 -23 17.72 -23 15 C-20.69 15 -18.38 15 -16 15 C-16 12.69 -16 10.38 -16 8 C-15.01 7.67 -14.02 7.34 -13 7 C-13 6.34 -13 5.68 -13 5 C-13.66 5 -14.32 5 -15 5 C-15 3.68 -15 2.36 -15 1 C-12.625 1.25 -12.625 1.25 -10 2 C-9.731875 2.66 -9.46375 3.32 -9.1875 4 C-8.20919068 6.18421195 -8.20919068 6.18421195 -6.10546875 6.484375 C-4.0773984 6.72589651 -2.03816368 6.86850557 0 7 C0 4.69 0 2.38 0 0 Z " fill="#4C0D09" transform="translate(403,357)"/>
<path d="M0 0 C2.31 0 4.62 0 7 0 C7 2.64 7 5.28 7 8 C9.64 8 12.28 8 15 8 C15 10.64 15 13.28 15 16 C17.31 16 19.62 16 22 16 C22 17.98 22 19.96 22 22 C19.69 22 17.38 22 15 22 C14.67 20.35 14.34 18.7 14 17 C12.02 16.34 10.04 15.68 8 15 C7.67 19.95 7.34 24.9 7 30 C5.02 30 3.04 30 1 30 C0.67 32.64 0.34 35.28 0 38 C-2.64 38 -5.28 38 -8 38 C-8 40.31 -8 42.62 -8 45 C-10.31 45 -12.62 45 -15 45 C-15 49.95 -15 54.9 -15 60 C-17.31 60 -19.62 60 -22 60 C-22.33 58.02 -22.66 56.04 -23 54 C-26.465 53.505 -26.465 53.505 -30 53 C-29.01 52.34 -28.02 51.68 -27 51 C-27.66 50.67 -28.32 50.34 -29 50 C-29 48.68 -29 47.36 -29 46 C-31.97 45.67 -34.94 45.34 -38 45 C-38 42.69 -38 40.38 -38 38 C-40.64 38 -43.28 38 -46 38 C-46 33.05 -46 28.1 -46 23 C-40.72 23 -35.44 23 -30 23 C-30 25.64 -30 28.28 -30 31 C-25.05 31 -20.1 31 -15 31 C-15 28.36 -15 25.72 -15 23 C-12.36 23 -9.72 23 -7 23 C-7 20.36 -7 17.72 -7 15 C-4.69 15 -2.38 15 0 15 C0 10.05 0 5.1 0 0 Z " fill="#500D09" transform="translate(311,273)"/>
<path d="M0 0 C2.31 0 4.62 0 7 0 C7 2.64 7 5.28 7 8 C9.64 8 12.28 8 15 8 C15 10.64 15 13.28 15 16 C17.31 16 19.62 16 22 16 C22 18.31 22 20.62 22 23 C17.38 23 12.76 23 8 23 C8 25.31 8 27.62 8 30 C5.69 30.33 3.38 30.66 1 31 C0.67 33.31 0.34 35.62 0 38 C-3.465 38.495 -3.465 38.495 -7 39 C-7.33 41.31 -7.66 43.62 -8 46 C-10.31 46 -12.62 46 -15 46 C-15 50.62 -15 55.24 -15 60 C-17.31 60 -19.62 60 -22 60 C-22 57.69 -22 55.38 -22 53 C-24.64 53 -27.28 53 -30 53 C-30 50.36 -30 47.72 -30 45 C-32.64 45 -35.28 45 -38 45 C-38 42.69 -38 40.38 -38 38 C-33.05 38 -28.1 38 -23 38 C-23.33 35.69 -23.66 33.38 -24 31 C-23 30 -23 30 -21.15234375 29.90234375 C-19.1015625 29.93489583 -17.05078125 29.96744792 -15 30 C-15 27.69 -15 25.38 -15 23 C-12.36 23 -9.72 23 -7 23 C-7 20.36 -7 17.72 -7 15 C-4.69 15 -2.38 15 0 15 C0 10.05 0 5.1 0 0 Z " fill="#4F0D0A" transform="translate(334,296)"/>
<path d="M0 0 C4.95 0 9.9 0 15 0 C15 2.31 15 4.62 15 7 C17.64 7 20.28 7 23 7 C23 9.31 23 11.62 23 14 C20.36 14 17.72 14 15 14 C14.773125 13.38125 14.54625 12.7625 14.3125 12.125 C12.62070165 9.38589791 11.00755839 8.94975528 8 8 C8 9.32 8 10.64 8 12 C8.66 12 9.32 12 10 12 C10 12.66 10 13.32 10 14 C9.34 14.33 8.68 14.66 8 15 C7.59270772 17.32156597 7.25561323 19.6568787 7 22 C4.69 22 2.38 22 0 22 C0 24.64 0 27.28 0 30 C-2.64 30 -5.28 30 -8 30 C-8 32.97 -8 35.94 -8 39 C-11.465 38.505 -11.465 38.505 -15 38 C-14.91621094 38.82242188 -14.83242188 39.64484375 -14.74609375 40.4921875 C-14.1068548 47.49954102 -13.97777595 54.03314993 -15 61 C-15.33 61 -15.66 61 -16 61 C-16 58.69 -16 56.38 -16 54 C-18.31 54 -20.62 54 -23 54 C-24.35439668 51.29120665 -24.06501451 48.99066732 -24 46 C-26.31 46 -28.62 46 -31 46 C-31 43.03 -31 40.06 -31 37 C-33.31 37 -35.62 37 -38 37 C-38 34.36 -38 31.72 -38 29 C-33.05 29.33 -28.1 29.66 -23 30 C-23 27.36 -23 24.72 -23 22 C-20.36 22 -17.72 22 -15 22 C-15.33 19.36 -15.66 16.72 -16 14 C-13.36 14 -10.72 14 -8 14 C-8 11.69 -8 9.38 -8 7 C-5.36 7 -2.72 7 0 7 C0 4.69 0 2.38 0 0 Z " fill="#511511" transform="translate(380,350)"/>
<path d="M0 0 C0.33 0 0.66 0 1 0 C1 4.95 1 9.9 1 15 C-1.31 15 -3.62 15 -6 15 C-6 19.95 -6 24.9 -6 30 C-3.69 30 -1.38 30 1 30 C1 50.13 1 70.26 1 91 C3.64 91 6.28 91 9 91 C9 91.33 9 91.66 9 92 C4.05 92 -0.9 92 -6 92 C-6 96.95 -6 101.9 -6 107 C-3.69 107 -1.38 107 1 107 C1 111.95 1 116.9 1 122 C0.67 122 0.34 122 0 122 C0 117.38 0 112.76 0 108 C-2.31 108 -4.62 108 -7 108 C-7 103.05 -7 98.1 -7 93 C-9.31 93 -11.62 93 -14 93 C-15 92 -15 92 -15.12025452 89.52598572 C-15.11803391 88.42678299 -15.11581329 87.32758026 -15.11352539 86.19506836 C-15.11344986 84.95385727 -15.11337433 83.71264618 -15.11329651 82.43382263 C-15.10818911 81.0691626 -15.1029731 79.70450298 -15.09765625 78.33984375 C-15.095792 76.95121817 -15.09436813 75.56259193 -15.09336853 74.17396545 C-15.08954387 70.51278885 -15.07971403 66.8516517 -15.06866455 63.19049072 C-15.05844932 59.45707737 -15.05387067 55.72365766 -15.04882812 51.99023438 C-15.03809171 44.66013823 -15.02101591 37.33007464 -15 30 C-12.36 30 -9.72 30 -7 30 C-7 24.72 -7 19.44 -7 14 C-4.69 14 -2.38 14 0 14 C0 9.38 0 4.76 0 0 Z " fill="#76736F" transform="translate(87,127)"/>
<path d="M0 0 C2.31 0 4.62 0 7 0 C7 4.95 7 9.9 7 15 C9.64 15 12.28 15 15 15 C16.09506492 18.28519475 16.09960608 20.73663415 16.0625 24.1875 C16.05347656 25.27417969 16.04445313 26.36085937 16.03515625 27.48046875 C16.02355469 28.31191406 16.01195312 29.14335937 16 30 C18.31 30 20.62 30 23 30 C23 50.79 23 71.58 23 93 C20.69 93 18.38 93 16 93 C16.01160156 93.75925781 16.02320313 94.51851563 16.03515625 95.30078125 C16.04417969 96.29464844 16.05320312 97.28851563 16.0625 98.3125 C16.07410156 99.29863281 16.08570313 100.28476563 16.09765625 101.30078125 C16 104 16 104 15 107 C12.69 107 10.38 107 8 107 C8 101.72 8 96.44 8 91 C10.31 91 12.62 91 15 91 C15 71.2 15 51.4 15 31 C12.36 31 9.72 31 7 31 C4.69 30.67 2.38 30.34 0 30 C0 20.1 0 10.2 0 0 Z " fill="#6E6963" transform="translate(273,127)"/>
<path d="M0 0 C18.15 0 36.3 0 55 0 C55 2.64 55 5.28 55 8 C56.60681641 7.98259766 56.60681641 7.98259766 58.24609375 7.96484375 C59.64322743 7.95546701 61.04036299 7.94636669 62.4375 7.9375 C63.14455078 7.92912109 63.85160156 7.92074219 64.58007812 7.91210938 C66.38693559 7.90346412 68.19387603 7.94779989 70 8 C71 9 71 9 71 15 C75.62 15 80.24 15 85 15 C85 15.33 85 15.66 85 16 C79.72 16 74.44 16 69 16 C69 13.69 69 11.38 69 9 C64.05 9 59.1 9 54 9 C54 11.31 54 13.62 54 16 C36.18 16 18.36 16 0 16 C0 13.69 0 11.38 0 9 C-4.95 9 -9.9 9 -15 9 C-15 11.31 -15 13.62 -15 16 C-15.99 15.67 -16.98 15.34 -18 15 C-17.34 15 -16.68 15 -16 15 C-16 12.69 -16 10.38 -16 8 C-10.72 8 -5.44 8 0 8 C0 5.36 0 2.72 0 0 Z " fill="#76736F" transform="translate(157,72)"/>
<path d="M0 0 C2.31 0 4.62 0 7 0 C7 9.9 7 19.8 7 30 C4.69 30 2.38 30 0 30 C0 32.64 0 35.28 0 38 C-2.64 38 -5.28 38 -8 38 C-8 40.31 -8 42.62 -8 45 C-11.465 45.495 -11.465 45.495 -15 46 C-15.33 50.29 -15.66 54.58 -16 59 C-19.465 59.495 -19.465 59.495 -23 60 C-23 57.69 -23 55.38 -23 53 C-25.31 53 -27.62 53 -30 53 C-30 50.36 -30 47.72 -30 45 C-32.64 45 -35.28 45 -38 45 C-38 42.69 -38 40.38 -38 38 C-33.05 38 -28.1 38 -23 38 C-23.33 35.36 -23.66 32.72 -24 30 C-21.03 30 -18.06 30 -15 30 C-15 27.69 -15 25.38 -15 23 C-12.69 23 -10.38 23 -8 23 C-8 20.36 -8 17.72 -8 15 C-5.36 15 -2.72 15 0 15 C0 10.05 0 5.1 0 0 Z " fill="#4D0D0A" transform="translate(357,319)"/>
<path d="M0 0 C5.28 0 10.56 0 16 0 C16 7.92 16 15.84 16 24 C13.69 24 11.38 24 9 24 C9 26.64 9 29.28 9 32 C6.36 32 3.72 32 1 32 C1 34.64 1 37.28 1 40 C-3.95 40 -8.9 40 -14 40 C-14 37.36 -14 34.72 -14 32 C-19.28 32 -24.56 32 -30 32 C-30 36.95 -30 41.9 -30 47 C-30.33 47 -30.66 47 -31 47 C-31 41.72 -31 36.44 -31 31 C-28.36 31 -25.72 31 -23 31 C-23.33 28.69 -23.66 26.38 -24 24 C-18.39 24 -12.78 24 -7 24 C-7 21.36 -7 18.72 -7 16 C-4.69 16 -2.38 16 0 16 C0 13.69 0 11.38 0 9 C-2.31 9 -4.62 9 -7 9 C-6.67 8.01 -6.34 7.02 -6 6 C-6 6.66 -6 7.32 -6 8 C-4.02 8 -2.04 8 0 8 C0 5.36 0 2.72 0 0 Z " fill="#7C3D2C" transform="translate(295,264)"/>
<path d="M0 0 C0.33 0 0.66 0 1 0 C1 2.31 1 4.62 1 7 C3.31 7 5.62 7 8 7 C8 7.33 8 7.66 8 8 C5.36 8 2.72 8 0 8 C0 12.95 0 17.9 0 23 C-2.64 23 -5.28 23 -8 23 C-8 25.64 -8 28.28 -8 31 C-10.31 31 -12.62 31 -15 31 C-15 33.31 -15 35.62 -15 38 C-17.64 38 -20.28 38 -23 38 C-23 40.64 -23 43.28 -23 46 C-27.95 46 -32.9 46 -38 46 C-38 41.05 -38 36.1 -38 31 C-36.02 31 -34.04 31 -32 31 C-31.67 28.36 -31.34 25.72 -31 23 C-28.36 23 -25.72 23 -23 23 C-23 20.36 -23 17.72 -23 15 C-20.69 15 -18.38 15 -16 15 C-16 12.69 -16 10.38 -16 8 C-15.01 7.67 -14.02 7.34 -13 7 C-13 6.34 -13 5.68 -13 5 C-13.66 5 -14.32 5 -15 5 C-15 3.68 -15 2.36 -15 1 C-12.625 1.25 -12.625 1.25 -10 2 C-9.731875 2.66 -9.46375 3.32 -9.1875 4 C-8.20919068 6.18421195 -8.20919068 6.18421195 -6.10546875 6.484375 C-4.0773984 6.72589651 -2.03816368 6.86850557 0 7 C0 4.69 0 2.38 0 0 Z " fill="#743020" transform="translate(403,357)"/>
<path d="M0 0 C2.31 0 4.62 0 7 0 C7 2.64 7 5.28 7 8 C9.64 8 12.28 8 15 8 C15 10.31 15 12.62 15 15 C15.66386719 14.98839844 16.32773438 14.97679687 17.01171875 14.96484375 C25.78207381 14.87521968 25.78207381 14.87521968 30 16 C30 18.31 30 20.62 30 23 C32.64 23 35.28 23 38 23 C38 27.95 38 32.9 38 38 C30.41 38 22.82 38 15 38 C15 35.69 15 33.38 15 31 C12.36 31 9.72 31 7 31 C7 28.36 7 25.72 7 23 C4.69 22.67 2.38 22.34 0 22 C0 14.74 0 7.48 0 0 Z " fill="#FDFDFD" transform="translate(135,188)"/>
<path d="M0 0 C4.95 0 9.9 0 15 0 C15 4.95 15 9.9 15 15 C17.64 15 20.28 15 23 15 C23 20.28 23 25.56 23 31 C25.64 31 28.28 31 31 31 C31 33.31 31 35.62 31 38 C33.31 38 35.62 38 38 38 C38 42.95 38 47.9 38 53 C35.69 53 33.38 53 31 53 C31 50.69 31 48.38 31 46 C28.03 46 25.06 46 22 46 C22 43.69 22 41.38 22 39 C19.36 39 16.72 39 14 39 C14 36.36 14 33.72 14 31 C11.69 31 9.38 31 7 31 C7 25.72 7 20.44 7 15 C4.69 15 2.38 15 0 15 C0 10.05 0 5.1 0 0 Z " fill="#524E4C" transform="translate(81,219)"/>
<path d="M0 0 C2.31 0 4.62 0 7 0 C7 2.64 7 5.28 7 8 C9.64 8 12.28 8 15 8 C15 10.31 15 12.62 15 15 C12.36 15 9.72 15 7 15 C7 17.64 7 20.28 7 23 C4.69 23 2.38 23 0 23 C0 25.31 0 27.62 0 30 C-2.97 30 -5.94 30 -9 30 C-8.67 32.64 -8.34 35.28 -8 38 C-15.59 38 -23.18 38 -31 38 C-31 35.36 -31 32.72 -31 30 C-30.67 30 -30.34 30 -30 30 C-30 32.31 -30 34.62 -30 37 C-27.69 37 -25.38 37 -23 37 C-23 32.38 -23 27.76 -23 23 C-20.69 23 -18.38 23 -16 23 C-16.020625 21.865625 -16.04125 20.73125 -16.0625 19.5625 C-16 16 -16 16 -15 15 C-12.66702567 14.95907063 -10.33294775 14.95758277 -8 15 C-8.0309375 13.2984375 -8.0309375 13.2984375 -8.0625 11.5625 C-8 8 -8 8 -7 7 C-4.66702567 6.95907063 -2.33294775 6.95758277 0 7 C0 4.69 0 2.38 0 0 Z " fill="#743120" transform="translate(342,319)"/>
<path d="M0 0 C4.95 0 9.9 0 15 0 C15 5.28 15 10.56 15 16 C12.69 16 10.38 16 8 16 C8 17.98 8 19.96 8 22 C10.31 22 12.62 22 15 22 C15 24.97 15 27.94 15 31 C7.41 31 -0.18 31 -8 31 C-8 33.31 -8 35.62 -8 38 C-10.31 38 -12.62 38 -15 38 C-15 33.05 -15 28.1 -15 23 C-10.05 23 -5.1 23 0 23 C0 15.41 0 7.82 0 0 Z " fill="#494949" transform="translate(265,234)"/>
<path d="M0 0 C4.95 0 9.9 0 15 0 C15 4.95 15 9.9 15 15 C10.05 15 5.1 15 0 15 C0 17.64 0 20.28 0 23 C-7.26 23 -14.52 23 -22 23 C-22 20.36 -22 17.72 -22 15 C-19.69 15 -17.38 15 -15 15 C-15 12.36 -15 9.72 -15 7 C-10.05 7 -5.1 7 0 7 C0 4.69 0 2.38 0 0 Z " fill="#4B4B4A" transform="translate(142,81)"/>
<path d="M0 0 C7.26 0 14.52 0 22 0 C22 2.64 22 5.28 22 8 C26.95 8 31.9 8 37 8 C37 12.62 37 17.24 37 22 C32.05 22 27.1 22 22 22 C22 19.69 22 17.38 22 15 C17.05 15 12.1 15 7 15 C7 12.36 7 9.72 7 7 C4.69 7 2.38 7 0 7 C0 4.69 0 2.38 0 0 Z " fill="#4C4A48" transform="translate(120,273)"/>
<path d="M0 0 C2.64 0 5.28 0 8 0 C8 19.8 8 39.6 8 60 C5.36 60 2.72 60 0 60 C0 40.2 0 20.4 0 0 Z " fill="#1C1718" transform="translate(73,158)"/>
<path d="M0 0 C2.31 0 4.62 0 7 0 C7 19.8 7 39.6 7 60 C4.69 60 2.38 60 0 60 C0 40.2 0 20.4 0 0 Z " fill="#1B1919" transform="translate(288,158)"/>
<path d="M0 0 C17.16 0 34.32 0 52 0 C52 2.64 52 5.28 52 8 C34.84 8 17.68 8 0 8 C0 5.36 0 2.72 0 0 Z " fill="#1B1715" transform="translate(158,73)"/>
<path d="M0 0 C2.64 0 5.28 0 8 0 C8 15.18 8 30.36 8 46 C5.36 46 2.72 46 0 46 C0 30.82 0 15.64 0 0 Z " fill="#1A1B1D" transform="translate(265,165)"/>
<path d="M0 0 C2.64 0 5.28 0 8 0 C8 15.18 8 30.36 8 46 C5.36 46 2.72 46 0 46 C0 30.82 0 15.64 0 0 Z " fill="#A6AAB7" transform="translate(257,165)"/>
<path d="M0 0 C2.64 0 5.28 0 8 0 C8 15.18 8 30.36 8 46 C5.36 46 2.72 46 0 46 C0 30.82 0 15.64 0 0 Z " fill="#191B1B" transform="translate(96,165)"/>
<path d="M0 0 C2.64 0 5.28 0 8 0 C8 15.18 8 30.36 8 46 C5.36 46 2.72 46 0 46 C0 30.82 0 15.64 0 0 Z " fill="#A6ADB8" transform="translate(104,165)"/>
<path d="M0 0 C17.16 0 34.32 0 52 0 C52 2.31 52 4.62 52 7 C34.84 7 17.68 7 0 7 C0 4.69 0 2.38 0 0 Z " fill="#191816" transform="translate(158,296)"/>
<path d="M0 0 C2.64 0.33 5.28 0.66 8 1 C8 3.31 8 5.62 8 8 C9.7015625 7.9690625 9.7015625 7.9690625 11.4375 7.9375 C15 8 15 8 16 9 C16.04092937 11.33297433 16.04241723 13.66705225 16 16 C18.31 16 20.62 16 23 16 C23 18.64 23 21.28 23 24 C25.64 24 28.28 24 31 24 C31 26.31 31 28.62 31 31 C32.7015625 30.9690625 32.7015625 30.9690625 34.4375 30.9375 C38 31 38 31 39 32 C39.04092937 34.33297433 39.04241723 36.66705225 39 39 C41.64 39 44.28 39 47 39 C47 41.64 47 44.28 47 47 C48.7015625 46.9690625 48.7015625 46.9690625 50.4375 46.9375 C54 47 54 47 55 48 C55.04092937 50.33297433 55.04241723 52.66705225 55 55 C54.34 55 53.68 55 53 55 C53 52.69 53 50.38 53 48 C50.69 48 48.38 48 46 48 C46 50.64 46 53.28 46 56 C43.36 56 40.72 56 38 56 C38 53.36 38 50.72 38 48 C40.31 48 42.62 48 45 48 C45 45.69 45 43.38 45 41 C42.69 41 40.38 41 38 41 C38 38.36 38 35.72 38 33 C35.36 33 32.72 33 30 33 C30 30.36 30 27.72 30 25 C27.69 25 25.38 25 23 25 C23 27.64 23 30.28 23 33 C20.36 33 17.72 33 15 33 C15 30.36 15 27.72 15 25 C12.69 25 10.38 25 8 25 C8 27.64 8 30.28 8 33 C5.36 33 2.72 33 0 33 C0.33 32.34 0.66 31.68 1 31 C2.98 31.33 4.96 31.66 7 32 C6.979375 30.824375 6.95875 29.64875 6.9375 28.4375 C6.93052739 24.52586533 7.35749657 20.85502056 8 17 C13.875 17.875 13.875 17.875 15 19 C15.04063832 20.66617115 15.042721 22.33388095 15 24 C17.31 24 19.62 24 22 24 C22 22.02 22 20.04 22 18 C19.69 18 17.38 18 15 18 C15 15.36 15 12.72 15 10 C12.36 10 9.72 10 7 10 C7 7.36 7 4.72 7 2 C4.69 2 2.38 2 0 2 C0 1.34 0 0.68 0 0 Z " fill="#A27E73" transform="translate(311,271)"/>
<path d="M0 0 C4.95 0 9.9 0 15 0 C15 10.23 15 20.46 15 31 C12.36 31 9.72 31 7 31 C7 25.72 7 20.44 7 15 C4.69 15 2.38 15 0 15 C0 10.05 0 5.1 0 0 Z " fill="#4B4A4B" transform="translate(81,219)"/>
<path d="M0 0 C4.95 0 9.9 0 15 0 C15 4.95 15 9.9 15 15 C12.69 15 10.38 15 8 15 C8 20.28 8 25.56 8 31 C5.36 31 2.72 31 0 31 C0 20.77 0 10.54 0 0 Z " fill="#C9CED9" transform="translate(242,211)"/>
<path d="M0 0 C4.95 0 9.9 0 15 0 C15 10.23 15 20.46 15 31 C12.36 31 9.72 31 7 31 C7 25.72 7 20.44 7 15 C4.69 15 2.38 15 0 15 C0 10.05 0 5.1 0 0 Z " fill="#C7CDD8" transform="translate(112,211)"/>
<path d="M0 0 C4.95 0 9.9 0 15 0 C15 2.31 15 4.62 15 7 C20.28 7 25.56 7 31 7 C31 9.64 31 12.28 31 15 C20.77 15 10.54 15 0 15 C0 10.05 0 5.1 0 0 Z " fill="#4B4949" transform="translate(211,81)"/>
<path d="M0 0 C4.95 0 9.9 0 15 0 C15 4.95 15 9.9 15 15 C4.77 15 -5.46 15 -16 15 C-16 8 -16 8 -15 7 C-12.46950598 6.92686433 -9.96695163 6.90752473 -7.4375 6.9375 C-6.72658203 6.94201172 -6.01566406 6.94652344 -5.28320312 6.95117188 C-3.52209987 6.96299136 -1.76103964 6.98092737 0 7 C0 4.69 0 2.38 0 0 Z " fill="#C6CCD9" transform="translate(150,112)"/>
<path d="M0 0 C2.64 0 5.28 0 8 0 C8 9.9 8 19.8 8 30 C3.05 30 -1.9 30 -7 30 C-7 25.05 -7 20.1 -7 15 C-4.69 15 -2.38 15 0 15 C0 10.05 0 5.1 0 0 Z " fill="#4B4B48" transform="translate(88,127)"/>
<path d="M0 0 C2.31 0 4.62 0 7 0 C7 2.64 7 5.28 7 8 C9.31 8 11.62 8 14 8 C14 10.31 14 12.62 14 15 C11.69 15 9.38 15 7 15 C7 17.64 7 20.28 7 23 C-0.59 23 -8.18 23 -16 23 C-16 20.69 -16 18.38 -16 16 C-11.05 15.34 -6.1 14.68 -1 14 C-0.67 9.38 -0.34 4.76 0 0 Z " fill="#4D4949" transform="translate(281,265)"/>
<path d="M0 0 C0.33 0 0.66 0 1 0 C1 2.31 1 4.62 1 7 C3.31 7 5.62 7 8 7 C8 7.33 8 7.66 8 8 C5.69 8 3.38 8 1 8 C1 12.95 1 17.9 1 23 C-6.875 24.125 -6.875 24.125 -10.9375 24.0625 C-11.70964844 24.05347656 -12.48179687 24.04445313 -13.27734375 24.03515625 C-13.84582031 24.02355469 -14.41429687 24.01195312 -15 24 C-15 26.31 -15 28.62 -15 31 C-15.33 31 -15.66 31 -16 31 C-16 28.69 -16 26.38 -16 24 C-18.31 24 -20.62 24 -23 24 C-23 23.67 -23 23.34 -23 23 C-20.36 23 -17.72 23 -15 23 C-15 20.69 -15 18.38 -15 16 C-16.134375 15.855625 -17.26875 15.71125 -18.4375 15.5625 C-22 15 -22 15 -23 14 C-23 12.02 -23 10.04 -23 8 C-15.41 8 -7.82 8 0 8 C0 5.36 0 2.72 0 0 Z M-22 12 C-21.67 12.66 -21.34 13.32 -21 14 C-20.67 13.34 -20.34 12.68 -20 12 C-20.66 12 -21.32 12 -22 12 Z " fill="#656462" transform="translate(280,257)"/>
<path d="M0 0 C10.23 0.33 20.46 0.66 31 1 C31 3.31 31 5.62 31 8 C25.72 8 20.44 8 15 8 C15 10.31 15 12.62 15 15 C10.05 15 5.1 15 0 15 C0 10.05 0 5.1 0 0 Z " fill="#4B4B4B" transform="translate(211,280)"/>
<path d="M0 0 C2.64 0 5.28 0 8 0 C8 2.31 8 4.62 8 7 C9.7015625 6.9690625 9.7015625 6.9690625 11.4375 6.9375 C15 7 15 7 16 8 C16.04092937 10.33297433 16.04241723 12.66705225 16 15 C18.31 15 20.62 15 23 15 C23 17.64 23 20.28 23 23 C25.64 23 28.28 23 31 23 C31 27.95 31 32.9 31 38 C33.31 38 35.62 38 38 38 C38 38.33 38 38.66 38 39 C35.36 39 32.72 39 30 39 C30 34.05 30 29.1 30 24 C27.69 24 25.38 24 23 24 C23 28.95 23 33.9 23 39 C20.36 39 17.72 39 15 39 C15 34.05 15 29.1 15 24 C12.36 24 9.72 24 7 24 C7 21.36 7 18.72 7 16 C9.64 16 12.28 16 15 16 C15 13.69 15 11.38 15 9 C12.36 9 9.72 9 7 9 C7 6.36 7 3.72 7 1 C4.69 1 2.38 1 0 1 C0 0.67 0 0.34 0 0 Z " fill="#635E5B" transform="translate(250,103)"/>
<path d="M0 0 C2.31 0 4.62 0 7 0 C7 15.18 7 30.36 7 46 C4.69 46 2.38 46 0 46 C0 30.82 0 15.64 0 0 Z " fill="#C7CDD9" transform="translate(112,165)"/>
<path d="M0 0 C2.31 0 4.62 0 7 0 C7 15.18 7 30.36 7 46 C4.69 46 2.38 46 0 46 C0 30.82 0 15.64 0 0 Z " fill="#C9CFDC" transform="translate(250,165)"/>
<path d="M0 0 C7.92 0 15.84 0 24 0 C24 7.59 24 15.18 24 23 C21.36 23 18.72 23 16 23 C16 18.05 16 13.1 16 8 C11.10846529 8.0395679 11.10846529 8.0395679 6.21704102 8.09008789 C4.47778283 8.09724913 2.73854696 8.05024702 1 8 C0.67 7.67 0.34 7.34 0 7 C0 4.69 0 2.38 0 0 Z " fill="#C9CDD9" transform="translate(218,127)"/>
<path d="M0 0 C12.54 0 25.08 0 38 0 C38 2.64 38 5.28 38 8 C25.46 8 12.92 8 0 8 C0 5.36 0 2.72 0 0 Z " fill="#A8AAB5" transform="translate(165,265)"/>
<path d="M0 0 C7.59 0 15.18 0 23 0 C23 2.64 23 5.28 23 8 C18.05 8 13.1 8 8 8 C8 12.95 8 17.9 8 23 C5.36 23 2.72 23 0 23 C0 15.41 0 7.82 0 0 Z " fill="#C7CDD9" transform="translate(127,127)"/>
<path d="M0 0 C12.54 0 25.08 0 38 0 C38 2.64 38 5.28 38 8 C25.46 8 12.92 8 0 8 C0 5.36 0 2.72 0 0 Z " fill="#A8AFBC" transform="translate(165,104)"/>
<path d="M0 0 C12.54 0 25.08 0 38 0 C38 2.64 38 5.28 38 8 C25.46 8 12.92 8 0 8 C0 5.36 0 2.72 0 0 Z " fill="#191B1A" transform="translate(165,96)"/>
<path d="M0 0 C2.31 0 4.62 0 7 0 C7.33 4.95 7.66 9.9 8 15 C5.69 15.66 3.38 16.32 1 17 C0.34 19.31 -0.32 21.62 -1 24 C-5.95 23.67 -10.9 23.34 -16 23 C-16 20.36 -16 17.72 -16 15 C-13.36 15 -10.72 15 -8 15 C-8 12.69 -8 10.38 -8 8 C-5.36 8 -2.72 8 0 8 C0 5.36 0 2.72 0 0 Z " fill="#4E4E4D" transform="translate(112,104)"/>
<path d="M0 0 C2.64 0 5.28 0 8 0 C8 2.64 8 5.28 8 8 C10.31 8 12.62 8 15 8 C15 8.33 15 8.66 15 9 C13.02 9 11.04 9 9 9 C9 11.31 9 13.62 9 16 C6.36 16 3.72 16 1 16 C1 18.64 1 21.28 1 24 C-1.64590014 24.02684679 -4.29153096 24.04676357 -6.9375 24.0625 C-7.69224609 24.07087891 -8.44699219 24.07925781 -9.22460938 24.08789062 C-11.14994313 24.09652441 -13.07535581 24.05224333 -15 24 C-16 23 -16 23 -16.0625 19.4375 C-16.041875 18.303125 -16.02125 17.16875 -16 16 C-18.31 16 -20.62 16 -23 16 C-23 13.69 -23 11.38 -23 9 C-24.65 9 -26.3 9 -28 9 C-28.33 8.34 -28.66 7.68 -29 7 C-26.03 7 -23.06 7 -20 7 C-20.33 9.31 -20.66 11.62 -21 14 C-20.21625 13.814375 -19.4325 13.62875 -18.625 13.4375 C-16 13 -16 13 -14 14 C-14 16.64 -14 19.28 -14 22 C-9.38 22 -4.76 22 0 22 C0 19.69 0 17.38 0 15 C-2.64 15 -5.28 15 -8 15 C-8 12.69 -8 10.38 -8 8 C-4.535 7.505 -4.535 7.505 -1 7 C-0.67 4.69 -0.34 2.38 0 0 Z " fill="#682A1E" transform="translate(395,403)"/>
<path d="M0 0 C5.28 0 10.56 0 16 0 C16 2.64 16 5.28 16 8 C18.31 8 20.62 8 23 8 C23 10.31 23 12.62 23 15 C15.41 15 7.82 15 0 15 C0 10.05 0 5.1 0 0 Z " fill="#6A2B1F" transform="translate(265,296)"/>
<path d="M0 0 C2.31 0 4.62 0 7 0 C7.33 2.31 7.66 4.62 8 7 C10.31 7.33 12.62 7.66 15 8 C15 10.31 15 12.62 15 15 C12.69 15.33 10.38 15.66 8 16 C7.67 18.31 7.34 20.62 7 23 C4.69 23 2.38 23 0 23 C0 20.69 0 18.38 0 16 C-2.64 16 -5.28 16 -8 16 C-8 13.36 -8 10.72 -8 8 C-5.36 8 -2.72 8 0 8 C0 5.36 0 2.72 0 0 Z " fill="#FCFDFE" transform="translate(150,142)"/>
<path d="M0 0 C2.31 0 4.62 0 7 0 C7 2.64 7 5.28 7 8 C9.64 8 12.28 8 15 8 C15 10.64 15 13.28 15 16 C17.31 16 19.62 16 22 16 C22 18.31 22 20.62 22 23 C17.38 23 12.76 23 8 23 C8 25.31 8 27.62 8 30 C7.67 30 7.34 30 7 30 C6.67 25.38 6.34 20.76 6 16 C3.03 15.505 3.03 15.505 0 15 C0 10.05 0 5.1 0 0 Z " fill="#561B16" transform="translate(334,296)"/>
<path d="M0 0 C5.28 0 10.56 0 16 0 C16 5.28 16 10.56 16 16 C13.36 16 10.72 16 8 16 C8 18.64 8 21.28 8 24 C5.69 24 3.38 24 1 24 C1 25.98 1 27.96 1 30 C0.67 30 0.34 30 0 30 C0 27.69 0 25.38 0 23 C2.31 23 4.62 23 7 23 C7 20.36 7 17.72 7 15 C4.69 15 2.38 15 0 15 C0 10.05 0 5.1 0 0 Z " fill="#7F5B54" transform="translate(411,380)"/>
<path d="M0 0 C12.54 0 25.08 0 38 0 C38 2.31 38 4.62 38 7 C25.79 7 13.58 7 1 7 C0.67 4.69 0.34 2.38 0 0 Z " fill="#171719" transform="translate(165,273)"/>
<path d="M0 0 C4.95 0 9.9 0 15 0 C15 5.28 15 10.56 15 16 C12.69 16 10.38 16 8 16 C8 17.98 8 19.96 8 22 C10.31 22 12.62 22 15 22 C15 22.33 15 22.66 15 23 C12.69 23 10.38 23 8 23 C7.67 23.66 7.34 24.32 7 25 C7 22.03 7 19.06 7 16 C4.69 16 2.38 16 0 16 C0 10.72 0 5.44 0 0 Z " fill="#545251" transform="translate(265,234)"/>
<path d="M0 0 C2.31 0 4.62 0 7 0 C7 2.64 7 5.28 7 8 C9.64 8 12.28 8 15 8 C15 10.64 15 13.28 15 16 C17.31 16 19.62 16 22 16 C22 17.98 22 19.96 22 22 C19.69 22 17.38 22 15 22 C14.67 20.35 14.34 18.7 14 17 C12.2365625 16.4740625 12.2365625 16.4740625 10.4375 15.9375 C9.77621094 15.74027344 9.11492187 15.54304688 8.43359375 15.33984375 C5.23823321 14.77908925 5.23823321 14.77908925 -1 16 C-0.67 10.72 -0.34 5.44 0 0 Z " fill="#4B1E16" transform="translate(311,273)"/>
<path d="M0 0 C0.33 0 0.66 0 1 0 C1 2.31 1 4.62 1 7 C3.31 7 5.62 7 8 7 C8 9.97 8 12.94 8 16 C0.08 16 -7.84 16 -16 16 C-16 13.36 -16 10.72 -16 8 C-10.72 8 -5.44 8 0 8 C0 5.36 0 2.72 0 0 Z " fill="#4C4A4B" transform="translate(242,88)"/>
<path d="M0 0 C2.64 0 5.28 0 8 0 C8.33 1.98 8.66 3.96 9 6 C11.31 6.33 13.62 6.66 16 7 C16 9.31 16 11.62 16 14 C18.31 14 20.62 14 23 14 C23 14.33 23 14.66 23 15 C15.41 15 7.82 15 0 15 C0 10.05 0 5.1 0 0 Z " fill="#5F1B17" transform="translate(403,365)"/>
<path d="M0 0 C4.95 0 9.9 0 15 0 C15 2.64 15 5.28 15 8 C12.69 8 10.38 8 8 8 C8 10.64 8 13.28 8 16 C5.36 16 2.72 16 0 16 C0 10.72 0 5.44 0 0 Z " fill="#743527" transform="translate(403,395)"/>
<path d="M0 0 C2.64 0 5.28 0 8 0 C8 7.59 8 15.18 8 23 C5.36 23 2.72 23 0 23 C0 15.41 0 7.82 0 0 Z " fill="#4A4A48" transform="translate(96,234)"/>
<path d="M0 0 C7.26 0 14.52 0 22 0 C22 2.64 22 5.28 22 8 C14.74 8 7.48 8 0 8 C0 5.36 0 2.72 0 0 Z " fill="#4A4A49" transform="translate(120,96)"/>
<path d="M0 0 C7.26 0 14.52 0 22 0 C22 2.64 22 5.28 22 8 C19.64575325 8.02726927 17.29183038 8.04696719 14.9375 8.0625 C12.97103516 8.07990234 12.97103516 8.07990234 10.96484375 8.09765625 C7.1836481 8.00452335 3.72079293 7.61448726 0 7 C0 4.69 0 2.38 0 0 Z " fill="#494848" transform="translate(120,273)"/>
<path d="M0 0 C2.97 0.33 5.94 0.66 9 1 C9.33 2.32 9.66 3.64 10 5 C12.49034386 6.29660434 12.49034386 6.29660434 15 7 C15 8.65 15 10.3 15 12 C15.78375 11.979375 16.5675 11.95875 17.375 11.9375 C20 12 20 12 22 13 C22.4140625 15.06640625 22.4140625 15.06640625 22.625 17.5625 C22.69976562 18.38878906 22.77453125 19.21507812 22.8515625 20.06640625 C22.90054687 20.70449219 22.94953125 21.34257812 23 22 C20.69 22 18.38 22 16 22 C15.67 20.02 15.34 18.04 15 16 C12.69 15.67 10.38 15.34 8 15 C8.99 14.34 9.98 13.68 11 13 C10.34 12.67 9.68 12.34 9 12 C9 10.68 9 9.36 9 8 C6.03 7.67 3.06 7.34 0 7 C0 4.69 0 2.38 0 0 Z " fill="#2B0D07" transform="translate(273,311)"/>
<path d="M0 0 C2.64 0 5.28 0 8 0 C8 5.28 8 10.56 8 16 C10.31 16 12.62 16 15 16 C15 16.33 15 16.66 15 17 C12.69 17 10.38 17 8 17 C8 21.95 8 26.9 8 32 C7.67 32 7.34 32 7 32 C7 26.72 7 21.44 7 16 C4.69 16 2.38 16 0 16 C0 10.72 0 5.44 0 0 Z " fill="#5A5958" transform="translate(273,218)"/>
<path d="M0 0 C2.31 0 4.62 0 7 0 C7 2.31 7 4.62 7 7 C9.31 7 11.62 7 14 7 C14 9.31 14 11.62 14 14 C9.38 14 4.76 14 0 14 C0 12.02 0 10.04 0 8 C1.32 7.67 2.64 7.34 4 7 C2.68 6.67 1.36 6.34 0 6 C0 4.02 0 2.04 0 0 Z " fill="#5C1E18" transform="translate(365,327)"/>
<path d="M0 0 C2.64 0 5.28 0 8 0 C8 5.28 8 10.56 8 16 C5.36 16 2.72 16 0 16 C0 10.72 0 5.44 0 0 Z " fill="#1B1917" transform="translate(88,234)"/>
<path d="M0 0 C2.64 0 5.28 0 8 0 C8 5.28 8 10.56 8 16 C5.36 16 2.72 16 0 16 C0 10.72 0 5.44 0 0 Z " fill="#A8ACB6" transform="translate(242,226)"/>
<path d="M0 0 C2.64 0 5.28 0 8 0 C8 5.28 8 10.56 8 16 C5.36 16 2.72 16 0 16 C0 10.72 0 5.44 0 0 Z " fill="#CAD0DC" transform="translate(127,226)"/>
<path d="M0 0 C2.64 0 5.28 0 8 0 C8 5.28 8 10.56 8 16 C5.36 16 2.72 16 0 16 C0 10.72 0 5.44 0 0 Z " fill="#A5A8B2" transform="translate(119,226)"/>
<path d="M0 0 C5.28 0 10.56 0 16 0 C16 2.64 16 5.28 16 8 C10.72 8 5.44 8 0 8 C0 5.36 0 2.72 0 0 Z " fill="#A3A8B3" transform="translate(218,119)"/>
<path d="M0 0 C5.28 0 10.56 0 16 0 C16 2.64 16 5.28 16 8 C10.72 8 5.44 8 0 8 C0 5.36 0 2.72 0 0 Z " fill="#1B1715" transform="translate(226,88)"/>
<path d="M0 0 C5.28 0 10.56 0 16 0 C16 2.64 16 5.28 16 8 C13.52076199 8.02685095 11.0418116 8.04676547 8.5625 8.0625 C7.85544922 8.07087891 7.14839844 8.07925781 6.41992188 8.08789062 C4.61306441 8.09653588 2.80612397 8.05220011 1 8 C0.67 7.67 0.34 7.34 0 7 C0 4.69 0 2.38 0 0 Z " fill="#CBD0DC" transform="translate(218,127)"/>
<path d="M0 0 C1.39456452 0.00667256 2.78911118 0.01863093 4.18359375 0.03515625 C4.89451172 0.03966797 5.60542969 0.04417969 6.33789062 0.04882812 C8.09899388 0.06064761 9.86005411 0.07858362 11.62109375 0.09765625 C11.62109375 2.73765625 11.62109375 5.37765625 11.62109375 8.09765625 C6.34109375 8.09765625 1.06109375 8.09765625 -4.37890625 8.09765625 C-4.37890625 0.12655798 -4.37890625 0.12655798 0 0 Z " fill="#A2A5B0" transform="translate(138.37890625,118.90234375)"/>
<path d="M0 0 C2.64 0 5.28 0 8 0 C8 2.31 8 4.62 8 7 C10.31 7 12.62 7 15 7 C15 4.69 15 2.38 15 0 C17.64 0 20.28 0 23 0 C23 2.64 23 5.28 23 8 C20.69 8 18.38 8 16 8 C16 10.31 16 12.62 16 15 C18.31 15 20.62 15 23 15 C23 17.64 23 20.28 23 23 C22.67 23 22.34 23 22 23 C22 20.69 22 18.38 22 16 C20.865625 16.020625 19.73125 16.04125 18.5625 16.0625 C15 16 15 16 14 15 C13.95907063 12.66702567 13.95758277 10.33294775 14 8 C11.36 8 8.72 8 6 8 C6 5.69 6 3.38 6 1 C4.02 1 2.04 1 0 1 C0 0.67 0 0.34 0 0 Z " fill="#817C74" transform="translate(104,265)"/>
<path d="M0 0 C2.97 0 5.94 0 9 0 C8.67 2.31 8.34 4.62 8 7 C8.78375 6.814375 9.5675 6.62875 10.375 6.4375 C13 6 13 6 15 7 C15 9.64 15 12.28 15 15 C19.62 15 24.24 15 29 15 C29 12.69 29 10.38 29 8 C31.64 8 34.28 8 37 8 C37 5.69 37 3.38 37 1 C39.31 1 41.62 1 44 1 C44 1.33 44 1.66 44 2 C42.02 2 40.04 2 38 2 C38 4.31 38 6.62 38 9 C35.36 9 32.72 9 30 9 C30 11.64 30 14.28 30 17 C27.35409986 17.02684679 24.70846904 17.04676357 22.0625 17.0625 C21.30775391 17.07087891 20.55300781 17.07925781 19.77539062 17.08789062 C17.85005687 17.09652441 15.92464419 17.05224333 14 17 C13 16 13 16 12.9375 12.4375 C12.958125 11.303125 12.97875 10.16875 13 9 C10.69 9 8.38 9 6 9 C6 6.69 6 4.38 6 2 C4.35 2 2.7 2 1 2 C0.67 1.34 0.34 0.68 0 0 Z " fill="#947E75" transform="translate(366,410)"/>
<path d="M0 0 C5.28 0 10.56 0 16 0 C16 2.64 16 5.28 16 8 C11.05 8 6.1 8 1 8 C0.67 5.36 0.34 2.72 0 0 Z " fill="#C9CFDD" transform="translate(134,127)"/>
<path d="M0 0 C2.64 0 5.28 0 8 0 C8 4.95 8 9.9 8 15 C5.36 15 2.72 15 0 15 C0 10.05 0 5.1 0 0 Z " fill="#2D0D08" transform="translate(265,296)"/>
<path d="M0 0 C4.95 0 9.9 0 15 0 C15 2.64 15 5.28 15 8 C10.05 8 5.1 8 0 8 C0 5.36 0 2.72 0 0 Z " fill="#A26040" transform="translate(296,273)"/>
<path d="M0 0 C4.95 0 9.9 0 15 0 C15 2.64 15 5.28 15 8 C10.05 8 5.1 8 0 8 C0 5.36 0 2.72 0 0 Z " fill="#290A03" transform="translate(296,265)"/>
<path d="M0 0 C4.95 0 9.9 0 15 0 C15 2.64 15 5.28 15 8 C10.05 8 5.1 8 0 8 C0 5.36 0 2.72 0 0 Z " fill="#19181A" transform="translate(150,265)"/>
<path d="M0 0 C4.95 0 9.9 0 15 0 C15 2.64 15 5.28 15 8 C10.05 8 5.1 8 0 8 C0 5.36 0 2.72 0 0 Z " fill="#141619" transform="translate(219,257)"/>
<path d="M0 0 C4.95 0 9.9 0 15 0 C15 2.64 15 5.28 15 8 C10.05 8 5.1 8 0 8 C0 5.36 0 2.72 0 0 Z " fill="#A9AAB5" transform="translate(150,257)"/>
<path d="M0 0 C4.95 0 9.9 0 15 0 C15 2.64 15 5.28 15 8 C10.05 8 5.1 8 0 8 C0 5.36 0 2.72 0 0 Z " fill="#A9ACB7" transform="translate(203,257)"/>
<path d="M0 0 C2.64 0 5.28 0 8 0 C8 4.95 8 9.9 8 15 C5.36 15 2.72 15 0 15 C0 10.05 0 5.1 0 0 Z " fill="#15171B" transform="translate(257,211)"/>
<path d="M0 0 C2.64 0 5.28 0 8 0 C8 4.95 8 9.9 8 15 C5.36 15 2.72 15 0 15 C0 10.05 0 5.1 0 0 Z " fill="#17171B" transform="translate(257,150)"/>
<path d="M0 0 C2.64 0 5.28 0 8 0 C8 4.95 8 9.9 8 15 C5.36 15 2.72 15 0 15 C0 10.05 0 5.1 0 0 Z " fill="#A7ABB7" transform="translate(242,135)"/>
<path d="M0 0 C2.64 0 5.28 0 8 0 C8 4.95 8 9.9 8 15 C5.36 15 2.72 15 0 15 C0 10.05 0 5.1 0 0 Z " fill="#A5A7B3" transform="translate(119,135)"/>
<path d="M0 0 C2.64 0 5.28 0 8 0 C8 4.95 8 9.9 8 15 C5.36 15 2.72 15 0 15 C0 10.05 0 5.1 0 0 Z " fill="#1A1716" transform="translate(88,127)"/>
<path d="M0 0 C4.95 0 9.9 0 15 0 C15 2.64 15 5.28 15 8 C10.05 8 5.1 8 0 8 C0 5.36 0 2.72 0 0 Z " fill="#C8CDD9" transform="translate(203,119)"/>
<path d="M0 0 C4.95 0 9.9 0 15 0 C15 2.64 15 5.28 15 8 C10.05 8 5.1 8 0 8 C0 5.36 0 2.72 0 0 Z " fill="#4B4A4C" transform="translate(242,104)"/>
<path d="M0 0 C4.95 0 9.9 0 15 0 C15 2.64 15 5.28 15 8 C10.05 8 5.1 8 0 8 C0 5.36 0 2.72 0 0 Z " fill="#1A1716" transform="translate(127,88)"/>
<path d="M0 0 C2.64 0 5.28 0 8 0 C8 2.31 8 4.62 8 7 C9.7015625 6.9690625 9.7015625 6.9690625 11.4375 6.9375 C15 7 15 7 16 8 C16.04092937 10.33297433 16.04241723 12.66705225 16 15 C18.31 15 20.62 15 23 15 C23 15.66 23 16.32 23 17 C20.36 17 17.72 17 15 17 C15 19.31 15 21.62 15 24 C12.36 24 9.72 24 7 24 C7 21.36 7 18.72 7 16 C9.64 16 12.28 16 15 16 C15 13.69 15 11.38 15 9 C12.36 9 9.72 9 7 9 C7 6.36 7 3.72 7 1 C4.69 1 2.38 1 0 1 C0 0.67 0 0.34 0 0 Z " fill="#8C877F" transform="translate(250,103)"/>
<path d="M0 0 C0.33 0 0.66 0 1 0 C1 2.31 1 4.62 1 7 C3.31 7 5.62 7 8 7 C8 7.33 8 7.66 8 8 C5.36 8 2.72 8 0 8 C0 10.31 0 12.62 0 15 C-2.64 15 -5.28 15 -8 15 C-8 12.69 -8 10.38 -8 8 C-10.31 8 -12.62 8 -15 8 C-14.34 7.67 -13.68 7.34 -13 7 C-13 6.34 -13 5.68 -13 5 C-13.66 5 -14.32 5 -15 5 C-15 3.68 -15 2.36 -15 1 C-12.625 1.25 -12.625 1.25 -10 2 C-9.731875 2.66 -9.46375 3.32 -9.1875 4 C-8.20919068 6.18421195 -8.20919068 6.18421195 -6.10546875 6.484375 C-4.0773984 6.72589651 -2.03816368 6.86850557 0 7 C0 4.69 0 2.38 0 0 Z " fill="#7F4A44" transform="translate(403,357)"/>
<path d="M0 0 C0.33 0 0.66 0 1 0 C1 2.64 1 5.28 1 8 C3.31 8 5.62 8 8 8 C8 10.31 8 12.62 8 15 C3.05 15 -1.9 15 -7 15 C-7 12.69 -7 10.38 -7 8 C-4.69 8 -2.38 8 0 8 C0 5.36 0 2.72 0 0 Z " fill="#A36041" transform="translate(379,334)"/>
<path d="M0 0 C5.28 0 10.56 0 16 0 C16 2.31 16 4.62 16 7 C10.72 7 5.44 7 0 7 C0 4.69 0 2.38 0 0 Z " fill="#191817" transform="translate(226,281)"/>
<path d="M0 0 C4.62 0 9.24 0 14 0 C14 2.64 14 5.28 14 8 C9.38 8 4.76 8 0 8 C0 5.36 0 2.72 0 0 Z " fill="#16181C" transform="translate(204,265)"/>
<path d="M0 0 C4.62 0 9.24 0 14 0 C14 2.64 14 5.28 14 8 C9.38 8 4.76 8 0 8 C0 5.36 0 2.72 0 0 Z " fill="#161518" transform="translate(135,257)"/>
<path d="M0 0 C2.31 0 4.62 0 7 0 C7 5.28 7 10.56 7 16 C4.69 16 2.38 16 0 16 C0 10.72 0 5.44 0 0 Z " fill="#221F20" transform="translate(273,234)"/>
<path d="M0 0 C2.31 0 4.62 0 7 0 C7 5.28 7 10.56 7 16 C4.69 16 2.38 16 0 16 C0 10.72 0 5.44 0 0 Z " fill="#1A1919" transform="translate(281,218)"/>
<path d="M0 0 C5.28 0 10.56 0 16 0 C16 2.31 16 4.62 16 7 C13.52076199 7.02685095 11.0418116 7.04676547 8.5625 7.0625 C7.85544922 7.07087891 7.14839844 7.07925781 6.41992188 7.08789062 C4.61306441 7.09653588 2.80612397 7.05220011 1 7 C0.67 6.67 0.34 6.34 0 6 C0 4.02 0 2.04 0 0 Z " fill="#AAADBA" transform="translate(218,250)"/>
<path d="M0 0 C4.95 0 9.9 0 15 0 C15.33 2.31 15.66 4.62 16 7 C10.72 7 5.44 7 0 7 C0 4.69 0 2.38 0 0 Z " fill="#CACDD9" transform="translate(203,250)"/>
<path d="M0 0 C4.95 0 9.9 0 15 0 C15 2.31 15 4.62 15 7 C10.05 7 5.1 7 0 7 C0 4.69 0 2.38 0 0 Z " fill="#1E1B19" transform="translate(211,288)"/>
<path d="M0 0 C4.95 0 9.9 0 15 0 C15 2.31 15 4.62 15 7 C10.05 7 5.1 7 0 7 C0 4.69 0 2.38 0 0 Z " fill="#191715" transform="translate(127,281)"/>
<path d="M0 0 C2.31 0 4.62 0 7 0 C7 4.95 7 9.9 7 15 C4.69 15 2.38 15 0 15 C0 10.05 0 5.1 0 0 Z " fill="#4B4B49" transform="translate(250,257)"/>
<path d="M0 0 C2.31 0 4.62 0 7 0 C7 4.95 7 9.9 7 15 C4.69 15 2.38 15 0 15 C0 10.05 0 5.1 0 0 Z " fill="#4B494A" transform="translate(112,257)"/>
<path d="M0 0 C4.95 0 9.9 0 15 0 C15 2.31 15 4.62 15 7 C10.05 7 5.1 7 0 7 C0 4.69 0 2.38 0 0 Z " fill="#C9CDD9" transform="translate(150,250)"/>
<path d="M0 0 C4.95 0 9.9 0 15 0 C15 2.31 15 4.62 15 7 C10.05 7 5.1 7 0 7 C0 4.69 0 2.38 0 0 Z " fill="#AAACB9" transform="translate(135,250)"/>
<path d="M0 0 C2.31 0 4.62 0 7 0 C7 4.95 7 9.9 7 15 C4.69 15 2.38 15 0 15 C0 10.05 0 5.1 0 0 Z " fill="#16171A" transform="translate(112,227)"/>
<path d="M0 0 C2.31 0 4.62 0 7 0 C7 4.95 7 9.9 7 15 C4.69 15 2.38 15 0 15 C0 10.05 0 5.1 0 0 Z " fill="#141719" transform="translate(250,227)"/>
<path d="M0 0 C2.31 0 4.62 0 7 0 C7 4.95 7 9.9 7 15 C4.69 15 2.38 15 0 15 C0 10.05 0 5.1 0 0 Z " fill="#181613" transform="translate(81,219)"/>
<path d="M0 0 C2.31 0 4.62 0 7 0 C7 4.95 7 9.9 7 15 C4.69 15 2.38 15 0 15 C0 10.05 0 5.1 0 0 Z " fill="#16181B" transform="translate(104,211)"/>
<path d="M0 0 C2.31 0 4.62 0 7 0 C7 4.95 7 9.9 7 15 C4.69 15 2.38 15 0 15 C0 10.05 0 5.1 0 0 Z " fill="#A8ADB7" transform="translate(250,211)"/>
<path d="M0 0 C2.31 0 4.62 0 7 0 C7 4.95 7 9.9 7 15 C4.69 15 2.38 15 0 15 C0 10.05 0 5.1 0 0 Z " fill="#A6ACB7" transform="translate(112,211)"/>
<path d="M0 0 C2.31 0 4.62 0 7 0 C7 4.95 7 9.9 7 15 C4.69 15 2.38 15 0 15 C0 10.05 0 5.1 0 0 Z " fill="#A8ACB8" transform="translate(112,150)"/>
<path d="M0 0 C2.31 0 4.62 0 7 0 C7 4.95 7 9.9 7 15 C4.69 15 2.38 15 0 15 C0 10.05 0 5.1 0 0 Z " fill="#A8ACB7" transform="translate(250,150)"/>
<path d="M0 0 C2.31 0 4.62 0 7 0 C7 4.95 7 9.9 7 15 C4.69 15 2.38 15 0 15 C0 10.05 0 5.1 0 0 Z " fill="#161617" transform="translate(104,150)"/>
<path d="M0 0 C2.31 0 4.62 0 7 0 C7 4.95 7 9.9 7 15 C4.69 15 2.38 15 0 15 C0 10.05 0 5.1 0 0 Z " fill="#1A1717" transform="translate(273,127)"/>
<path d="M0 0 C4.95 0 9.9 0 15 0 C15 2.31 15 4.62 15 7 C10.05 7 5.1 7 0 7 C0 4.69 0 2.38 0 0 Z " fill="#141518" transform="translate(219,112)"/>
<path d="M0 0 C4.95 0 9.9 0 15 0 C15 2.31 15 4.62 15 7 C10.05 7 5.1 7 0 7 C0 4.69 0 2.38 0 0 Z " fill="#A8ABB8" transform="translate(203,112)"/>
<path d="M0 0 C4.95 0 9.9 0 15 0 C15 2.31 15 4.62 15 7 C10.05 7 5.1 7 0 7 C0 4.69 0 2.38 0 0 Z " fill="#A8ACB9" transform="translate(150,112)"/>
<path d="M0 0 C4.95 0 9.9 0 15 0 C15 2.31 15 4.62 15 7 C10.05 7 5.1 7 0 7 C0 4.69 0 2.38 0 0 Z " fill="#1B1A1B" transform="translate(150,104)"/>
<path d="M0 0 C4.95 0 9.9 0 15 0 C15 2.31 15 4.62 15 7 C10.05 7 5.1 7 0 7 C0 4.69 0 2.38 0 0 Z " fill="#1F1A16" transform="translate(211,81)"/>
<path d="M0 0 C2.19050021 0.09017996 4.378466 0.24666208 6.5625 0.4375 C7.76003906 0.53933594 8.95757812 0.64117187 10.19140625 0.74609375 C11.11824219 0.82988281 12.04507812 0.91367187 13 1 C13 3.31 13 5.62 13 8 C8.38 8 3.76 8 -1 8 C-1 1 -1 1 0 0 Z " fill="#5E211A" transform="translate(343,311)"/>
<path d="M0 0 C2.64 0 5.28 0 8 0 C8.18175781 0.54269531 8.36351562 1.08539063 8.55078125 1.64453125 C8.92783203 2.71767578 8.92783203 2.71767578 9.3125 3.8125 C9.67794922 4.87404297 9.67794922 4.87404297 10.05078125 5.95703125 C11.43052914 8.92661209 13.08630961 10.5431548 16 12 C16 12.99 16 13.98 16 15 C13.36 15 10.72 15 8 15 C8 12.36 8 9.72 8 7 C5.36 7 2.72 7 0 7 C0 4.69 0 2.38 0 0 Z " fill="#2A0B07" transform="translate(296,334)"/>
<path d="M0 0 C4.62 0 9.24 0 14 0 C14 2.31 14 4.62 14 7 C9.38 7 4.76 7 0 7 C0 4.69 0 2.38 0 0 Z " fill="#1E1A18" transform="translate(143,288)"/>
<path d="M0 0 C2.31 0 4.62 0 7 0 C7 4.62 7 9.24 7 14 C4.69 14 2.38 14 0 14 C0 9.38 0 4.76 0 0 Z " fill="#1C1816" transform="translate(281,143)"/>
<path d="M0 0 C2.31 0 4.62 0 7 0 C7 4.62 7 9.24 7 14 C4.69 14 2.38 14 0 14 C0 9.38 0 4.76 0 0 Z " fill="#181716" transform="translate(81,143)"/>
<path d="M0 0 C2.31 0 4.62 0 7 0 C7 4.62 7 9.24 7 14 C4.69 14 2.38 14 0 14 C0 9.38 0 4.76 0 0 Z " fill="#161618" transform="translate(250,135)"/>
<path d="M0 0 C2.31 0 4.62 0 7 0 C7 4.62 7 9.24 7 14 C4.69 14 2.38 14 0 14 C0 9.38 0 4.76 0 0 Z " fill="#141415" transform="translate(112,135)"/>
<path d="M0 0 C4.62 0 9.24 0 14 0 C14 2.31 14 4.62 14 7 C9.38 7 4.76 7 0 7 C0 4.69 0 2.38 0 0 Z " fill="#161417" transform="translate(135,112)"/>
<path d="M0 0 C4.62 0 9.24 0 14 0 C14 2.31 14 4.62 14 7 C9.38 7 4.76 7 0 7 C0 4.69 0 2.38 0 0 Z " fill="#16171A" transform="translate(204,104)"/>
<path d="M0 0 C4.62 0 9.24 0 14 0 C14 2.31 14 4.62 14 7 C9.38 7 4.76 7 0 7 C0 4.69 0 2.38 0 0 Z " fill="#191815" transform="translate(143,81)"/>
<path d="M0 0 C3.3 0 6.6 0 10 0 C10 2.64 10 5.28 10 8 C4.72 8 -0.56 8 -6 8 C-6 12.95 -6 17.9 -6 23 C-6.33 23 -6.66 23 -7 23 C-7 17.72 -7 12.44 -7 7 C-4.36 7 -1.72 7 1 7 C0.67 4.69 0.34 2.38 0 0 Z " fill="#8C7063" transform="translate(271,288)"/>
<path d="M0 0 C0.33 0 0.66 0 1 0 C1 2.64 1 5.28 1 8 C-1.64 8 -4.28 8 -7 8 C-7 10.64 -7 13.28 -7 16 C-9.31 16 -11.62 16 -14 16 C-14 18.64 -14 21.28 -14 24 C-16.64 24 -19.28 24 -22 24 C-22 26.31 -22 28.62 -22 31 C-24.64 31 -27.28 31 -30 31 C-30 33.64 -30 36.28 -30 39 C-32.64 39 -35.28 39 -38 39 C-38 38.67 -38 38.34 -38 38 C-35.69 38 -33.38 38 -31 38 C-31 35.36 -31 32.72 -31 30 C-28.36 30 -25.72 30 -23 30 C-23 27.36 -23 24.72 -23 22 C-20.69 22 -18.38 22 -16 22 C-16 19.69 -16 17.38 -16 15 C-13.36 15 -10.72 15 -8 15 C-8 12.36 -8 9.72 -8 7 C-5.36 7 -2.72 7 0 7 C0 4.69 0 2.38 0 0 Z " fill="#E7DCCB" transform="translate(126,88)"/>
<path d="M0 0 C0.99 0.99 1.98 1.98 3 3 C3.556875 2.67 4.11375 2.34 4.6875 2 C7.30284522 0.8690399 9.1806646 0.84337026 12 1 C12 3.31 12 5.62 12 8 C7.38 8 2.76 8 -2 8 C-2 5.69 -2 3.38 -2 1 C-1.34 0.67 -0.68 0.34 0 0 Z " fill="#30140E" transform="translate(383,417)"/>
<path d="M0 0 C0.66 0.33 1.32 0.66 2 1 C2.4140625 3.28515625 2.4140625 3.28515625 2.625 6.0625 C2.69976562 6.98160156 2.77453125 7.90070313 2.8515625 8.84765625 C2.90054687 9.55792969 2.94953125 10.26820313 3 11 C-4.625 12.25 -4.625 12.25 -8 10 C-7.44271087 6.65626525 -6.64826111 3.96687001 -5 1 C-3.68 1.33 -2.36 1.66 -1 2 C-0.67 1.34 -0.34 0.68 0 0 Z " fill="#5E5C5E" transform="translate(278,269)"/>
<path d="M0 0 C0.33 0 0.66 0 1 0 C1 2.64 1 5.28 1 8 C3.31 8 5.62 8 8 8 C8 9.98 8 11.96 8 14 C5.69 14 3.38 14 1 14 C0.67 12.35 0.34 10.7 0 9 C-1.98 8.34 -3.96 7.68 -6 7 C-6 5.02 -6 3.04 -6 1 C-3.525 1.495 -3.525 1.495 -1 2 C-1 2.99 -1 3.98 -1 5 C-0.67 3.35 -0.34 1.7 0 0 Z " fill="#2F0D07" transform="translate(325,281)"/>
<path d="M0 0 C2.64 0 5.28 0 8 0 C8 5.28 8 10.56 8 16 C5.36 16 2.72 16 0 16 C0 13.36 0 10.72 0 8 C2.31 8 4.62 8 7 8 C7 5.69 7 3.38 7 1 C4.69 1 2.38 1 0 1 C0 0.67 0 0.34 0 0 Z " fill="#915A43" transform="translate(349,311)"/>
<path d="M0 0 C0.33 0 0.66 0 1 0 C1 2.64 1 5.28 1 8 C3.31 8 5.62 8 8 8 C8.33 10.64 8.66 13.28 9 16 C6.36 16 3.72 16 1 16 C0.67 17.32 0.34 18.64 0 20 C0 13.4 0 6.8 0 0 Z " fill="#51504F" transform="translate(119,96)"/>
<path d="M0 0 C0.33 0 0.66 0 1 0 C1 2.31 1 4.62 1 7 C3.31 7 5.62 7 8 7 C8 9.97 8 12.94 8 16 C5.36 16 2.72 16 0 16 C0 10.72 0 5.44 0 0 Z " fill="#46413C" transform="translate(242,88)"/>
<path d="M0 0 C1.65 0 3.3 0 5 0 C5 4.29 5 8.58 5 13 C3.02 13 1.04 13 -1 13 C-1.02686553 11.02090602 -1.04633375 9.04171029 -1.0625 7.0625 C-1.07410156 5.96035156 -1.08570313 4.85820312 -1.09765625 3.72265625 C-1 1 -1 1 0 0 Z " fill="#310F08" transform="translate(419,382)"/>
<path d="M0 0 C0.99 0 1.98 0 3 0 C3.33 0.99 3.66 1.98 4 3 C4.99 3.33 5.98 3.66 7 4 C7 4.66 7 5.32 7 6 C7.66 6 8.32 6 9 6 C9 8.64 9 11.28 9 14 C11.64 14 14.28 14 17 14 C17.33 14.66 17.66 15.32 18 16 C17.0625 18.125 17.0625 18.125 16 20 C16.66 20.33 17.32 20.66 18 21 C17.01 21.33 16.02 21.66 15 22 C15 19.69 15 17.38 15 15 C12.69 15 10.38 15 8 15 C8 12.36 8 9.72 8 7 C5.36 7 2.72 7 0 7 C0 4.69 0 2.38 0 0 Z " fill="#240905" transform="translate(319,357)"/>
<path d="M0 0 C2.64 0 5.28 0 8 0 C8 2.64 8 5.28 8 8 C5.36 8 2.72 8 0 8 C0 5.36 0 2.72 0 0 Z " fill="#2B0E08" transform="translate(403,403)"/>
<path d="M0 0 C2.64 0 5.28 0 8 0 C8 2.64 8 5.28 8 8 C5.36 8 2.72 8 0 8 C0 5.36 0 2.72 0 0 Z " fill="#753428" transform="translate(395,403)"/>
<path d="M0 0 C2.64 0 5.28 0 8 0 C8 2.64 8 5.28 8 8 C5.36 8 2.72 8 0 8 C0 5.36 0 2.72 0 0 Z " fill="#9C5E45" transform="translate(326,296)"/>
<path d="M0 0 C2.64 0 5.28 0 8 0 C8 2.64 8 5.28 8 8 C5.36 8 2.72 8 0 8 C0 5.36 0 2.72 0 0 Z " fill="#181818" transform="translate(257,257)"/>
<path d="M0 0 C2.64 0 5.28 0 8 0 C8 2.64 8 5.28 8 8 C5.36 8 2.72 8 0 8 C0 5.36 0 2.72 0 0 Z " fill="#16171A" transform="translate(242,242)"/>
<path d="M0 0 C2.64 0 5.28 0 8 0 C8 2.64 8 5.28 8 8 C5.36 8 2.72 8 0 8 C0 5.36 0 2.72 0 0 Z " fill="#A9ABB6" transform="translate(234,242)"/>
<path d="M0 0 C2.64 0 5.28 0 8 0 C8 2.64 8 5.28 8 8 C5.36 8 2.72 8 0 8 C0 5.36 0 2.72 0 0 Z " fill="#A7ACB5" transform="translate(127,242)"/>
<path d="M0 0 C2.64 0 5.28 0 8 0 C8 2.64 8 5.28 8 8 C5.36 8 2.72 8 0 8 C0 5.36 0 2.72 0 0 Z " fill="#AAADB7" transform="translate(234,127)"/>
<path d="M0 0 C0.66 0 1.32 0 2 0 C2 2.31 2 4.62 2 7 C5.3 7 8.6 7 12 7 C11.67 8.65 11.34 10.3 11 12 C11.804375 12.12375 12.60875 12.2475 13.4375 12.375 C14.283125 12.58125 15.12875 12.7875 16 13 C17.60725635 16.21451269 17.05748185 19.43612536 17 23 C16.67 23 16.34 23 16 23 C16 20.69 16 18.38 16 16 C14.2984375 16.0309375 14.2984375 16.0309375 12.5625 16.0625 C9 16 9 16 8 15 C7.95907063 12.66702567 7.95758277 10.33294775 8 8 C5.69 8 3.38 8 1 8 C0.67 5.36 0.34 2.72 0 0 Z " fill="#AC9687" transform="translate(271,311)"/>
<path d="M0 0 C2.97 0 5.94 0 9 0 C9 2.31 9 4.62 9 7 C10.98 7 12.96 7 15 7 C15 7.33 15 7.66 15 8 C12.69 8 10.38 8 8 8 C8 5.69 8 3.38 8 1 C5.69 1 3.38 1 1 1 C1 2.98 1 4.96 1 7 C2.65 7 4.3 7 6 7 C5.67 7.66 5.34 8.32 5 9 C3.68 9 2.36 9 1 9 C1 13.62 1 18.24 1 23 C0.67 23 0.34 23 0 23 C0 18.38 0 13.76 0 9 C-1.65 9 -3.3 9 -5 9 C-5 8.67 -5 8.34 -5 8 C-3.35 8 -1.7 8 0 8 C0 5.36 0 2.72 0 0 Z " fill="#81534D" transform="translate(364,326)"/>
<path d="M0 0 C2.64 0 5.28 0 8 0 C8 2.31 8 4.62 8 7 C5.36 7 2.72 7 0 7 C0 4.69 0 2.38 0 0 Z " fill="#2B0802" transform="translate(395,411)"/>
<path d="M0 0 C2.31 0 4.62 0 7 0 C7 2.64 7 5.28 7 8 C4.69 8 2.38 8 0 8 C0 5.36 0 2.72 0 0 Z " fill="#310C04" transform="translate(411,395)"/>
<path d="M0 0 C2.31 0 4.62 0 7 0 C7 2.64 7 5.28 7 8 C4.69 8 2.38 8 0 8 C0 5.36 0 2.72 0 0 Z " fill="#723424" transform="translate(411,387)"/>
<path d="M0 0 C2.64 0 5.28 0 8 0 C8 2.31 8 4.62 8 7 C5.36 7 2.72 7 0 7 C0 4.69 0 2.38 0 0 Z " fill="#2A0F0A" transform="translate(403,365)"/>
<path d="M0 0 C2.64 0 5.28 0 8 0 C8 2.31 8 4.62 8 7 C5.36 7 2.72 7 0 7 C0 4.69 0 2.38 0 0 Z " fill="#A26349" transform="translate(395,365)"/>
<path d="M0 0 C2.64 0 5.28 0 8 0 C8 2.31 8 4.62 8 7 C5.36 7 2.72 7 0 7 C0 4.69 0 2.38 0 0 Z " fill="#2B0D08" transform="translate(395,357)"/>
<path d="M0 0 C2.31 0 4.62 0 7 0 C7 2.64 7 5.28 7 8 C4.69 8 2.38 8 0 8 C0 5.36 0 2.72 0 0 Z " fill="#2F0B07" transform="translate(357,319)"/>
<path d="M0 0 C2.64 0 5.28 0 8 0 C8 2.31 8 4.62 8 7 C5.36 7 2.72 7 0 7 C0 4.69 0 2.38 0 0 Z " fill="#1B1514" transform="translate(265,281)"/>
<path d="M0 0 C2.64 0 5.28 0 8 0 C8 2.31 8 4.62 8 7 C5.36 7 2.72 7 0 7 C0 4.69 0 2.38 0 0 Z " fill="#1A1616" transform="translate(257,273)"/>
<path d="M0 0 C2.64 0 5.28 0 8 0 C8 2.31 8 4.62 8 7 C5.36 7 2.72 7 0 7 C0 4.69 0 2.38 0 0 Z " fill="#1D1918" transform="translate(242,273)"/>
<path d="M0 0 C2.31 0 4.62 0 7 0 C7 2.64 7 5.28 7 8 C4.69 8 2.38 8 0 8 C0 5.36 0 2.72 0 0 Z " fill="#171111" transform="translate(281,265)"/>
<path d="M0 0 C2.31 0 4.62 0 7 0 C7 2.64 7 5.28 7 8 C4.69 8 2.38 8 0 8 C0 5.36 0 2.72 0 0 Z " fill="#141010" transform="translate(273,257)"/>
<path d="M0 0 C2.64 0 5.28 0 8 0 C8 2.31 8 4.62 8 7 C5.36 7 2.72 7 0 7 C0 4.69 0 2.38 0 0 Z " fill="#101217" transform="translate(234,250)"/>
<path d="M0 0 C2.64 0 5.28 0 8 0 C8 2.31 8 4.62 8 7 C5.36 7 2.72 7 0 7 C0 4.69 0 2.38 0 0 Z " fill="#4A4A4B" transform="translate(257,250)"/>
<path d="M0 0 C2.64 0 5.28 0 8 0 C8 2.31 8 4.62 8 7 C5.36 7 2.72 7 0 7 C0 4.69 0 2.38 0 0 Z " fill="#191715" transform="translate(96,250)"/>
<path d="M0 0 C2.31 0 4.62 0 7 0 C7 2.64 7 5.28 7 8 C4.69 8 2.38 8 0 8 C0 5.36 0 2.72 0 0 Z " fill="#1B1C1E" transform="translate(119,242)"/>
<path d="M0 0 C2.64 0 5.28 0 8 0 C8 2.31 8 4.62 8 7 C5.36 7 2.72 7 0 7 C0 4.69 0 2.38 0 0 Z " fill="#171819" transform="translate(242,127)"/>
<path d="M0 0 C2.64 0 5.28 0 8 0 C8 2.31 8 4.62 8 7 C5.36 7 2.72 7 0 7 C0 4.69 0 2.38 0 0 Z " fill="#131214" transform="translate(234,119)"/>
<path d="M0 0 C2.64 0 5.28 0 8 0 C8 2.31 8 4.62 8 7 C5.36 7 2.72 7 0 7 C0 4.69 0 2.38 0 0 Z " fill="#1D1B15" transform="translate(96,120)"/>
<path d="M0 0 C2.64 0 5.28 0 8 0 C8 2.31 8 4.62 8 7 C5.36 7 2.72 7 0 7 C0 4.69 0 2.38 0 0 Z " fill="#1E1A19" transform="translate(257,112)"/>
<path d="M0 0 C2.64 0 5.28 0 8 0 C8 2.31 8 4.62 8 7 C5.36 7 2.72 7 0 7 C0 4.69 0 2.38 0 0 Z " fill="#1E1C1B" transform="translate(104,112)"/>
<path d="M0 0 C2.31 0 4.62 0 7 0 C7 2.64 7 5.28 7 8 C4.69 8 2.38 8 0 8 C0 5.36 0 2.72 0 0 Z " fill="#1C1918" transform="translate(250,104)"/>
<path d="M0 0 C2.31 0 4.62 0 7 0 C7 2.64 7 5.28 7 8 C4.69 8 2.38 8 0 8 C0 5.36 0 2.72 0 0 Z " fill="#1E1D18" transform="translate(112,104)"/>
<path d="M0 0 C2.31 0 4.62 0 7 0 C7 2.64 7 5.28 7 8 C4.69 8 2.38 8 0 8 C0 5.36 0 2.72 0 0 Z " fill="#1F1C19" transform="translate(120,96)"/>
<path d="M0 0 C4.95 0 9.9 0 15 0 C15 2.31 15 4.62 15 7 C14.34 7 13.68 7 13 7 C12.67 5.35 12.34 3.7 12 2 C11.01 1.67 10.02 1.34 9 1 C9 1.66 9 2.32 9 3 C7.02 3 5.04 3 3 3 C3 4.32 3 5.64 3 7 C2.01 7 1.02 7 0 7 C0 4.69 0 2.38 0 0 Z " fill="#9E664E" transform="translate(296,273)"/>
<path d="M0 0 C2.31 0 4.62 0 7 0 C7 2.31 7 4.62 7 7 C3.98968256 7.93423645 3.13349732 8.04449911 0 7 C0 4.69 0 2.38 0 0 Z " fill="#4C4A4B" transform="translate(250,112)"/>
<path d="M0 0 C2.64 0 5.28 0 8 0 C8 2.31 8 4.62 8 7 C5.69 7 3.38 7 1 7 C0.67 4.69 0.34 2.38 0 0 Z " fill="#290C08" transform="translate(341,304)"/>
<path d="M0 0 C4.29 0 8.58 0 13 0 C12.34 1.65 11.68 3.3 11 5 C10.360625 4.814375 9.72125 4.62875 9.0625 4.4375 C8.0415625 4.2209375 8.0415625 4.2209375 7 4 C6.67 4.33 6.34 4.66 6 5 C4.00041636 5.04080783 1.99954746 5.04254356 0 5 C0 3.35 0 1.7 0 0 Z " fill="#2F150F" transform="translate(297,266)"/>
<path d="M0 0 C2.64 0 5.28 0 8 0 C8 2.31 8 4.62 8 7 C5.69 7 3.38 7 1 7 C0.67 4.69 0.34 2.38 0 0 Z " fill="#35100A" transform="translate(387,350)"/>
<path d="M0 0 C1.134375 0.020625 2.26875 0.04125 3.4375 0.0625 C3.4375 2.3725 3.4375 4.6825 3.4375 7.0625 C1.1275 7.0625 -1.1825 7.0625 -3.5625 7.0625 C-3.94383299 5.0710944 -4.27575582 3.06970923 -4.5625 1.0625 C-3.5625 0.0625 -3.5625 0.0625 0 0 Z " fill="#2E0E07" transform="translate(375.5625,333.9375)"/>
<path d="M0 0 C2.31 0 4.62 0 7 0 C7 2.31 7 4.62 7 7 C4.69 7 2.38 7 0 7 C0 4.69 0 2.38 0 0 Z " fill="#280904" transform="translate(411,373)"/>
<path d="M0 0 C2.31 0 4.62 0 7 0 C7 2.31 7 4.62 7 7 C4.69 7 2.38 7 0 7 C0 4.69 0 2.38 0 0 Z " fill="#2F150E" transform="translate(380,342)"/>
<path d="M0 0 C2.31 0 4.62 0 7 0 C7 2.31 7 4.62 7 7 C4.69 7 2.38 7 0 7 C0 4.69 0 2.38 0 0 Z " fill="#330D08" transform="translate(281,281)"/>
<path d="M0 0 C2.31 0 4.62 0 7 0 C7 2.31 7 4.62 7 7 C4.69 7 2.38 7 0 7 C0 4.69 0 2.38 0 0 Z " fill="#321510" transform="translate(288,273)"/>
<path d="M0 0 C2.31 0 4.62 0 7 0 C7 2.31 7 4.62 7 7 C4.69 7 2.38 7 0 7 C0 4.69 0 2.38 0 0 Z " fill="#1C1918" transform="translate(120,273)"/>
<path d="M0 0 C2.31 0 4.62 0 7 0 C7 2.31 7 4.62 7 7 C4.69 7 2.38 7 0 7 C0 4.69 0 2.38 0 0 Z " fill="#151516" transform="translate(250,265)"/>
<path d="M0 0 C2.31 0 4.62 0 7 0 C7 2.31 7 4.62 7 7 C4.69 7 2.38 7 0 7 C0 4.69 0 2.38 0 0 Z " fill="#1A1818" transform="translate(112,265)"/>
<path d="M0 0 C2.31 0 4.62 0 7 0 C7 2.31 7 4.62 7 7 C4.69 7 2.38 7 0 7 C0 4.69 0 2.38 0 0 Z " fill="#17181A" transform="translate(127,250)"/>
<path d="M0 0 C2.31 0 4.62 0 7 0 C7 2.31 7 4.62 7 7 C4.69 7 2.38 7 0 7 C0 4.69 0 2.38 0 0 Z " fill="#161617" transform="translate(265,250)"/>
<path d="M0 0 C2.31 0 4.62 0 7 0 C7 2.31 7 4.62 7 7 C4.69 7 2.38 7 0 7 C0 4.69 0 2.38 0 0 Z " fill="#A6AAB5" transform="translate(127,127)"/>
<path d="M0 0 C2.31 0 4.62 0 7 0 C7 2.31 7 4.62 7 7 C4.69 7 2.38 7 0 7 C0 4.69 0 2.38 0 0 Z " fill="#1D1D1D" transform="translate(120,127)"/>
<path d="M0 0 C2.31 0 4.62 0 7 0 C7 2.31 7 4.62 7 7 C4.69 7 2.38 7 0 7 C0 4.69 0 2.38 0 0 Z " fill="#1D1A17" transform="translate(265,120)"/>
<path d="M0 0 C2.64 0 5.28 0 8 0 C8 0.33 8 0.66 8 1 C5.69 1 3.38 1 1 1 C1 5.62 1 10.24 1 15 C3.31 15 5.62 15 8 15 C8 15.33 8 15.66 8 16 C5.69 16 3.38 16 1 16 C1 20.95 1 25.9 1 31 C0.67 31 0.34 31 0 31 C-0.89571109 20.51329011 -0.97960463 10.48930498 0 0 Z " fill="#555556" transform="translate(111,134)"/>
<path d="M0 0 C0.99 0 1.98 0 3 0 C4.4783226 2.95664519 4.06032783 5.74229737 4 9 C1.69 9 -0.62 9 -3 9 C-2.67 7.68 -2.34 6.36 -2 5 C-1.34 5.33 -0.68 5.66 0 6 C0 4.02 0 2.04 0 0 Z " fill="#36120A" transform="translate(315,347)"/>
<path d="M0 0 C2.31 0 4.62 0 7 0 C7 2.31 7 4.62 7 7 C4.69 6.67 2.38 6.34 0 6 C0 4.02 0 2.04 0 0 Z " fill="#2D0906" transform="translate(365,327)"/>
<path d="M0 0 C2.31 0 4.62 0 7 0 C7 1.98 7 3.96 7 6 C4.36 6 1.72 6 -1 6 C-0.67 4.02 -0.34 2.04 0 0 Z " fill="#340E05" transform="translate(349,312)"/>
<path d="M0 0 C2.31 0 4.62 0 7 0 C7 1.98 7 3.96 7 6 C4.69 6 2.38 6 0 6 C0 4.02 0 2.04 0 0 Z " fill="#18181B" transform="translate(127,120)"/>
<path d="M0 0 C0 2.31 0 4.62 0 7 C2.31 7 4.62 7 7 7 C7 7.33 7 7.66 7 8 C4.36 8 1.72 8 -1 8 C-1 5.69 -1 3.38 -1 1 C-3.31 1 -5.62 1 -8 1 C-8 2.65 -8 4.3 -8 6 C-8.33 5.01 -8.66 4.02 -9 3 C-10.65 2.67 -12.3 2.34 -14 2 C-14 1.34 -14 0.68 -14 0 C-8.97703996 -1.13016601 -5.02125926 -0.77916092 0 0 Z " fill="#8E6962" transform="translate(419,372)"/>
<path d="M0 0 C2.31 0 4.62 0 7 0 C7 2.31 7 4.62 7 7 C5.02 7 3.04 7 1 7 C1.20625 6.21625 1.4125 5.4325 1.625 4.625 C1.74875 3.75875 1.8725 2.8925 2 2 C1.34 1.34 0.68 0.68 0 0 Z " fill="#270B05" transform="translate(334,296)"/>
<path d="M0 0 C1.98 0 3.96 0 6 0 C6 2.64 6 5.28 6 8 C4.33388095 8.042721 2.66617115 8.04063832 1 8 C0 7 0 7 -0.0625 3.4375 C-0.041875 2.303125 -0.02125 1.16875 0 0 Z " fill="#2C0E08" transform="translate(312,273)"/>
<path d="M0 0 C0.99 0 1.98 0 3 0 C3.061875 0.61875 3.12375 1.2375 3.1875 1.875 C3.828919 4.27761141 3.828919 4.27761141 6.5625 5.25 C7.366875 5.4975 8.17125 5.745 9 6 C9 6.66 9 7.32 9 8 C7.35 8 5.7 8 4 8 C3.67 7.34 3.34 6.68 3 6 C1.10466658 5.53476937 1.10466658 5.53476937 -1.0625 5.375 C-2.361875 5.25125 -3.66125 5.1275 -5 5 C-3.68 4.67 -2.36 4.34 -1 4 C-0.67 2.68 -0.34 1.36 0 0 Z " fill="#3A0F0C" transform="translate(279,312)"/>
<path d="M0 0 C4.95 0 9.9 0 15 0 C15 0.33 15 0.66 15 1 C11.7 1.33 8.4 1.66 5 2 C4.67 3.32 4.34 4.64 4 6 C2.68 6.33 1.36 6.66 0 7 C0 4.69 0 2.38 0 0 Z " fill="#13100E" transform="translate(211,81)"/>
<path d="M0 0 C0.33 0 0.66 0 1 0 C1 2.31 1 4.62 1 7 C3.31 7 5.62 7 8 7 C8 4.69 8 2.38 8 0 C10 3.75 10 3.75 10 6 C11.65 6.33 13.3 6.66 15 7 C15 7.33 15 7.66 15 8 C10.05 8 5.1 8 0 8 C0 5.36 0 2.72 0 0 Z " fill="#653D31" transform="translate(311,349)"/>
<path d="M0 0 C0 1.65 0 3.3 0 5 C-2.35438733 6.42944945 -3.48032433 7.08661261 -6.25 6.625 C-6.8275 6.41875 -7.405 6.2125 -8 6 C-7.34 6 -6.68 6 -6 6 C-6 4.68 -6 3.36 -6 2 C-2.25 0 -2.25 0 0 0 Z " fill="#60191B" transform="translate(318,282)"/>
<path d="M0 0 C2.31 0 4.62 0 7 0 C7 5.28 7 10.56 7 16 C6.67 16 6.34 16 6 16 C5.67 12.04 5.34 8.08 5 4 C4.34 4 3.68 4 3 4 C3 3.34 3 2.68 3 2 C2.34 2 1.68 2 1 2 C0.67 2.66 0.34 3.32 0 4 C0 2.68 0 1.36 0 0 Z " fill="#100C0D" transform="translate(273,234)"/>
<path d="M0 0 C0.66 0 1.32 0 2 0 C2 2.31 2 4.62 2 7 C-2.95 7 -7.9 7 -13 7 C-13 6.67 -13 6.34 -13 6 C-7.555 5.505 -7.555 5.505 -2 5 C-1.34 3.35 -0.68 1.7 0 0 Z " fill="#0E0E11" transform="translate(163,104)"/>
<path d="M0 0 C2.97 0.495 2.97 0.495 6 1 C6 1.66 6 2.32 6 3 C5.01 3.33 4.02 3.66 3 4 C2.67 4.66 2.34 5.32 2 6 C3.65 6.33 5.3 6.66 7 7 C7 7.33 7 7.66 7 8 C4.69 8 2.38 8 0 8 C0 5.36 0 2.72 0 0 Z " fill="#2F130E" transform="translate(342,379)"/>
<path d="M0 0 C0.33 0 0.66 0 1 0 C1 4.95 1 9.9 1 15 C0.01 14.67 -0.98 14.34 -2 14 C-2 12.35 -2 10.7 -2 9 C-3.32 8.67 -4.64 8.34 -6 8 C-4.02 8 -2.04 8 0 8 C0 5.36 0 2.72 0 0 Z " fill="#94644F" transform="translate(379,334)"/>
<path d="M0 0 C0.66 0 1.32 0 2 0 C2 1.98 2 3.96 2 6 C0.02 6 -1.96 6 -4 6 C-3.67 4.68 -3.34 3.36 -3 2 C-2.01 2 -1.02 2 0 2 C0 1.34 0 0.68 0 0 Z " fill="#310D04" transform="translate(278,289)"/>
<path d="M0 0 C0.33 0 0.66 0 1 0 C1.33 2.31 1.66 4.62 2 7 C-0.31 7 -2.62 7 -5 7 C-5 6.34 -5 5.68 -5 5 C-4.01 5 -3.02 5 -2 5 C-1.34 3.35 -0.68 1.7 0 0 Z " fill="#2A110C" transform="translate(416,396)"/>
<path d="M0 0 C0.33 0 0.66 0 1 0 C1 1.98 1 3.96 1 6 C-0.98 6 -2.96 6 -5 6 C-4.67 4.35 -4.34 2.7 -4 1 C-3.01 1.33 -2.02 1.66 -1 2 C-0.67 1.34 -0.34 0.68 0 0 Z " fill="#2C0B07" transform="translate(294,274)"/>
<path d="M0 0 C2.64 0 5.28 0 8 0 C8 2.31 8 4.62 8 7 C6.68 6.34 5.36 5.68 4 5 C4 4.01 4 3.02 4 2 C2.68 1.34 1.36 0.68 0 0 Z " fill="#230A03" transform="translate(387,350)"/>
<path d="M0 0 C2.97 0.495 2.97 0.495 6 1 C5.67 2.65 5.34 4.3 5 6 C4.38125 5.67 3.7625 5.34 3.125 5 C1.08981656 3.85806765 1.08981656 3.85806765 -1 4 C-0.67 2.68 -0.34 1.36 0 0 Z " fill="#3B0D07" transform="translate(289,323)"/>
<path d="M0 0 C1.98 0 3.96 0 6 0 C5.2884375 0.680625 5.2884375 0.680625 4.5625 1.375 C2.90972192 2.93258204 2.90972192 2.93258204 2 5 C3.65 5 5.3 5 7 5 C7 5.33 7 5.66 7 6 C4.69 6 2.38 6 0 6 C0 4.02 0 2.04 0 0 Z " fill="#380F09" transform="translate(411,374)"/>
<path d="M0 0 C0.33 0 0.66 0 1 0 C1 1.98 1 3.96 1 6 C-0.98 6 -2.96 6 -5 6 C-3.35830472 3.97945196 -1.69088222 1.97956942 0 0 Z " fill="#311510" transform="translate(401,411)"/>
<path d="M0 0 C2.64 0 5.28 0 8 0 C8 0.66 8 1.32 8 2 C7.34 2 6.68 2 6 2 C6 2.99 6 3.98 6 5 C5.01 4.67 4.02 4.34 3 4 C3 3.01 3 2.02 3 1 C2.01 0.67 1.02 0.34 0 0 Z " fill="#440A06" transform="translate(279,311)"/>
<path d="M0 0 C2.64 0 5.28 0 8 0 C6.68 0.33 5.36 0.66 4 1 C4 2.65 4 4.3 4 6 C3.01 6 2.02 6 1 6 C0.67 4.02 0.34 2.04 0 0 Z " fill="#29292C" transform="translate(234,119)"/>
<path d="M0 0 C0.66 0 1.32 0 2 0 C2 1.65 2 3.3 2 5 C0.02 5 -1.96 5 -4 5 C-4 4.34 -4 3.68 -4 3 C-2.68 2.67 -1.36 2.34 0 2 C0 1.34 0 0.68 0 0 Z " fill="#201D1E" transform="translate(285,268)"/>
<path d="M0 0 C2.475 0.495 2.475 0.495 5 1 C4.34 2.32 3.68 3.64 3 5 C2.01 5 1.02 5 0 5 C0 3.35 0 1.7 0 0 Z " fill="#1E2024" transform="translate(235,251)"/>
<path d="M0 0 C0.66 0 1.32 0 2 0 C2.66 0.99 3.32 1.98 4 3 C4.66 3 5.32 3 6 3 C6 3.66 6 4.32 6 5 C4.02 5 2.04 5 0 5 C0 3.35 0 1.7 0 0 Z " fill="#350B04" transform="translate(380,344)"/>
<path d="M0 0 C1.65 0 3.3 0 5 0 C5 1.65 5 3.3 5 5 C3.68 4.67 2.36 4.34 1 4 C0.67 2.68 0.34 1.36 0 0 Z " fill="#33150E" transform="translate(351,312)"/>
<path d="M0 0 C1.98 0 3.96 0 6 0 C4.35830472 2.02054804 2.69088222 4.02043058 1 6 C0.67 6 0.34 6 0 6 C0 4.02 0 2.04 0 0 Z " fill="#2B1011" transform="translate(281,281)"/>
<path d="M0 0 C0.66 0.33 1.32 0.66 2 1 C2 1.99 2 2.98 2 4 C0.02 4 -1.96 4 -4 4 C-4.33 3.01 -4.66 2.02 -5 1 C-3.68 1.33 -2.36 1.66 -1 2 C-0.67 1.34 -0.34 0.68 0 0 Z " fill="#4D4A4B" transform="translate(278,269)"/>
<path d="M0 0 C-0.66 1.32 -1.32 2.64 -2 4 C-4.475 3.01 -4.475 3.01 -7 2 C-4 0 -4 0 0 0 Z " fill="#380C04" transform="translate(394,418)"/>
<path d="M0 0 C0.33 0 0.66 0 1 0 C1 2.31 1 4.62 1 7 C-0.65 7 -2.3 7 -4 7 C-3.34 6.34 -2.68 5.68 -2 5 C-1.29289322 3.35008418 -0.62056011 1.68437744 0 0 Z " fill="#4C403E" transform="translate(280,281)"/>
<path d="M0 0 C1.98 0 3.96 0 6 0 C6 1.98 6 3.96 6 6 C5.34 5.01 4.68 4.02 4 3 C1.94074861 2.27617533 1.94074861 2.27617533 0 2 C0 1.34 0 0.68 0 0 Z " fill="#292323" transform="translate(273,258)"/>
</svg>
